%TF.GenerationSoftware,KiCad,Pcbnew,9.0.3*%
%TF.CreationDate,2025-07-18T23:55:13-07:00*%
%TF.ProjectId,kikard,6b696b61-7264-42e6-9b69-6361645f7063,rev?*%
%TF.SameCoordinates,Original*%
%TF.FileFunction,Drillmap*%
%TF.FilePolarity,Positive*%
%FSLAX45Y45*%
G04 Gerber Fmt 4.5, Leading zero omitted, Abs format (unit mm)*
G04 Created by KiCad (PCBNEW 9.0.3) date 2025-07-18 23:55:13*
%MOMM*%
%LPD*%
G01*
G04 APERTURE LIST*
%ADD10C,0.050000*%
%ADD11C,0.200000*%
%ADD12C,0.100000*%
%ADD13C,0.250000*%
G04 APERTURE END LIST*
D10*
X13000000Y-6500000D02*
X17000000Y-6500000D01*
X17000000Y-13500000D01*
X13000000Y-13500000D01*
X13000000Y-6500000D01*
D11*
D12*
X14592500Y-11142500D02*
X14607500Y-11157500D01*
X14607500Y-11142500D02*
X14592500Y-11157500D01*
X14637500Y-11027500D02*
X14652500Y-11042500D01*
X14652500Y-11027500D02*
X14637500Y-11042500D01*
X14637500Y-11277500D02*
X14652500Y-11292500D01*
X14652500Y-11277500D02*
X14637500Y-11292500D01*
X14687500Y-11102500D02*
X14702500Y-11117500D01*
X14702500Y-11102500D02*
X14687500Y-11117500D01*
X14762500Y-11527500D02*
X14777500Y-11542500D01*
X14777500Y-11527500D02*
X14762500Y-11542500D01*
X14812500Y-10977500D02*
X14827500Y-10992500D01*
X14827500Y-10977500D02*
X14812500Y-10992500D01*
X14837500Y-11577500D02*
X14852500Y-11592500D01*
X14852500Y-11577500D02*
X14837500Y-11592500D01*
X14862500Y-11527500D02*
X14877500Y-11542500D01*
X14877500Y-11527500D02*
X14862500Y-11542500D01*
X14912500Y-11527500D02*
X14927500Y-11542500D01*
X14927500Y-11527500D02*
X14912500Y-11542500D01*
X14962500Y-11527500D02*
X14977500Y-11542500D01*
X14977500Y-11527500D02*
X14962500Y-11542500D01*
X15062500Y-11527500D02*
X15077500Y-11542500D01*
X15077500Y-11527500D02*
X15062500Y-11542500D01*
X15112500Y-11527500D02*
X15127500Y-11542500D01*
X15127500Y-11527500D02*
X15112500Y-11542500D01*
X15162500Y-11527500D02*
X15177500Y-11542500D01*
X15177500Y-11527500D02*
X15162500Y-11542500D01*
X15237500Y-11052500D02*
X15252500Y-11067500D01*
X15252500Y-11052500D02*
X15237500Y-11067500D01*
X15237500Y-11152500D02*
X15252500Y-11167500D01*
X15252500Y-11152500D02*
X15237500Y-11167500D01*
X15237500Y-11302500D02*
X15252500Y-11317500D01*
X15252500Y-11302500D02*
X15237500Y-11317500D01*
X15237500Y-11352500D02*
X15252500Y-11367500D01*
X15252500Y-11352500D02*
X15237500Y-11367500D01*
X15302126Y-11021377D02*
X15317126Y-11036377D01*
X15317126Y-11021377D02*
X15302126Y-11036377D01*
X13780000Y-9080000D02*
G75*
G02*
X13760000Y-9080000I-10000J0D01*
G01*
X13760000Y-9080000D02*
G75*
G02*
X13780000Y-9080000I10000J0D01*
G01*
X14480000Y-8480000D02*
G75*
G02*
X14460000Y-8480000I-10000J0D01*
G01*
X14460000Y-8480000D02*
G75*
G02*
X14480000Y-8480000I10000J0D01*
G01*
X13150000Y-10185000D02*
X13150000Y-10215000D01*
X13135000Y-10200000D02*
X13165000Y-10200000D01*
X13250000Y-10685000D02*
X13250000Y-10715000D01*
X13235000Y-10700000D02*
X13265000Y-10700000D01*
X13400000Y-8985000D02*
X13400000Y-9015000D01*
X13385000Y-9000000D02*
X13415000Y-9000000D01*
X13415000Y-9508000D02*
X13415000Y-9538000D01*
X13400000Y-9523000D02*
X13430000Y-9523000D01*
X13500000Y-9853000D02*
X13500000Y-9883000D01*
X13485000Y-9868000D02*
X13515000Y-9868000D01*
X13750000Y-10985000D02*
X13750000Y-11015000D01*
X13735000Y-11000000D02*
X13765000Y-11000000D01*
X13800000Y-10135000D02*
X13800000Y-10165000D01*
X13785000Y-10150000D02*
X13815000Y-10150000D01*
X13850000Y-10635000D02*
X13850000Y-10665000D01*
X13835000Y-10650000D02*
X13865000Y-10650000D01*
X14050000Y-10355000D02*
X14050000Y-10385000D01*
X14035000Y-10370000D02*
X14065000Y-10370000D01*
X14050000Y-10435000D02*
X14050000Y-10465000D01*
X14035000Y-10450000D02*
X14065000Y-10450000D01*
X14050000Y-11885000D02*
X14050000Y-11915000D01*
X14035000Y-11900000D02*
X14065000Y-11900000D01*
X14100000Y-12885000D02*
X14100000Y-12915000D01*
X14085000Y-12900000D02*
X14115000Y-12900000D01*
X14150000Y-9535000D02*
X14150000Y-9565000D01*
X14135000Y-9550000D02*
X14165000Y-9550000D01*
X14150000Y-9985000D02*
X14150000Y-10015000D01*
X14135000Y-10000000D02*
X14165000Y-10000000D01*
X14150000Y-11385000D02*
X14150000Y-11415000D01*
X14135000Y-11400000D02*
X14165000Y-11400000D01*
X14150000Y-11635000D02*
X14150000Y-11665000D01*
X14135000Y-11650000D02*
X14165000Y-11650000D01*
X14150000Y-12035000D02*
X14150000Y-12065000D01*
X14135000Y-12050000D02*
X14165000Y-12050000D01*
X14250000Y-11185000D02*
X14250000Y-11215000D01*
X14235000Y-11200000D02*
X14265000Y-11200000D01*
X14250000Y-12785000D02*
X14250000Y-12815000D01*
X14235000Y-12800000D02*
X14265000Y-12800000D01*
X14350000Y-10635000D02*
X14350000Y-10665000D01*
X14335000Y-10650000D02*
X14365000Y-10650000D01*
X14350000Y-12735000D02*
X14350000Y-12765000D01*
X14335000Y-12750000D02*
X14365000Y-12750000D01*
X14400000Y-9535000D02*
X14400000Y-9565000D01*
X14385000Y-9550000D02*
X14415000Y-9550000D01*
X14400000Y-9635000D02*
X14400000Y-9665000D01*
X14385000Y-9650000D02*
X14415000Y-9650000D01*
X14400000Y-9885000D02*
X14400000Y-9915000D01*
X14385000Y-9900000D02*
X14415000Y-9900000D01*
X14400000Y-11185000D02*
X14400000Y-11215000D01*
X14385000Y-11200000D02*
X14415000Y-11200000D01*
X14400000Y-11685000D02*
X14400000Y-11715000D01*
X14385000Y-11700000D02*
X14415000Y-11700000D01*
X14410200Y-11585000D02*
X14410200Y-11615000D01*
X14395200Y-11600000D02*
X14425200Y-11600000D01*
X14500000Y-9885000D02*
X14500000Y-9915000D01*
X14485000Y-9900000D02*
X14515000Y-9900000D01*
X14612426Y-9647427D02*
X14612426Y-9677427D01*
X14597426Y-9662427D02*
X14627426Y-9662427D01*
X14650000Y-10385000D02*
X14650000Y-10415000D01*
X14635000Y-10400000D02*
X14665000Y-10400000D01*
X14650000Y-11735000D02*
X14650000Y-11765000D01*
X14635000Y-11750000D02*
X14665000Y-11750000D01*
X14654016Y-10906891D02*
X14654016Y-10936891D01*
X14639016Y-10921891D02*
X14669016Y-10921891D01*
X14700000Y-10775000D02*
X14700000Y-10805000D01*
X14685000Y-10790000D02*
X14715000Y-10790000D01*
X14750000Y-12635000D02*
X14750000Y-12665000D01*
X14735000Y-12650000D02*
X14765000Y-12650000D01*
X14754385Y-10482957D02*
X14754385Y-10512957D01*
X14739385Y-10497957D02*
X14769385Y-10497957D01*
X14775000Y-9660000D02*
X14775000Y-9690000D01*
X14760000Y-9675000D02*
X14790000Y-9675000D01*
X14850000Y-10485000D02*
X14850000Y-10515000D01*
X14835000Y-10500000D02*
X14865000Y-10500000D01*
X14850000Y-12335000D02*
X14850000Y-12365000D01*
X14835000Y-12350000D02*
X14865000Y-12350000D01*
X14860000Y-9685000D02*
X14860000Y-9715000D01*
X14845000Y-9700000D02*
X14875000Y-9700000D01*
X14911458Y-10433785D02*
X14911458Y-10463785D01*
X14896458Y-10448785D02*
X14926458Y-10448785D01*
X14915000Y-12485000D02*
X14915000Y-12515000D01*
X14900000Y-12500000D02*
X14930000Y-12500000D01*
X14940000Y-9685000D02*
X14940000Y-9715000D01*
X14925000Y-9700000D02*
X14955000Y-9700000D01*
X14999106Y-10429719D02*
X14999106Y-10459719D01*
X14984106Y-10444719D02*
X15014106Y-10444719D01*
X15010000Y-10775000D02*
X15010000Y-10805000D01*
X14995000Y-10790000D02*
X15025000Y-10790000D01*
X15040000Y-12585000D02*
X15040000Y-12615000D01*
X15025000Y-12600000D02*
X15055000Y-12600000D01*
X15078679Y-10437976D02*
X15078679Y-10467976D01*
X15063679Y-10452976D02*
X15093679Y-10452976D01*
X15086912Y-10856765D02*
X15086912Y-10886765D01*
X15071912Y-10871765D02*
X15101912Y-10871765D01*
X15100000Y-9685000D02*
X15100000Y-9715000D01*
X15085000Y-9700000D02*
X15115000Y-9700000D01*
X15100000Y-11735000D02*
X15100000Y-11765000D01*
X15085000Y-11750000D02*
X15115000Y-11750000D01*
X15150000Y-12035000D02*
X15150000Y-12065000D01*
X15135000Y-12050000D02*
X15165000Y-12050000D01*
X15200000Y-9735000D02*
X15200000Y-9765000D01*
X15185000Y-9750000D02*
X15215000Y-9750000D01*
X15200000Y-10285000D02*
X15200000Y-10315000D01*
X15185000Y-10300000D02*
X15215000Y-10300000D01*
X15217426Y-10817574D02*
X15217426Y-10847574D01*
X15202426Y-10832574D02*
X15232426Y-10832574D01*
X15250000Y-12635000D02*
X15250000Y-12665000D01*
X15235000Y-12650000D02*
X15265000Y-12650000D01*
X15273148Y-9969040D02*
X15273148Y-9999040D01*
X15258148Y-9984040D02*
X15288148Y-9984040D01*
X15280173Y-9515174D02*
X15280173Y-9545174D01*
X15265173Y-9530174D02*
X15295173Y-9530174D01*
X15297573Y-10782574D02*
X15297573Y-10812574D01*
X15282573Y-10797574D02*
X15312573Y-10797574D01*
X15350000Y-11935000D02*
X15350000Y-11965000D01*
X15335000Y-11950000D02*
X15365000Y-11950000D01*
X15350000Y-12085000D02*
X15350000Y-12115000D01*
X15335000Y-12100000D02*
X15365000Y-12100000D01*
X15390000Y-12485000D02*
X15390000Y-12515000D01*
X15375000Y-12500000D02*
X15405000Y-12500000D01*
X15400000Y-11685000D02*
X15400000Y-11715000D01*
X15385000Y-11700000D02*
X15415000Y-11700000D01*
X15400000Y-11785000D02*
X15400000Y-11815000D01*
X15385000Y-11800000D02*
X15415000Y-11800000D01*
X15450000Y-11035000D02*
X15450000Y-11065000D01*
X15435000Y-11050000D02*
X15465000Y-11050000D01*
X15500000Y-10245000D02*
X15500000Y-10275000D01*
X15485000Y-10260000D02*
X15515000Y-10260000D01*
X15500000Y-10735000D02*
X15500000Y-10765000D01*
X15485000Y-10750000D02*
X15515000Y-10750000D01*
X15500000Y-11235000D02*
X15500000Y-11265000D01*
X15485000Y-11250000D02*
X15515000Y-11250000D01*
X15500000Y-11385000D02*
X15500000Y-11415000D01*
X15485000Y-11400000D02*
X15515000Y-11400000D01*
X15545500Y-10930500D02*
X15545500Y-10960500D01*
X15530500Y-10945500D02*
X15560500Y-10945500D01*
X15550000Y-11095000D02*
X15550000Y-11125000D01*
X15535000Y-11110000D02*
X15565000Y-11110000D01*
X15550000Y-11535000D02*
X15550000Y-11565000D01*
X15535000Y-11550000D02*
X15565000Y-11550000D01*
X15600000Y-9835000D02*
X15600000Y-9865000D01*
X15585000Y-9850000D02*
X15615000Y-9850000D01*
X15600000Y-12585000D02*
X15600000Y-12615000D01*
X15585000Y-12600000D02*
X15615000Y-12600000D01*
X15650000Y-11175000D02*
X15650000Y-11205000D01*
X15635000Y-11190000D02*
X15665000Y-11190000D01*
X15650000Y-12035000D02*
X15650000Y-12065000D01*
X15635000Y-12050000D02*
X15665000Y-12050000D01*
X15800000Y-10935000D02*
X15800000Y-10965000D01*
X15785000Y-10950000D02*
X15815000Y-10950000D01*
X15850000Y-10060845D02*
X15850000Y-10090845D01*
X15835000Y-10075845D02*
X15865000Y-10075845D01*
X15950000Y-10035000D02*
X15950000Y-10065000D01*
X15935000Y-10050000D02*
X15965000Y-10050000D01*
X15950000Y-10435000D02*
X15950000Y-10465000D01*
X15935000Y-10450000D02*
X15965000Y-10450000D01*
X16020000Y-10225000D02*
X16020000Y-10255000D01*
X16005000Y-10240000D02*
X16035000Y-10240000D01*
X16150000Y-9835000D02*
X16150000Y-9865000D01*
X16135000Y-9850000D02*
X16165000Y-9850000D01*
X16150000Y-10135000D02*
X16150000Y-10165000D01*
X16135000Y-10150000D02*
X16165000Y-10150000D01*
X13573107Y-12725607D02*
X13573107Y-12704393D01*
X13551893Y-12704393D01*
X13551893Y-12725607D01*
X13573107Y-12725607D01*
X14568000Y-12841500D02*
X14598000Y-12811500D01*
X14568000Y-12781500D01*
X14538000Y-12811500D01*
X14568000Y-12841500D01*
X14538000Y-12756499D02*
X14538000Y-12866501D01*
X14598000Y-12866501D02*
G75*
G02*
X14538000Y-12866501I-30000J0D01*
G01*
X14598000Y-12866501D02*
X14598000Y-12756499D01*
X14598000Y-12756499D02*
G75*
G03*
X14538000Y-12756499I-30000J0D01*
G01*
X14568000Y-13256500D02*
X14598000Y-13226500D01*
X14568000Y-13196500D01*
X14538000Y-13226500D01*
X14568000Y-13256500D01*
X14538000Y-13186500D02*
X14538000Y-13266500D01*
X14598000Y-13266500D02*
G75*
G02*
X14538000Y-13266500I-30000J0D01*
G01*
X14598000Y-13266500D02*
X14598000Y-13186500D01*
X14598000Y-13186500D02*
G75*
G03*
X14538000Y-13186500I-30000J0D01*
G01*
X15432000Y-12841500D02*
X15462000Y-12811500D01*
X15432000Y-12781500D01*
X15402000Y-12811500D01*
X15432000Y-12841500D01*
X15402000Y-12756499D02*
X15402000Y-12866501D01*
X15462000Y-12866501D02*
G75*
G02*
X15402000Y-12866501I-30000J0D01*
G01*
X15462000Y-12866501D02*
X15462000Y-12756499D01*
X15462000Y-12756499D02*
G75*
G03*
X15402000Y-12756499I-30000J0D01*
G01*
X15432000Y-13256500D02*
X15462000Y-13226500D01*
X15432000Y-13196500D01*
X15402000Y-13226500D01*
X15432000Y-13256500D01*
X15402000Y-13186500D02*
X15402000Y-13266500D01*
X15462000Y-13266500D02*
G75*
G02*
X15402000Y-13266500I-30000J0D01*
G01*
X15462000Y-13266500D02*
X15462000Y-13186500D01*
X15462000Y-13186500D02*
G75*
G03*
X15402000Y-13186500I-30000J0D01*
G01*
X14678500Y-12829000D02*
X14743500Y-12894000D01*
X14743500Y-12829000D02*
X14678500Y-12894000D01*
X14743500Y-12861500D02*
G75*
G02*
X14678500Y-12861500I-32500J0D01*
G01*
X14678500Y-12861500D02*
G75*
G02*
X14743500Y-12861500I32500J0D01*
G01*
X15256500Y-12829000D02*
X15321500Y-12894000D01*
X15321500Y-12829000D02*
X15256500Y-12894000D01*
X15321500Y-12861500D02*
G75*
G02*
X15256500Y-12861500I-32500J0D01*
G01*
X15256500Y-12861500D02*
G75*
G02*
X15321500Y-12861500I32500J0D01*
G01*
D13*
X13175000Y-6675000D02*
X13425000Y-6925000D01*
X13425000Y-6675000D02*
X13175000Y-6925000D01*
X13300000Y-6675000D02*
X13300000Y-6925000D01*
X13175000Y-6800000D02*
X13425000Y-6800000D01*
X13175000Y-13075000D02*
X13425000Y-13325000D01*
X13425000Y-13075000D02*
X13175000Y-13325000D01*
X13300000Y-13075000D02*
X13300000Y-13325000D01*
X13175000Y-13200000D02*
X13425000Y-13200000D01*
X16575000Y-6675000D02*
X16825000Y-6925000D01*
X16825000Y-6675000D02*
X16575000Y-6925000D01*
X16700000Y-6675000D02*
X16700000Y-6925000D01*
X16575000Y-6800000D02*
X16825000Y-6800000D01*
X16575000Y-13075000D02*
X16825000Y-13325000D01*
X16825000Y-13075000D02*
X16575000Y-13325000D01*
X16700000Y-13075000D02*
X16700000Y-13325000D01*
X16575000Y-13200000D02*
X16825000Y-13200000D01*
D11*
X13258277Y-13813984D02*
X13258277Y-13613984D01*
X13258277Y-13613984D02*
X13305896Y-13613984D01*
X13305896Y-13613984D02*
X13334467Y-13623508D01*
X13334467Y-13623508D02*
X13353515Y-13642555D01*
X13353515Y-13642555D02*
X13363039Y-13661603D01*
X13363039Y-13661603D02*
X13372562Y-13699698D01*
X13372562Y-13699698D02*
X13372562Y-13728269D01*
X13372562Y-13728269D02*
X13363039Y-13766365D01*
X13363039Y-13766365D02*
X13353515Y-13785412D01*
X13353515Y-13785412D02*
X13334467Y-13804460D01*
X13334467Y-13804460D02*
X13305896Y-13813984D01*
X13305896Y-13813984D02*
X13258277Y-13813984D01*
X13458277Y-13813984D02*
X13458277Y-13680650D01*
X13458277Y-13718746D02*
X13467801Y-13699698D01*
X13467801Y-13699698D02*
X13477324Y-13690174D01*
X13477324Y-13690174D02*
X13496372Y-13680650D01*
X13496372Y-13680650D02*
X13515420Y-13680650D01*
X13582086Y-13813984D02*
X13582086Y-13680650D01*
X13582086Y-13613984D02*
X13572562Y-13623508D01*
X13572562Y-13623508D02*
X13582086Y-13633031D01*
X13582086Y-13633031D02*
X13591610Y-13623508D01*
X13591610Y-13623508D02*
X13582086Y-13613984D01*
X13582086Y-13613984D02*
X13582086Y-13633031D01*
X13705896Y-13813984D02*
X13686848Y-13804460D01*
X13686848Y-13804460D02*
X13677324Y-13785412D01*
X13677324Y-13785412D02*
X13677324Y-13613984D01*
X13810658Y-13813984D02*
X13791610Y-13804460D01*
X13791610Y-13804460D02*
X13782086Y-13785412D01*
X13782086Y-13785412D02*
X13782086Y-13613984D01*
X14039229Y-13813984D02*
X14039229Y-13613984D01*
X14039229Y-13613984D02*
X14105896Y-13756841D01*
X14105896Y-13756841D02*
X14172562Y-13613984D01*
X14172562Y-13613984D02*
X14172562Y-13813984D01*
X14353515Y-13813984D02*
X14353515Y-13709222D01*
X14353515Y-13709222D02*
X14343991Y-13690174D01*
X14343991Y-13690174D02*
X14324943Y-13680650D01*
X14324943Y-13680650D02*
X14286848Y-13680650D01*
X14286848Y-13680650D02*
X14267801Y-13690174D01*
X14353515Y-13804460D02*
X14334467Y-13813984D01*
X14334467Y-13813984D02*
X14286848Y-13813984D01*
X14286848Y-13813984D02*
X14267801Y-13804460D01*
X14267801Y-13804460D02*
X14258277Y-13785412D01*
X14258277Y-13785412D02*
X14258277Y-13766365D01*
X14258277Y-13766365D02*
X14267801Y-13747317D01*
X14267801Y-13747317D02*
X14286848Y-13737793D01*
X14286848Y-13737793D02*
X14334467Y-13737793D01*
X14334467Y-13737793D02*
X14353515Y-13728269D01*
X14448753Y-13680650D02*
X14448753Y-13880650D01*
X14448753Y-13690174D02*
X14467801Y-13680650D01*
X14467801Y-13680650D02*
X14505896Y-13680650D01*
X14505896Y-13680650D02*
X14524943Y-13690174D01*
X14524943Y-13690174D02*
X14534467Y-13699698D01*
X14534467Y-13699698D02*
X14543991Y-13718746D01*
X14543991Y-13718746D02*
X14543991Y-13775888D01*
X14543991Y-13775888D02*
X14534467Y-13794936D01*
X14534467Y-13794936D02*
X14524943Y-13804460D01*
X14524943Y-13804460D02*
X14505896Y-13813984D01*
X14505896Y-13813984D02*
X14467801Y-13813984D01*
X14467801Y-13813984D02*
X14448753Y-13804460D01*
X14629705Y-13794936D02*
X14639229Y-13804460D01*
X14639229Y-13804460D02*
X14629705Y-13813984D01*
X14629705Y-13813984D02*
X14620182Y-13804460D01*
X14620182Y-13804460D02*
X14629705Y-13794936D01*
X14629705Y-13794936D02*
X14629705Y-13813984D01*
X14629705Y-13690174D02*
X14639229Y-13699698D01*
X14639229Y-13699698D02*
X14629705Y-13709222D01*
X14629705Y-13709222D02*
X14620182Y-13699698D01*
X14620182Y-13699698D02*
X14629705Y-13690174D01*
X14629705Y-13690174D02*
X14629705Y-13709222D01*
D12*
X12982500Y-14135000D02*
X12997500Y-14150000D01*
X12997500Y-14135000D02*
X12982500Y-14150000D01*
D11*
X13296372Y-14033984D02*
X13315420Y-14033984D01*
X13315420Y-14033984D02*
X13334467Y-14043508D01*
X13334467Y-14043508D02*
X13343991Y-14053031D01*
X13343991Y-14053031D02*
X13353515Y-14072079D01*
X13353515Y-14072079D02*
X13363039Y-14110174D01*
X13363039Y-14110174D02*
X13363039Y-14157793D01*
X13363039Y-14157793D02*
X13353515Y-14195888D01*
X13353515Y-14195888D02*
X13343991Y-14214936D01*
X13343991Y-14214936D02*
X13334467Y-14224460D01*
X13334467Y-14224460D02*
X13315420Y-14233984D01*
X13315420Y-14233984D02*
X13296372Y-14233984D01*
X13296372Y-14233984D02*
X13277324Y-14224460D01*
X13277324Y-14224460D02*
X13267801Y-14214936D01*
X13267801Y-14214936D02*
X13258277Y-14195888D01*
X13258277Y-14195888D02*
X13248753Y-14157793D01*
X13248753Y-14157793D02*
X13248753Y-14110174D01*
X13248753Y-14110174D02*
X13258277Y-14072079D01*
X13258277Y-14072079D02*
X13267801Y-14053031D01*
X13267801Y-14053031D02*
X13277324Y-14043508D01*
X13277324Y-14043508D02*
X13296372Y-14033984D01*
X13448753Y-14214936D02*
X13458277Y-14224460D01*
X13458277Y-14224460D02*
X13448753Y-14233984D01*
X13448753Y-14233984D02*
X13439229Y-14224460D01*
X13439229Y-14224460D02*
X13448753Y-14214936D01*
X13448753Y-14214936D02*
X13448753Y-14233984D01*
X13648753Y-14233984D02*
X13534467Y-14233984D01*
X13591610Y-14233984D02*
X13591610Y-14033984D01*
X13591610Y-14033984D02*
X13572562Y-14062555D01*
X13572562Y-14062555D02*
X13553515Y-14081603D01*
X13553515Y-14081603D02*
X13534467Y-14091127D01*
X13829705Y-14033984D02*
X13734467Y-14033984D01*
X13734467Y-14033984D02*
X13724943Y-14129222D01*
X13724943Y-14129222D02*
X13734467Y-14119698D01*
X13734467Y-14119698D02*
X13753515Y-14110174D01*
X13753515Y-14110174D02*
X13801134Y-14110174D01*
X13801134Y-14110174D02*
X13820182Y-14119698D01*
X13820182Y-14119698D02*
X13829705Y-14129222D01*
X13829705Y-14129222D02*
X13839229Y-14148269D01*
X13839229Y-14148269D02*
X13839229Y-14195888D01*
X13839229Y-14195888D02*
X13829705Y-14214936D01*
X13829705Y-14214936D02*
X13820182Y-14224460D01*
X13820182Y-14224460D02*
X13801134Y-14233984D01*
X13801134Y-14233984D02*
X13753515Y-14233984D01*
X13753515Y-14233984D02*
X13734467Y-14224460D01*
X13734467Y-14224460D02*
X13724943Y-14214936D01*
X13963039Y-14033984D02*
X13982086Y-14033984D01*
X13982086Y-14033984D02*
X14001134Y-14043508D01*
X14001134Y-14043508D02*
X14010658Y-14053031D01*
X14010658Y-14053031D02*
X14020182Y-14072079D01*
X14020182Y-14072079D02*
X14029705Y-14110174D01*
X14029705Y-14110174D02*
X14029705Y-14157793D01*
X14029705Y-14157793D02*
X14020182Y-14195888D01*
X14020182Y-14195888D02*
X14010658Y-14214936D01*
X14010658Y-14214936D02*
X14001134Y-14224460D01*
X14001134Y-14224460D02*
X13982086Y-14233984D01*
X13982086Y-14233984D02*
X13963039Y-14233984D01*
X13963039Y-14233984D02*
X13943991Y-14224460D01*
X13943991Y-14224460D02*
X13934467Y-14214936D01*
X13934467Y-14214936D02*
X13924943Y-14195888D01*
X13924943Y-14195888D02*
X13915420Y-14157793D01*
X13915420Y-14157793D02*
X13915420Y-14110174D01*
X13915420Y-14110174D02*
X13924943Y-14072079D01*
X13924943Y-14072079D02*
X13934467Y-14053031D01*
X13934467Y-14053031D02*
X13943991Y-14043508D01*
X13943991Y-14043508D02*
X13963039Y-14033984D01*
X14115420Y-14233984D02*
X14115420Y-14100650D01*
X14115420Y-14119698D02*
X14124943Y-14110174D01*
X14124943Y-14110174D02*
X14143991Y-14100650D01*
X14143991Y-14100650D02*
X14172563Y-14100650D01*
X14172563Y-14100650D02*
X14191610Y-14110174D01*
X14191610Y-14110174D02*
X14201134Y-14129222D01*
X14201134Y-14129222D02*
X14201134Y-14233984D01*
X14201134Y-14129222D02*
X14210658Y-14110174D01*
X14210658Y-14110174D02*
X14229705Y-14100650D01*
X14229705Y-14100650D02*
X14258277Y-14100650D01*
X14258277Y-14100650D02*
X14277324Y-14110174D01*
X14277324Y-14110174D02*
X14286848Y-14129222D01*
X14286848Y-14129222D02*
X14286848Y-14233984D01*
X14382086Y-14233984D02*
X14382086Y-14100650D01*
X14382086Y-14119698D02*
X14391610Y-14110174D01*
X14391610Y-14110174D02*
X14410658Y-14100650D01*
X14410658Y-14100650D02*
X14439229Y-14100650D01*
X14439229Y-14100650D02*
X14458277Y-14110174D01*
X14458277Y-14110174D02*
X14467801Y-14129222D01*
X14467801Y-14129222D02*
X14467801Y-14233984D01*
X14467801Y-14129222D02*
X14477324Y-14110174D01*
X14477324Y-14110174D02*
X14496372Y-14100650D01*
X14496372Y-14100650D02*
X14524943Y-14100650D01*
X14524943Y-14100650D02*
X14543991Y-14110174D01*
X14543991Y-14110174D02*
X14553515Y-14129222D01*
X14553515Y-14129222D02*
X14553515Y-14233984D01*
X14943991Y-14024460D02*
X14772563Y-14281603D01*
X15201134Y-14033984D02*
X15220182Y-14033984D01*
X15220182Y-14033984D02*
X15239229Y-14043508D01*
X15239229Y-14043508D02*
X15248753Y-14053031D01*
X15248753Y-14053031D02*
X15258277Y-14072079D01*
X15258277Y-14072079D02*
X15267801Y-14110174D01*
X15267801Y-14110174D02*
X15267801Y-14157793D01*
X15267801Y-14157793D02*
X15258277Y-14195888D01*
X15258277Y-14195888D02*
X15248753Y-14214936D01*
X15248753Y-14214936D02*
X15239229Y-14224460D01*
X15239229Y-14224460D02*
X15220182Y-14233984D01*
X15220182Y-14233984D02*
X15201134Y-14233984D01*
X15201134Y-14233984D02*
X15182086Y-14224460D01*
X15182086Y-14224460D02*
X15172563Y-14214936D01*
X15172563Y-14214936D02*
X15163039Y-14195888D01*
X15163039Y-14195888D02*
X15153515Y-14157793D01*
X15153515Y-14157793D02*
X15153515Y-14110174D01*
X15153515Y-14110174D02*
X15163039Y-14072079D01*
X15163039Y-14072079D02*
X15172563Y-14053031D01*
X15172563Y-14053031D02*
X15182086Y-14043508D01*
X15182086Y-14043508D02*
X15201134Y-14033984D01*
X15353515Y-14214936D02*
X15363039Y-14224460D01*
X15363039Y-14224460D02*
X15353515Y-14233984D01*
X15353515Y-14233984D02*
X15343991Y-14224460D01*
X15343991Y-14224460D02*
X15353515Y-14214936D01*
X15353515Y-14214936D02*
X15353515Y-14233984D01*
X15486848Y-14033984D02*
X15505896Y-14033984D01*
X15505896Y-14033984D02*
X15524944Y-14043508D01*
X15524944Y-14043508D02*
X15534467Y-14053031D01*
X15534467Y-14053031D02*
X15543991Y-14072079D01*
X15543991Y-14072079D02*
X15553515Y-14110174D01*
X15553515Y-14110174D02*
X15553515Y-14157793D01*
X15553515Y-14157793D02*
X15543991Y-14195888D01*
X15543991Y-14195888D02*
X15534467Y-14214936D01*
X15534467Y-14214936D02*
X15524944Y-14224460D01*
X15524944Y-14224460D02*
X15505896Y-14233984D01*
X15505896Y-14233984D02*
X15486848Y-14233984D01*
X15486848Y-14233984D02*
X15467801Y-14224460D01*
X15467801Y-14224460D02*
X15458277Y-14214936D01*
X15458277Y-14214936D02*
X15448753Y-14195888D01*
X15448753Y-14195888D02*
X15439229Y-14157793D01*
X15439229Y-14157793D02*
X15439229Y-14110174D01*
X15439229Y-14110174D02*
X15448753Y-14072079D01*
X15448753Y-14072079D02*
X15458277Y-14053031D01*
X15458277Y-14053031D02*
X15467801Y-14043508D01*
X15467801Y-14043508D02*
X15486848Y-14033984D01*
X15677325Y-14033984D02*
X15696372Y-14033984D01*
X15696372Y-14033984D02*
X15715420Y-14043508D01*
X15715420Y-14043508D02*
X15724944Y-14053031D01*
X15724944Y-14053031D02*
X15734467Y-14072079D01*
X15734467Y-14072079D02*
X15743991Y-14110174D01*
X15743991Y-14110174D02*
X15743991Y-14157793D01*
X15743991Y-14157793D02*
X15734467Y-14195888D01*
X15734467Y-14195888D02*
X15724944Y-14214936D01*
X15724944Y-14214936D02*
X15715420Y-14224460D01*
X15715420Y-14224460D02*
X15696372Y-14233984D01*
X15696372Y-14233984D02*
X15677325Y-14233984D01*
X15677325Y-14233984D02*
X15658277Y-14224460D01*
X15658277Y-14224460D02*
X15648753Y-14214936D01*
X15648753Y-14214936D02*
X15639229Y-14195888D01*
X15639229Y-14195888D02*
X15629706Y-14157793D01*
X15629706Y-14157793D02*
X15629706Y-14110174D01*
X15629706Y-14110174D02*
X15639229Y-14072079D01*
X15639229Y-14072079D02*
X15648753Y-14053031D01*
X15648753Y-14053031D02*
X15658277Y-14043508D01*
X15658277Y-14043508D02*
X15677325Y-14033984D01*
X15924944Y-14033984D02*
X15829706Y-14033984D01*
X15829706Y-14033984D02*
X15820182Y-14129222D01*
X15820182Y-14129222D02*
X15829706Y-14119698D01*
X15829706Y-14119698D02*
X15848753Y-14110174D01*
X15848753Y-14110174D02*
X15896372Y-14110174D01*
X15896372Y-14110174D02*
X15915420Y-14119698D01*
X15915420Y-14119698D02*
X15924944Y-14129222D01*
X15924944Y-14129222D02*
X15934467Y-14148269D01*
X15934467Y-14148269D02*
X15934467Y-14195888D01*
X15934467Y-14195888D02*
X15924944Y-14214936D01*
X15924944Y-14214936D02*
X15915420Y-14224460D01*
X15915420Y-14224460D02*
X15896372Y-14233984D01*
X15896372Y-14233984D02*
X15848753Y-14233984D01*
X15848753Y-14233984D02*
X15829706Y-14224460D01*
X15829706Y-14224460D02*
X15820182Y-14214936D01*
X16029706Y-14233984D02*
X16067801Y-14233984D01*
X16067801Y-14233984D02*
X16086848Y-14224460D01*
X16086848Y-14224460D02*
X16096372Y-14214936D01*
X16096372Y-14214936D02*
X16115420Y-14186365D01*
X16115420Y-14186365D02*
X16124944Y-14148269D01*
X16124944Y-14148269D02*
X16124944Y-14072079D01*
X16124944Y-14072079D02*
X16115420Y-14053031D01*
X16115420Y-14053031D02*
X16105896Y-14043508D01*
X16105896Y-14043508D02*
X16086848Y-14033984D01*
X16086848Y-14033984D02*
X16048753Y-14033984D01*
X16048753Y-14033984D02*
X16029706Y-14043508D01*
X16029706Y-14043508D02*
X16020182Y-14053031D01*
X16020182Y-14053031D02*
X16010658Y-14072079D01*
X16010658Y-14072079D02*
X16010658Y-14119698D01*
X16010658Y-14119698D02*
X16020182Y-14138746D01*
X16020182Y-14138746D02*
X16029706Y-14148269D01*
X16029706Y-14148269D02*
X16048753Y-14157793D01*
X16048753Y-14157793D02*
X16086848Y-14157793D01*
X16086848Y-14157793D02*
X16105896Y-14148269D01*
X16105896Y-14148269D02*
X16115420Y-14138746D01*
X16115420Y-14138746D02*
X16124944Y-14119698D01*
X16201134Y-14033984D02*
X16201134Y-14072079D01*
X16277325Y-14033984D02*
X16277325Y-14072079D01*
X16572563Y-14310174D02*
X16563039Y-14300650D01*
X16563039Y-14300650D02*
X16543991Y-14272079D01*
X16543991Y-14272079D02*
X16534468Y-14253031D01*
X16534468Y-14253031D02*
X16524944Y-14224460D01*
X16524944Y-14224460D02*
X16515420Y-14176841D01*
X16515420Y-14176841D02*
X16515420Y-14138746D01*
X16515420Y-14138746D02*
X16524944Y-14091127D01*
X16524944Y-14091127D02*
X16534468Y-14062555D01*
X16534468Y-14062555D02*
X16543991Y-14043508D01*
X16543991Y-14043508D02*
X16563039Y-14014936D01*
X16563039Y-14014936D02*
X16572563Y-14005412D01*
X16753515Y-14233984D02*
X16639229Y-14233984D01*
X16696372Y-14233984D02*
X16696372Y-14033984D01*
X16696372Y-14033984D02*
X16677325Y-14062555D01*
X16677325Y-14062555D02*
X16658277Y-14081603D01*
X16658277Y-14081603D02*
X16639229Y-14091127D01*
X16867801Y-14119698D02*
X16848753Y-14110174D01*
X16848753Y-14110174D02*
X16839230Y-14100650D01*
X16839230Y-14100650D02*
X16829706Y-14081603D01*
X16829706Y-14081603D02*
X16829706Y-14072079D01*
X16829706Y-14072079D02*
X16839230Y-14053031D01*
X16839230Y-14053031D02*
X16848753Y-14043508D01*
X16848753Y-14043508D02*
X16867801Y-14033984D01*
X16867801Y-14033984D02*
X16905896Y-14033984D01*
X16905896Y-14033984D02*
X16924944Y-14043508D01*
X16924944Y-14043508D02*
X16934468Y-14053031D01*
X16934468Y-14053031D02*
X16943991Y-14072079D01*
X16943991Y-14072079D02*
X16943991Y-14081603D01*
X16943991Y-14081603D02*
X16934468Y-14100650D01*
X16934468Y-14100650D02*
X16924944Y-14110174D01*
X16924944Y-14110174D02*
X16905896Y-14119698D01*
X16905896Y-14119698D02*
X16867801Y-14119698D01*
X16867801Y-14119698D02*
X16848753Y-14129222D01*
X16848753Y-14129222D02*
X16839230Y-14138746D01*
X16839230Y-14138746D02*
X16829706Y-14157793D01*
X16829706Y-14157793D02*
X16829706Y-14195888D01*
X16829706Y-14195888D02*
X16839230Y-14214936D01*
X16839230Y-14214936D02*
X16848753Y-14224460D01*
X16848753Y-14224460D02*
X16867801Y-14233984D01*
X16867801Y-14233984D02*
X16905896Y-14233984D01*
X16905896Y-14233984D02*
X16924944Y-14224460D01*
X16924944Y-14224460D02*
X16934468Y-14214936D01*
X16934468Y-14214936D02*
X16943991Y-14195888D01*
X16943991Y-14195888D02*
X16943991Y-14157793D01*
X16943991Y-14157793D02*
X16934468Y-14138746D01*
X16934468Y-14138746D02*
X16924944Y-14129222D01*
X16924944Y-14129222D02*
X16905896Y-14119698D01*
X17182087Y-14233984D02*
X17182087Y-14033984D01*
X17267801Y-14233984D02*
X17267801Y-14129222D01*
X17267801Y-14129222D02*
X17258277Y-14110174D01*
X17258277Y-14110174D02*
X17239230Y-14100650D01*
X17239230Y-14100650D02*
X17210658Y-14100650D01*
X17210658Y-14100650D02*
X17191611Y-14110174D01*
X17191611Y-14110174D02*
X17182087Y-14119698D01*
X17391611Y-14233984D02*
X17372563Y-14224460D01*
X17372563Y-14224460D02*
X17363039Y-14214936D01*
X17363039Y-14214936D02*
X17353515Y-14195888D01*
X17353515Y-14195888D02*
X17353515Y-14138746D01*
X17353515Y-14138746D02*
X17363039Y-14119698D01*
X17363039Y-14119698D02*
X17372563Y-14110174D01*
X17372563Y-14110174D02*
X17391611Y-14100650D01*
X17391611Y-14100650D02*
X17420182Y-14100650D01*
X17420182Y-14100650D02*
X17439230Y-14110174D01*
X17439230Y-14110174D02*
X17448753Y-14119698D01*
X17448753Y-14119698D02*
X17458277Y-14138746D01*
X17458277Y-14138746D02*
X17458277Y-14195888D01*
X17458277Y-14195888D02*
X17448753Y-14214936D01*
X17448753Y-14214936D02*
X17439230Y-14224460D01*
X17439230Y-14224460D02*
X17420182Y-14233984D01*
X17420182Y-14233984D02*
X17391611Y-14233984D01*
X17572563Y-14233984D02*
X17553515Y-14224460D01*
X17553515Y-14224460D02*
X17543992Y-14205412D01*
X17543992Y-14205412D02*
X17543992Y-14033984D01*
X17724944Y-14224460D02*
X17705896Y-14233984D01*
X17705896Y-14233984D02*
X17667801Y-14233984D01*
X17667801Y-14233984D02*
X17648753Y-14224460D01*
X17648753Y-14224460D02*
X17639230Y-14205412D01*
X17639230Y-14205412D02*
X17639230Y-14129222D01*
X17639230Y-14129222D02*
X17648753Y-14110174D01*
X17648753Y-14110174D02*
X17667801Y-14100650D01*
X17667801Y-14100650D02*
X17705896Y-14100650D01*
X17705896Y-14100650D02*
X17724944Y-14110174D01*
X17724944Y-14110174D02*
X17734468Y-14129222D01*
X17734468Y-14129222D02*
X17734468Y-14148269D01*
X17734468Y-14148269D02*
X17639230Y-14167317D01*
X17810658Y-14224460D02*
X17829706Y-14233984D01*
X17829706Y-14233984D02*
X17867801Y-14233984D01*
X17867801Y-14233984D02*
X17886849Y-14224460D01*
X17886849Y-14224460D02*
X17896373Y-14205412D01*
X17896373Y-14205412D02*
X17896373Y-14195888D01*
X17896373Y-14195888D02*
X17886849Y-14176841D01*
X17886849Y-14176841D02*
X17867801Y-14167317D01*
X17867801Y-14167317D02*
X17839230Y-14167317D01*
X17839230Y-14167317D02*
X17820182Y-14157793D01*
X17820182Y-14157793D02*
X17810658Y-14138746D01*
X17810658Y-14138746D02*
X17810658Y-14129222D01*
X17810658Y-14129222D02*
X17820182Y-14110174D01*
X17820182Y-14110174D02*
X17839230Y-14100650D01*
X17839230Y-14100650D02*
X17867801Y-14100650D01*
X17867801Y-14100650D02*
X17886849Y-14110174D01*
X17963039Y-14310174D02*
X17972563Y-14300650D01*
X17972563Y-14300650D02*
X17991611Y-14272079D01*
X17991611Y-14272079D02*
X18001134Y-14253031D01*
X18001134Y-14253031D02*
X18010658Y-14224460D01*
X18010658Y-14224460D02*
X18020182Y-14176841D01*
X18020182Y-14176841D02*
X18020182Y-14138746D01*
X18020182Y-14138746D02*
X18010658Y-14091127D01*
X18010658Y-14091127D02*
X18001134Y-14062555D01*
X18001134Y-14062555D02*
X17991611Y-14043508D01*
X17991611Y-14043508D02*
X17972563Y-14014936D01*
X17972563Y-14014936D02*
X17963039Y-14005412D01*
D12*
X12997500Y-14406500D02*
G75*
G02*
X12977500Y-14406500I-10000J0D01*
G01*
X12977500Y-14406500D02*
G75*
G02*
X12997500Y-14406500I10000J0D01*
G01*
D11*
X13296372Y-14297984D02*
X13315420Y-14297984D01*
X13315420Y-14297984D02*
X13334467Y-14307508D01*
X13334467Y-14307508D02*
X13343991Y-14317031D01*
X13343991Y-14317031D02*
X13353515Y-14336079D01*
X13353515Y-14336079D02*
X13363039Y-14374174D01*
X13363039Y-14374174D02*
X13363039Y-14421793D01*
X13363039Y-14421793D02*
X13353515Y-14459888D01*
X13353515Y-14459888D02*
X13343991Y-14478936D01*
X13343991Y-14478936D02*
X13334467Y-14488460D01*
X13334467Y-14488460D02*
X13315420Y-14497984D01*
X13315420Y-14497984D02*
X13296372Y-14497984D01*
X13296372Y-14497984D02*
X13277324Y-14488460D01*
X13277324Y-14488460D02*
X13267801Y-14478936D01*
X13267801Y-14478936D02*
X13258277Y-14459888D01*
X13258277Y-14459888D02*
X13248753Y-14421793D01*
X13248753Y-14421793D02*
X13248753Y-14374174D01*
X13248753Y-14374174D02*
X13258277Y-14336079D01*
X13258277Y-14336079D02*
X13267801Y-14317031D01*
X13267801Y-14317031D02*
X13277324Y-14307508D01*
X13277324Y-14307508D02*
X13296372Y-14297984D01*
X13448753Y-14478936D02*
X13458277Y-14488460D01*
X13458277Y-14488460D02*
X13448753Y-14497984D01*
X13448753Y-14497984D02*
X13439229Y-14488460D01*
X13439229Y-14488460D02*
X13448753Y-14478936D01*
X13448753Y-14478936D02*
X13448753Y-14497984D01*
X13534467Y-14317031D02*
X13543991Y-14307508D01*
X13543991Y-14307508D02*
X13563039Y-14297984D01*
X13563039Y-14297984D02*
X13610658Y-14297984D01*
X13610658Y-14297984D02*
X13629705Y-14307508D01*
X13629705Y-14307508D02*
X13639229Y-14317031D01*
X13639229Y-14317031D02*
X13648753Y-14336079D01*
X13648753Y-14336079D02*
X13648753Y-14355127D01*
X13648753Y-14355127D02*
X13639229Y-14383698D01*
X13639229Y-14383698D02*
X13524943Y-14497984D01*
X13524943Y-14497984D02*
X13648753Y-14497984D01*
X13772562Y-14297984D02*
X13791610Y-14297984D01*
X13791610Y-14297984D02*
X13810658Y-14307508D01*
X13810658Y-14307508D02*
X13820182Y-14317031D01*
X13820182Y-14317031D02*
X13829705Y-14336079D01*
X13829705Y-14336079D02*
X13839229Y-14374174D01*
X13839229Y-14374174D02*
X13839229Y-14421793D01*
X13839229Y-14421793D02*
X13829705Y-14459888D01*
X13829705Y-14459888D02*
X13820182Y-14478936D01*
X13820182Y-14478936D02*
X13810658Y-14488460D01*
X13810658Y-14488460D02*
X13791610Y-14497984D01*
X13791610Y-14497984D02*
X13772562Y-14497984D01*
X13772562Y-14497984D02*
X13753515Y-14488460D01*
X13753515Y-14488460D02*
X13743991Y-14478936D01*
X13743991Y-14478936D02*
X13734467Y-14459888D01*
X13734467Y-14459888D02*
X13724943Y-14421793D01*
X13724943Y-14421793D02*
X13724943Y-14374174D01*
X13724943Y-14374174D02*
X13734467Y-14336079D01*
X13734467Y-14336079D02*
X13743991Y-14317031D01*
X13743991Y-14317031D02*
X13753515Y-14307508D01*
X13753515Y-14307508D02*
X13772562Y-14297984D01*
X13963039Y-14297984D02*
X13982086Y-14297984D01*
X13982086Y-14297984D02*
X14001134Y-14307508D01*
X14001134Y-14307508D02*
X14010658Y-14317031D01*
X14010658Y-14317031D02*
X14020182Y-14336079D01*
X14020182Y-14336079D02*
X14029705Y-14374174D01*
X14029705Y-14374174D02*
X14029705Y-14421793D01*
X14029705Y-14421793D02*
X14020182Y-14459888D01*
X14020182Y-14459888D02*
X14010658Y-14478936D01*
X14010658Y-14478936D02*
X14001134Y-14488460D01*
X14001134Y-14488460D02*
X13982086Y-14497984D01*
X13982086Y-14497984D02*
X13963039Y-14497984D01*
X13963039Y-14497984D02*
X13943991Y-14488460D01*
X13943991Y-14488460D02*
X13934467Y-14478936D01*
X13934467Y-14478936D02*
X13924943Y-14459888D01*
X13924943Y-14459888D02*
X13915420Y-14421793D01*
X13915420Y-14421793D02*
X13915420Y-14374174D01*
X13915420Y-14374174D02*
X13924943Y-14336079D01*
X13924943Y-14336079D02*
X13934467Y-14317031D01*
X13934467Y-14317031D02*
X13943991Y-14307508D01*
X13943991Y-14307508D02*
X13963039Y-14297984D01*
X14115420Y-14497984D02*
X14115420Y-14364650D01*
X14115420Y-14383698D02*
X14124943Y-14374174D01*
X14124943Y-14374174D02*
X14143991Y-14364650D01*
X14143991Y-14364650D02*
X14172563Y-14364650D01*
X14172563Y-14364650D02*
X14191610Y-14374174D01*
X14191610Y-14374174D02*
X14201134Y-14393222D01*
X14201134Y-14393222D02*
X14201134Y-14497984D01*
X14201134Y-14393222D02*
X14210658Y-14374174D01*
X14210658Y-14374174D02*
X14229705Y-14364650D01*
X14229705Y-14364650D02*
X14258277Y-14364650D01*
X14258277Y-14364650D02*
X14277324Y-14374174D01*
X14277324Y-14374174D02*
X14286848Y-14393222D01*
X14286848Y-14393222D02*
X14286848Y-14497984D01*
X14382086Y-14497984D02*
X14382086Y-14364650D01*
X14382086Y-14383698D02*
X14391610Y-14374174D01*
X14391610Y-14374174D02*
X14410658Y-14364650D01*
X14410658Y-14364650D02*
X14439229Y-14364650D01*
X14439229Y-14364650D02*
X14458277Y-14374174D01*
X14458277Y-14374174D02*
X14467801Y-14393222D01*
X14467801Y-14393222D02*
X14467801Y-14497984D01*
X14467801Y-14393222D02*
X14477324Y-14374174D01*
X14477324Y-14374174D02*
X14496372Y-14364650D01*
X14496372Y-14364650D02*
X14524943Y-14364650D01*
X14524943Y-14364650D02*
X14543991Y-14374174D01*
X14543991Y-14374174D02*
X14553515Y-14393222D01*
X14553515Y-14393222D02*
X14553515Y-14497984D01*
X14943991Y-14288460D02*
X14772563Y-14545603D01*
X15201134Y-14297984D02*
X15220182Y-14297984D01*
X15220182Y-14297984D02*
X15239229Y-14307508D01*
X15239229Y-14307508D02*
X15248753Y-14317031D01*
X15248753Y-14317031D02*
X15258277Y-14336079D01*
X15258277Y-14336079D02*
X15267801Y-14374174D01*
X15267801Y-14374174D02*
X15267801Y-14421793D01*
X15267801Y-14421793D02*
X15258277Y-14459888D01*
X15258277Y-14459888D02*
X15248753Y-14478936D01*
X15248753Y-14478936D02*
X15239229Y-14488460D01*
X15239229Y-14488460D02*
X15220182Y-14497984D01*
X15220182Y-14497984D02*
X15201134Y-14497984D01*
X15201134Y-14497984D02*
X15182086Y-14488460D01*
X15182086Y-14488460D02*
X15172563Y-14478936D01*
X15172563Y-14478936D02*
X15163039Y-14459888D01*
X15163039Y-14459888D02*
X15153515Y-14421793D01*
X15153515Y-14421793D02*
X15153515Y-14374174D01*
X15153515Y-14374174D02*
X15163039Y-14336079D01*
X15163039Y-14336079D02*
X15172563Y-14317031D01*
X15172563Y-14317031D02*
X15182086Y-14307508D01*
X15182086Y-14307508D02*
X15201134Y-14297984D01*
X15353515Y-14478936D02*
X15363039Y-14488460D01*
X15363039Y-14488460D02*
X15353515Y-14497984D01*
X15353515Y-14497984D02*
X15343991Y-14488460D01*
X15343991Y-14488460D02*
X15353515Y-14478936D01*
X15353515Y-14478936D02*
X15353515Y-14497984D01*
X15486848Y-14297984D02*
X15505896Y-14297984D01*
X15505896Y-14297984D02*
X15524944Y-14307508D01*
X15524944Y-14307508D02*
X15534467Y-14317031D01*
X15534467Y-14317031D02*
X15543991Y-14336079D01*
X15543991Y-14336079D02*
X15553515Y-14374174D01*
X15553515Y-14374174D02*
X15553515Y-14421793D01*
X15553515Y-14421793D02*
X15543991Y-14459888D01*
X15543991Y-14459888D02*
X15534467Y-14478936D01*
X15534467Y-14478936D02*
X15524944Y-14488460D01*
X15524944Y-14488460D02*
X15505896Y-14497984D01*
X15505896Y-14497984D02*
X15486848Y-14497984D01*
X15486848Y-14497984D02*
X15467801Y-14488460D01*
X15467801Y-14488460D02*
X15458277Y-14478936D01*
X15458277Y-14478936D02*
X15448753Y-14459888D01*
X15448753Y-14459888D02*
X15439229Y-14421793D01*
X15439229Y-14421793D02*
X15439229Y-14374174D01*
X15439229Y-14374174D02*
X15448753Y-14336079D01*
X15448753Y-14336079D02*
X15458277Y-14317031D01*
X15458277Y-14317031D02*
X15467801Y-14307508D01*
X15467801Y-14307508D02*
X15486848Y-14297984D01*
X15677325Y-14297984D02*
X15696372Y-14297984D01*
X15696372Y-14297984D02*
X15715420Y-14307508D01*
X15715420Y-14307508D02*
X15724944Y-14317031D01*
X15724944Y-14317031D02*
X15734467Y-14336079D01*
X15734467Y-14336079D02*
X15743991Y-14374174D01*
X15743991Y-14374174D02*
X15743991Y-14421793D01*
X15743991Y-14421793D02*
X15734467Y-14459888D01*
X15734467Y-14459888D02*
X15724944Y-14478936D01*
X15724944Y-14478936D02*
X15715420Y-14488460D01*
X15715420Y-14488460D02*
X15696372Y-14497984D01*
X15696372Y-14497984D02*
X15677325Y-14497984D01*
X15677325Y-14497984D02*
X15658277Y-14488460D01*
X15658277Y-14488460D02*
X15648753Y-14478936D01*
X15648753Y-14478936D02*
X15639229Y-14459888D01*
X15639229Y-14459888D02*
X15629706Y-14421793D01*
X15629706Y-14421793D02*
X15629706Y-14374174D01*
X15629706Y-14374174D02*
X15639229Y-14336079D01*
X15639229Y-14336079D02*
X15648753Y-14317031D01*
X15648753Y-14317031D02*
X15658277Y-14307508D01*
X15658277Y-14307508D02*
X15677325Y-14297984D01*
X15810658Y-14297984D02*
X15943991Y-14297984D01*
X15943991Y-14297984D02*
X15858277Y-14497984D01*
X16029706Y-14497984D02*
X16067801Y-14497984D01*
X16067801Y-14497984D02*
X16086848Y-14488460D01*
X16086848Y-14488460D02*
X16096372Y-14478936D01*
X16096372Y-14478936D02*
X16115420Y-14450365D01*
X16115420Y-14450365D02*
X16124944Y-14412269D01*
X16124944Y-14412269D02*
X16124944Y-14336079D01*
X16124944Y-14336079D02*
X16115420Y-14317031D01*
X16115420Y-14317031D02*
X16105896Y-14307508D01*
X16105896Y-14307508D02*
X16086848Y-14297984D01*
X16086848Y-14297984D02*
X16048753Y-14297984D01*
X16048753Y-14297984D02*
X16029706Y-14307508D01*
X16029706Y-14307508D02*
X16020182Y-14317031D01*
X16020182Y-14317031D02*
X16010658Y-14336079D01*
X16010658Y-14336079D02*
X16010658Y-14383698D01*
X16010658Y-14383698D02*
X16020182Y-14402746D01*
X16020182Y-14402746D02*
X16029706Y-14412269D01*
X16029706Y-14412269D02*
X16048753Y-14421793D01*
X16048753Y-14421793D02*
X16086848Y-14421793D01*
X16086848Y-14421793D02*
X16105896Y-14412269D01*
X16105896Y-14412269D02*
X16115420Y-14402746D01*
X16115420Y-14402746D02*
X16124944Y-14383698D01*
X16201134Y-14297984D02*
X16201134Y-14336079D01*
X16277325Y-14297984D02*
X16277325Y-14336079D01*
X16572563Y-14574174D02*
X16563039Y-14564650D01*
X16563039Y-14564650D02*
X16543991Y-14536079D01*
X16543991Y-14536079D02*
X16534468Y-14517031D01*
X16534468Y-14517031D02*
X16524944Y-14488460D01*
X16524944Y-14488460D02*
X16515420Y-14440841D01*
X16515420Y-14440841D02*
X16515420Y-14402746D01*
X16515420Y-14402746D02*
X16524944Y-14355127D01*
X16524944Y-14355127D02*
X16534468Y-14326555D01*
X16534468Y-14326555D02*
X16543991Y-14307508D01*
X16543991Y-14307508D02*
X16563039Y-14278936D01*
X16563039Y-14278936D02*
X16572563Y-14269412D01*
X16639229Y-14317031D02*
X16648753Y-14307508D01*
X16648753Y-14307508D02*
X16667801Y-14297984D01*
X16667801Y-14297984D02*
X16715420Y-14297984D01*
X16715420Y-14297984D02*
X16734468Y-14307508D01*
X16734468Y-14307508D02*
X16743991Y-14317031D01*
X16743991Y-14317031D02*
X16753515Y-14336079D01*
X16753515Y-14336079D02*
X16753515Y-14355127D01*
X16753515Y-14355127D02*
X16743991Y-14383698D01*
X16743991Y-14383698D02*
X16629706Y-14497984D01*
X16629706Y-14497984D02*
X16753515Y-14497984D01*
X16991611Y-14497984D02*
X16991611Y-14297984D01*
X17077325Y-14497984D02*
X17077325Y-14393222D01*
X17077325Y-14393222D02*
X17067801Y-14374174D01*
X17067801Y-14374174D02*
X17048753Y-14364650D01*
X17048753Y-14364650D02*
X17020182Y-14364650D01*
X17020182Y-14364650D02*
X17001134Y-14374174D01*
X17001134Y-14374174D02*
X16991611Y-14383698D01*
X17201134Y-14497984D02*
X17182087Y-14488460D01*
X17182087Y-14488460D02*
X17172563Y-14478936D01*
X17172563Y-14478936D02*
X17163039Y-14459888D01*
X17163039Y-14459888D02*
X17163039Y-14402746D01*
X17163039Y-14402746D02*
X17172563Y-14383698D01*
X17172563Y-14383698D02*
X17182087Y-14374174D01*
X17182087Y-14374174D02*
X17201134Y-14364650D01*
X17201134Y-14364650D02*
X17229706Y-14364650D01*
X17229706Y-14364650D02*
X17248753Y-14374174D01*
X17248753Y-14374174D02*
X17258277Y-14383698D01*
X17258277Y-14383698D02*
X17267801Y-14402746D01*
X17267801Y-14402746D02*
X17267801Y-14459888D01*
X17267801Y-14459888D02*
X17258277Y-14478936D01*
X17258277Y-14478936D02*
X17248753Y-14488460D01*
X17248753Y-14488460D02*
X17229706Y-14497984D01*
X17229706Y-14497984D02*
X17201134Y-14497984D01*
X17382087Y-14497984D02*
X17363039Y-14488460D01*
X17363039Y-14488460D02*
X17353515Y-14469412D01*
X17353515Y-14469412D02*
X17353515Y-14297984D01*
X17534468Y-14488460D02*
X17515420Y-14497984D01*
X17515420Y-14497984D02*
X17477325Y-14497984D01*
X17477325Y-14497984D02*
X17458277Y-14488460D01*
X17458277Y-14488460D02*
X17448753Y-14469412D01*
X17448753Y-14469412D02*
X17448753Y-14393222D01*
X17448753Y-14393222D02*
X17458277Y-14374174D01*
X17458277Y-14374174D02*
X17477325Y-14364650D01*
X17477325Y-14364650D02*
X17515420Y-14364650D01*
X17515420Y-14364650D02*
X17534468Y-14374174D01*
X17534468Y-14374174D02*
X17543992Y-14393222D01*
X17543992Y-14393222D02*
X17543992Y-14412269D01*
X17543992Y-14412269D02*
X17448753Y-14431317D01*
X17620182Y-14488460D02*
X17639230Y-14497984D01*
X17639230Y-14497984D02*
X17677325Y-14497984D01*
X17677325Y-14497984D02*
X17696373Y-14488460D01*
X17696373Y-14488460D02*
X17705896Y-14469412D01*
X17705896Y-14469412D02*
X17705896Y-14459888D01*
X17705896Y-14459888D02*
X17696373Y-14440841D01*
X17696373Y-14440841D02*
X17677325Y-14431317D01*
X17677325Y-14431317D02*
X17648753Y-14431317D01*
X17648753Y-14431317D02*
X17629706Y-14421793D01*
X17629706Y-14421793D02*
X17620182Y-14402746D01*
X17620182Y-14402746D02*
X17620182Y-14393222D01*
X17620182Y-14393222D02*
X17629706Y-14374174D01*
X17629706Y-14374174D02*
X17648753Y-14364650D01*
X17648753Y-14364650D02*
X17677325Y-14364650D01*
X17677325Y-14364650D02*
X17696373Y-14374174D01*
X17772563Y-14574174D02*
X17782087Y-14564650D01*
X17782087Y-14564650D02*
X17801134Y-14536079D01*
X17801134Y-14536079D02*
X17810658Y-14517031D01*
X17810658Y-14517031D02*
X17820182Y-14488460D01*
X17820182Y-14488460D02*
X17829706Y-14440841D01*
X17829706Y-14440841D02*
X17829706Y-14402746D01*
X17829706Y-14402746D02*
X17820182Y-14355127D01*
X17820182Y-14355127D02*
X17810658Y-14326555D01*
X17810658Y-14326555D02*
X17801134Y-14307508D01*
X17801134Y-14307508D02*
X17782087Y-14278936D01*
X17782087Y-14278936D02*
X17772563Y-14269412D01*
D12*
X12982500Y-14655500D02*
X12982500Y-14685500D01*
X12967500Y-14670500D02*
X12997500Y-14670500D01*
D11*
X13296372Y-14561984D02*
X13315420Y-14561984D01*
X13315420Y-14561984D02*
X13334467Y-14571508D01*
X13334467Y-14571508D02*
X13343991Y-14581031D01*
X13343991Y-14581031D02*
X13353515Y-14600079D01*
X13353515Y-14600079D02*
X13363039Y-14638174D01*
X13363039Y-14638174D02*
X13363039Y-14685793D01*
X13363039Y-14685793D02*
X13353515Y-14723888D01*
X13353515Y-14723888D02*
X13343991Y-14742936D01*
X13343991Y-14742936D02*
X13334467Y-14752460D01*
X13334467Y-14752460D02*
X13315420Y-14761984D01*
X13315420Y-14761984D02*
X13296372Y-14761984D01*
X13296372Y-14761984D02*
X13277324Y-14752460D01*
X13277324Y-14752460D02*
X13267801Y-14742936D01*
X13267801Y-14742936D02*
X13258277Y-14723888D01*
X13258277Y-14723888D02*
X13248753Y-14685793D01*
X13248753Y-14685793D02*
X13248753Y-14638174D01*
X13248753Y-14638174D02*
X13258277Y-14600079D01*
X13258277Y-14600079D02*
X13267801Y-14581031D01*
X13267801Y-14581031D02*
X13277324Y-14571508D01*
X13277324Y-14571508D02*
X13296372Y-14561984D01*
X13448753Y-14742936D02*
X13458277Y-14752460D01*
X13458277Y-14752460D02*
X13448753Y-14761984D01*
X13448753Y-14761984D02*
X13439229Y-14752460D01*
X13439229Y-14752460D02*
X13448753Y-14742936D01*
X13448753Y-14742936D02*
X13448753Y-14761984D01*
X13524943Y-14561984D02*
X13648753Y-14561984D01*
X13648753Y-14561984D02*
X13582086Y-14638174D01*
X13582086Y-14638174D02*
X13610658Y-14638174D01*
X13610658Y-14638174D02*
X13629705Y-14647698D01*
X13629705Y-14647698D02*
X13639229Y-14657222D01*
X13639229Y-14657222D02*
X13648753Y-14676269D01*
X13648753Y-14676269D02*
X13648753Y-14723888D01*
X13648753Y-14723888D02*
X13639229Y-14742936D01*
X13639229Y-14742936D02*
X13629705Y-14752460D01*
X13629705Y-14752460D02*
X13610658Y-14761984D01*
X13610658Y-14761984D02*
X13553515Y-14761984D01*
X13553515Y-14761984D02*
X13534467Y-14752460D01*
X13534467Y-14752460D02*
X13524943Y-14742936D01*
X13772562Y-14561984D02*
X13791610Y-14561984D01*
X13791610Y-14561984D02*
X13810658Y-14571508D01*
X13810658Y-14571508D02*
X13820182Y-14581031D01*
X13820182Y-14581031D02*
X13829705Y-14600079D01*
X13829705Y-14600079D02*
X13839229Y-14638174D01*
X13839229Y-14638174D02*
X13839229Y-14685793D01*
X13839229Y-14685793D02*
X13829705Y-14723888D01*
X13829705Y-14723888D02*
X13820182Y-14742936D01*
X13820182Y-14742936D02*
X13810658Y-14752460D01*
X13810658Y-14752460D02*
X13791610Y-14761984D01*
X13791610Y-14761984D02*
X13772562Y-14761984D01*
X13772562Y-14761984D02*
X13753515Y-14752460D01*
X13753515Y-14752460D02*
X13743991Y-14742936D01*
X13743991Y-14742936D02*
X13734467Y-14723888D01*
X13734467Y-14723888D02*
X13724943Y-14685793D01*
X13724943Y-14685793D02*
X13724943Y-14638174D01*
X13724943Y-14638174D02*
X13734467Y-14600079D01*
X13734467Y-14600079D02*
X13743991Y-14581031D01*
X13743991Y-14581031D02*
X13753515Y-14571508D01*
X13753515Y-14571508D02*
X13772562Y-14561984D01*
X13963039Y-14561984D02*
X13982086Y-14561984D01*
X13982086Y-14561984D02*
X14001134Y-14571508D01*
X14001134Y-14571508D02*
X14010658Y-14581031D01*
X14010658Y-14581031D02*
X14020182Y-14600079D01*
X14020182Y-14600079D02*
X14029705Y-14638174D01*
X14029705Y-14638174D02*
X14029705Y-14685793D01*
X14029705Y-14685793D02*
X14020182Y-14723888D01*
X14020182Y-14723888D02*
X14010658Y-14742936D01*
X14010658Y-14742936D02*
X14001134Y-14752460D01*
X14001134Y-14752460D02*
X13982086Y-14761984D01*
X13982086Y-14761984D02*
X13963039Y-14761984D01*
X13963039Y-14761984D02*
X13943991Y-14752460D01*
X13943991Y-14752460D02*
X13934467Y-14742936D01*
X13934467Y-14742936D02*
X13924943Y-14723888D01*
X13924943Y-14723888D02*
X13915420Y-14685793D01*
X13915420Y-14685793D02*
X13915420Y-14638174D01*
X13915420Y-14638174D02*
X13924943Y-14600079D01*
X13924943Y-14600079D02*
X13934467Y-14581031D01*
X13934467Y-14581031D02*
X13943991Y-14571508D01*
X13943991Y-14571508D02*
X13963039Y-14561984D01*
X14115420Y-14761984D02*
X14115420Y-14628650D01*
X14115420Y-14647698D02*
X14124943Y-14638174D01*
X14124943Y-14638174D02*
X14143991Y-14628650D01*
X14143991Y-14628650D02*
X14172563Y-14628650D01*
X14172563Y-14628650D02*
X14191610Y-14638174D01*
X14191610Y-14638174D02*
X14201134Y-14657222D01*
X14201134Y-14657222D02*
X14201134Y-14761984D01*
X14201134Y-14657222D02*
X14210658Y-14638174D01*
X14210658Y-14638174D02*
X14229705Y-14628650D01*
X14229705Y-14628650D02*
X14258277Y-14628650D01*
X14258277Y-14628650D02*
X14277324Y-14638174D01*
X14277324Y-14638174D02*
X14286848Y-14657222D01*
X14286848Y-14657222D02*
X14286848Y-14761984D01*
X14382086Y-14761984D02*
X14382086Y-14628650D01*
X14382086Y-14647698D02*
X14391610Y-14638174D01*
X14391610Y-14638174D02*
X14410658Y-14628650D01*
X14410658Y-14628650D02*
X14439229Y-14628650D01*
X14439229Y-14628650D02*
X14458277Y-14638174D01*
X14458277Y-14638174D02*
X14467801Y-14657222D01*
X14467801Y-14657222D02*
X14467801Y-14761984D01*
X14467801Y-14657222D02*
X14477324Y-14638174D01*
X14477324Y-14638174D02*
X14496372Y-14628650D01*
X14496372Y-14628650D02*
X14524943Y-14628650D01*
X14524943Y-14628650D02*
X14543991Y-14638174D01*
X14543991Y-14638174D02*
X14553515Y-14657222D01*
X14553515Y-14657222D02*
X14553515Y-14761984D01*
X14943991Y-14552460D02*
X14772563Y-14809603D01*
X15201134Y-14561984D02*
X15220182Y-14561984D01*
X15220182Y-14561984D02*
X15239229Y-14571508D01*
X15239229Y-14571508D02*
X15248753Y-14581031D01*
X15248753Y-14581031D02*
X15258277Y-14600079D01*
X15258277Y-14600079D02*
X15267801Y-14638174D01*
X15267801Y-14638174D02*
X15267801Y-14685793D01*
X15267801Y-14685793D02*
X15258277Y-14723888D01*
X15258277Y-14723888D02*
X15248753Y-14742936D01*
X15248753Y-14742936D02*
X15239229Y-14752460D01*
X15239229Y-14752460D02*
X15220182Y-14761984D01*
X15220182Y-14761984D02*
X15201134Y-14761984D01*
X15201134Y-14761984D02*
X15182086Y-14752460D01*
X15182086Y-14752460D02*
X15172563Y-14742936D01*
X15172563Y-14742936D02*
X15163039Y-14723888D01*
X15163039Y-14723888D02*
X15153515Y-14685793D01*
X15153515Y-14685793D02*
X15153515Y-14638174D01*
X15153515Y-14638174D02*
X15163039Y-14600079D01*
X15163039Y-14600079D02*
X15172563Y-14581031D01*
X15172563Y-14581031D02*
X15182086Y-14571508D01*
X15182086Y-14571508D02*
X15201134Y-14561984D01*
X15353515Y-14742936D02*
X15363039Y-14752460D01*
X15363039Y-14752460D02*
X15353515Y-14761984D01*
X15353515Y-14761984D02*
X15343991Y-14752460D01*
X15343991Y-14752460D02*
X15353515Y-14742936D01*
X15353515Y-14742936D02*
X15353515Y-14761984D01*
X15486848Y-14561984D02*
X15505896Y-14561984D01*
X15505896Y-14561984D02*
X15524944Y-14571508D01*
X15524944Y-14571508D02*
X15534467Y-14581031D01*
X15534467Y-14581031D02*
X15543991Y-14600079D01*
X15543991Y-14600079D02*
X15553515Y-14638174D01*
X15553515Y-14638174D02*
X15553515Y-14685793D01*
X15553515Y-14685793D02*
X15543991Y-14723888D01*
X15543991Y-14723888D02*
X15534467Y-14742936D01*
X15534467Y-14742936D02*
X15524944Y-14752460D01*
X15524944Y-14752460D02*
X15505896Y-14761984D01*
X15505896Y-14761984D02*
X15486848Y-14761984D01*
X15486848Y-14761984D02*
X15467801Y-14752460D01*
X15467801Y-14752460D02*
X15458277Y-14742936D01*
X15458277Y-14742936D02*
X15448753Y-14723888D01*
X15448753Y-14723888D02*
X15439229Y-14685793D01*
X15439229Y-14685793D02*
X15439229Y-14638174D01*
X15439229Y-14638174D02*
X15448753Y-14600079D01*
X15448753Y-14600079D02*
X15458277Y-14581031D01*
X15458277Y-14581031D02*
X15467801Y-14571508D01*
X15467801Y-14571508D02*
X15486848Y-14561984D01*
X15743991Y-14761984D02*
X15629706Y-14761984D01*
X15686848Y-14761984D02*
X15686848Y-14561984D01*
X15686848Y-14561984D02*
X15667801Y-14590555D01*
X15667801Y-14590555D02*
X15648753Y-14609603D01*
X15648753Y-14609603D02*
X15629706Y-14619127D01*
X15934467Y-14761984D02*
X15820182Y-14761984D01*
X15877325Y-14761984D02*
X15877325Y-14561984D01*
X15877325Y-14561984D02*
X15858277Y-14590555D01*
X15858277Y-14590555D02*
X15839229Y-14609603D01*
X15839229Y-14609603D02*
X15820182Y-14619127D01*
X16048753Y-14647698D02*
X16029706Y-14638174D01*
X16029706Y-14638174D02*
X16020182Y-14628650D01*
X16020182Y-14628650D02*
X16010658Y-14609603D01*
X16010658Y-14609603D02*
X16010658Y-14600079D01*
X16010658Y-14600079D02*
X16020182Y-14581031D01*
X16020182Y-14581031D02*
X16029706Y-14571508D01*
X16029706Y-14571508D02*
X16048753Y-14561984D01*
X16048753Y-14561984D02*
X16086848Y-14561984D01*
X16086848Y-14561984D02*
X16105896Y-14571508D01*
X16105896Y-14571508D02*
X16115420Y-14581031D01*
X16115420Y-14581031D02*
X16124944Y-14600079D01*
X16124944Y-14600079D02*
X16124944Y-14609603D01*
X16124944Y-14609603D02*
X16115420Y-14628650D01*
X16115420Y-14628650D02*
X16105896Y-14638174D01*
X16105896Y-14638174D02*
X16086848Y-14647698D01*
X16086848Y-14647698D02*
X16048753Y-14647698D01*
X16048753Y-14647698D02*
X16029706Y-14657222D01*
X16029706Y-14657222D02*
X16020182Y-14666746D01*
X16020182Y-14666746D02*
X16010658Y-14685793D01*
X16010658Y-14685793D02*
X16010658Y-14723888D01*
X16010658Y-14723888D02*
X16020182Y-14742936D01*
X16020182Y-14742936D02*
X16029706Y-14752460D01*
X16029706Y-14752460D02*
X16048753Y-14761984D01*
X16048753Y-14761984D02*
X16086848Y-14761984D01*
X16086848Y-14761984D02*
X16105896Y-14752460D01*
X16105896Y-14752460D02*
X16115420Y-14742936D01*
X16115420Y-14742936D02*
X16124944Y-14723888D01*
X16124944Y-14723888D02*
X16124944Y-14685793D01*
X16124944Y-14685793D02*
X16115420Y-14666746D01*
X16115420Y-14666746D02*
X16105896Y-14657222D01*
X16105896Y-14657222D02*
X16086848Y-14647698D01*
X16201134Y-14561984D02*
X16201134Y-14600079D01*
X16277325Y-14561984D02*
X16277325Y-14600079D01*
X16572563Y-14838174D02*
X16563039Y-14828650D01*
X16563039Y-14828650D02*
X16543991Y-14800079D01*
X16543991Y-14800079D02*
X16534468Y-14781031D01*
X16534468Y-14781031D02*
X16524944Y-14752460D01*
X16524944Y-14752460D02*
X16515420Y-14704841D01*
X16515420Y-14704841D02*
X16515420Y-14666746D01*
X16515420Y-14666746D02*
X16524944Y-14619127D01*
X16524944Y-14619127D02*
X16534468Y-14590555D01*
X16534468Y-14590555D02*
X16543991Y-14571508D01*
X16543991Y-14571508D02*
X16563039Y-14542936D01*
X16563039Y-14542936D02*
X16572563Y-14533412D01*
X16677325Y-14647698D02*
X16658277Y-14638174D01*
X16658277Y-14638174D02*
X16648753Y-14628650D01*
X16648753Y-14628650D02*
X16639229Y-14609603D01*
X16639229Y-14609603D02*
X16639229Y-14600079D01*
X16639229Y-14600079D02*
X16648753Y-14581031D01*
X16648753Y-14581031D02*
X16658277Y-14571508D01*
X16658277Y-14571508D02*
X16677325Y-14561984D01*
X16677325Y-14561984D02*
X16715420Y-14561984D01*
X16715420Y-14561984D02*
X16734468Y-14571508D01*
X16734468Y-14571508D02*
X16743991Y-14581031D01*
X16743991Y-14581031D02*
X16753515Y-14600079D01*
X16753515Y-14600079D02*
X16753515Y-14609603D01*
X16753515Y-14609603D02*
X16743991Y-14628650D01*
X16743991Y-14628650D02*
X16734468Y-14638174D01*
X16734468Y-14638174D02*
X16715420Y-14647698D01*
X16715420Y-14647698D02*
X16677325Y-14647698D01*
X16677325Y-14647698D02*
X16658277Y-14657222D01*
X16658277Y-14657222D02*
X16648753Y-14666746D01*
X16648753Y-14666746D02*
X16639229Y-14685793D01*
X16639229Y-14685793D02*
X16639229Y-14723888D01*
X16639229Y-14723888D02*
X16648753Y-14742936D01*
X16648753Y-14742936D02*
X16658277Y-14752460D01*
X16658277Y-14752460D02*
X16677325Y-14761984D01*
X16677325Y-14761984D02*
X16715420Y-14761984D01*
X16715420Y-14761984D02*
X16734468Y-14752460D01*
X16734468Y-14752460D02*
X16743991Y-14742936D01*
X16743991Y-14742936D02*
X16753515Y-14723888D01*
X16753515Y-14723888D02*
X16753515Y-14685793D01*
X16753515Y-14685793D02*
X16743991Y-14666746D01*
X16743991Y-14666746D02*
X16734468Y-14657222D01*
X16734468Y-14657222D02*
X16715420Y-14647698D01*
X16943991Y-14761984D02*
X16829706Y-14761984D01*
X16886849Y-14761984D02*
X16886849Y-14561984D01*
X16886849Y-14561984D02*
X16867801Y-14590555D01*
X16867801Y-14590555D02*
X16848753Y-14609603D01*
X16848753Y-14609603D02*
X16829706Y-14619127D01*
X17182087Y-14761984D02*
X17182087Y-14561984D01*
X17267801Y-14761984D02*
X17267801Y-14657222D01*
X17267801Y-14657222D02*
X17258277Y-14638174D01*
X17258277Y-14638174D02*
X17239230Y-14628650D01*
X17239230Y-14628650D02*
X17210658Y-14628650D01*
X17210658Y-14628650D02*
X17191611Y-14638174D01*
X17191611Y-14638174D02*
X17182087Y-14647698D01*
X17391611Y-14761984D02*
X17372563Y-14752460D01*
X17372563Y-14752460D02*
X17363039Y-14742936D01*
X17363039Y-14742936D02*
X17353515Y-14723888D01*
X17353515Y-14723888D02*
X17353515Y-14666746D01*
X17353515Y-14666746D02*
X17363039Y-14647698D01*
X17363039Y-14647698D02*
X17372563Y-14638174D01*
X17372563Y-14638174D02*
X17391611Y-14628650D01*
X17391611Y-14628650D02*
X17420182Y-14628650D01*
X17420182Y-14628650D02*
X17439230Y-14638174D01*
X17439230Y-14638174D02*
X17448753Y-14647698D01*
X17448753Y-14647698D02*
X17458277Y-14666746D01*
X17458277Y-14666746D02*
X17458277Y-14723888D01*
X17458277Y-14723888D02*
X17448753Y-14742936D01*
X17448753Y-14742936D02*
X17439230Y-14752460D01*
X17439230Y-14752460D02*
X17420182Y-14761984D01*
X17420182Y-14761984D02*
X17391611Y-14761984D01*
X17572563Y-14761984D02*
X17553515Y-14752460D01*
X17553515Y-14752460D02*
X17543992Y-14733412D01*
X17543992Y-14733412D02*
X17543992Y-14561984D01*
X17724944Y-14752460D02*
X17705896Y-14761984D01*
X17705896Y-14761984D02*
X17667801Y-14761984D01*
X17667801Y-14761984D02*
X17648753Y-14752460D01*
X17648753Y-14752460D02*
X17639230Y-14733412D01*
X17639230Y-14733412D02*
X17639230Y-14657222D01*
X17639230Y-14657222D02*
X17648753Y-14638174D01*
X17648753Y-14638174D02*
X17667801Y-14628650D01*
X17667801Y-14628650D02*
X17705896Y-14628650D01*
X17705896Y-14628650D02*
X17724944Y-14638174D01*
X17724944Y-14638174D02*
X17734468Y-14657222D01*
X17734468Y-14657222D02*
X17734468Y-14676269D01*
X17734468Y-14676269D02*
X17639230Y-14695317D01*
X17810658Y-14752460D02*
X17829706Y-14761984D01*
X17829706Y-14761984D02*
X17867801Y-14761984D01*
X17867801Y-14761984D02*
X17886849Y-14752460D01*
X17886849Y-14752460D02*
X17896373Y-14733412D01*
X17896373Y-14733412D02*
X17896373Y-14723888D01*
X17896373Y-14723888D02*
X17886849Y-14704841D01*
X17886849Y-14704841D02*
X17867801Y-14695317D01*
X17867801Y-14695317D02*
X17839230Y-14695317D01*
X17839230Y-14695317D02*
X17820182Y-14685793D01*
X17820182Y-14685793D02*
X17810658Y-14666746D01*
X17810658Y-14666746D02*
X17810658Y-14657222D01*
X17810658Y-14657222D02*
X17820182Y-14638174D01*
X17820182Y-14638174D02*
X17839230Y-14628650D01*
X17839230Y-14628650D02*
X17867801Y-14628650D01*
X17867801Y-14628650D02*
X17886849Y-14638174D01*
X17963039Y-14838174D02*
X17972563Y-14828650D01*
X17972563Y-14828650D02*
X17991611Y-14800079D01*
X17991611Y-14800079D02*
X18001134Y-14781031D01*
X18001134Y-14781031D02*
X18010658Y-14752460D01*
X18010658Y-14752460D02*
X18020182Y-14704841D01*
X18020182Y-14704841D02*
X18020182Y-14666746D01*
X18020182Y-14666746D02*
X18010658Y-14619127D01*
X18010658Y-14619127D02*
X18001134Y-14590555D01*
X18001134Y-14590555D02*
X17991611Y-14571508D01*
X17991611Y-14571508D02*
X17972563Y-14542936D01*
X17972563Y-14542936D02*
X17963039Y-14533412D01*
D12*
X12993107Y-14945107D02*
X12993107Y-14923893D01*
X12971893Y-14923893D01*
X12971893Y-14945107D01*
X12993107Y-14945107D01*
D11*
X13296372Y-14825984D02*
X13315420Y-14825984D01*
X13315420Y-14825984D02*
X13334467Y-14835508D01*
X13334467Y-14835508D02*
X13343991Y-14845031D01*
X13343991Y-14845031D02*
X13353515Y-14864079D01*
X13353515Y-14864079D02*
X13363039Y-14902174D01*
X13363039Y-14902174D02*
X13363039Y-14949793D01*
X13363039Y-14949793D02*
X13353515Y-14987888D01*
X13353515Y-14987888D02*
X13343991Y-15006936D01*
X13343991Y-15006936D02*
X13334467Y-15016460D01*
X13334467Y-15016460D02*
X13315420Y-15025984D01*
X13315420Y-15025984D02*
X13296372Y-15025984D01*
X13296372Y-15025984D02*
X13277324Y-15016460D01*
X13277324Y-15016460D02*
X13267801Y-15006936D01*
X13267801Y-15006936D02*
X13258277Y-14987888D01*
X13258277Y-14987888D02*
X13248753Y-14949793D01*
X13248753Y-14949793D02*
X13248753Y-14902174D01*
X13248753Y-14902174D02*
X13258277Y-14864079D01*
X13258277Y-14864079D02*
X13267801Y-14845031D01*
X13267801Y-14845031D02*
X13277324Y-14835508D01*
X13277324Y-14835508D02*
X13296372Y-14825984D01*
X13448753Y-15006936D02*
X13458277Y-15016460D01*
X13458277Y-15016460D02*
X13448753Y-15025984D01*
X13448753Y-15025984D02*
X13439229Y-15016460D01*
X13439229Y-15016460D02*
X13448753Y-15006936D01*
X13448753Y-15006936D02*
X13448753Y-15025984D01*
X13524943Y-14825984D02*
X13648753Y-14825984D01*
X13648753Y-14825984D02*
X13582086Y-14902174D01*
X13582086Y-14902174D02*
X13610658Y-14902174D01*
X13610658Y-14902174D02*
X13629705Y-14911698D01*
X13629705Y-14911698D02*
X13639229Y-14921222D01*
X13639229Y-14921222D02*
X13648753Y-14940269D01*
X13648753Y-14940269D02*
X13648753Y-14987888D01*
X13648753Y-14987888D02*
X13639229Y-15006936D01*
X13639229Y-15006936D02*
X13629705Y-15016460D01*
X13629705Y-15016460D02*
X13610658Y-15025984D01*
X13610658Y-15025984D02*
X13553515Y-15025984D01*
X13553515Y-15025984D02*
X13534467Y-15016460D01*
X13534467Y-15016460D02*
X13524943Y-15006936D01*
X13772562Y-14825984D02*
X13791610Y-14825984D01*
X13791610Y-14825984D02*
X13810658Y-14835508D01*
X13810658Y-14835508D02*
X13820182Y-14845031D01*
X13820182Y-14845031D02*
X13829705Y-14864079D01*
X13829705Y-14864079D02*
X13839229Y-14902174D01*
X13839229Y-14902174D02*
X13839229Y-14949793D01*
X13839229Y-14949793D02*
X13829705Y-14987888D01*
X13829705Y-14987888D02*
X13820182Y-15006936D01*
X13820182Y-15006936D02*
X13810658Y-15016460D01*
X13810658Y-15016460D02*
X13791610Y-15025984D01*
X13791610Y-15025984D02*
X13772562Y-15025984D01*
X13772562Y-15025984D02*
X13753515Y-15016460D01*
X13753515Y-15016460D02*
X13743991Y-15006936D01*
X13743991Y-15006936D02*
X13734467Y-14987888D01*
X13734467Y-14987888D02*
X13724943Y-14949793D01*
X13724943Y-14949793D02*
X13724943Y-14902174D01*
X13724943Y-14902174D02*
X13734467Y-14864079D01*
X13734467Y-14864079D02*
X13743991Y-14845031D01*
X13743991Y-14845031D02*
X13753515Y-14835508D01*
X13753515Y-14835508D02*
X13772562Y-14825984D01*
X13963039Y-14825984D02*
X13982086Y-14825984D01*
X13982086Y-14825984D02*
X14001134Y-14835508D01*
X14001134Y-14835508D02*
X14010658Y-14845031D01*
X14010658Y-14845031D02*
X14020182Y-14864079D01*
X14020182Y-14864079D02*
X14029705Y-14902174D01*
X14029705Y-14902174D02*
X14029705Y-14949793D01*
X14029705Y-14949793D02*
X14020182Y-14987888D01*
X14020182Y-14987888D02*
X14010658Y-15006936D01*
X14010658Y-15006936D02*
X14001134Y-15016460D01*
X14001134Y-15016460D02*
X13982086Y-15025984D01*
X13982086Y-15025984D02*
X13963039Y-15025984D01*
X13963039Y-15025984D02*
X13943991Y-15016460D01*
X13943991Y-15016460D02*
X13934467Y-15006936D01*
X13934467Y-15006936D02*
X13924943Y-14987888D01*
X13924943Y-14987888D02*
X13915420Y-14949793D01*
X13915420Y-14949793D02*
X13915420Y-14902174D01*
X13915420Y-14902174D02*
X13924943Y-14864079D01*
X13924943Y-14864079D02*
X13934467Y-14845031D01*
X13934467Y-14845031D02*
X13943991Y-14835508D01*
X13943991Y-14835508D02*
X13963039Y-14825984D01*
X14115420Y-15025984D02*
X14115420Y-14892650D01*
X14115420Y-14911698D02*
X14124943Y-14902174D01*
X14124943Y-14902174D02*
X14143991Y-14892650D01*
X14143991Y-14892650D02*
X14172563Y-14892650D01*
X14172563Y-14892650D02*
X14191610Y-14902174D01*
X14191610Y-14902174D02*
X14201134Y-14921222D01*
X14201134Y-14921222D02*
X14201134Y-15025984D01*
X14201134Y-14921222D02*
X14210658Y-14902174D01*
X14210658Y-14902174D02*
X14229705Y-14892650D01*
X14229705Y-14892650D02*
X14258277Y-14892650D01*
X14258277Y-14892650D02*
X14277324Y-14902174D01*
X14277324Y-14902174D02*
X14286848Y-14921222D01*
X14286848Y-14921222D02*
X14286848Y-15025984D01*
X14382086Y-15025984D02*
X14382086Y-14892650D01*
X14382086Y-14911698D02*
X14391610Y-14902174D01*
X14391610Y-14902174D02*
X14410658Y-14892650D01*
X14410658Y-14892650D02*
X14439229Y-14892650D01*
X14439229Y-14892650D02*
X14458277Y-14902174D01*
X14458277Y-14902174D02*
X14467801Y-14921222D01*
X14467801Y-14921222D02*
X14467801Y-15025984D01*
X14467801Y-14921222D02*
X14477324Y-14902174D01*
X14477324Y-14902174D02*
X14496372Y-14892650D01*
X14496372Y-14892650D02*
X14524943Y-14892650D01*
X14524943Y-14892650D02*
X14543991Y-14902174D01*
X14543991Y-14902174D02*
X14553515Y-14921222D01*
X14553515Y-14921222D02*
X14553515Y-15025984D01*
X14943991Y-14816460D02*
X14772563Y-15073603D01*
X15201134Y-14825984D02*
X15220182Y-14825984D01*
X15220182Y-14825984D02*
X15239229Y-14835508D01*
X15239229Y-14835508D02*
X15248753Y-14845031D01*
X15248753Y-14845031D02*
X15258277Y-14864079D01*
X15258277Y-14864079D02*
X15267801Y-14902174D01*
X15267801Y-14902174D02*
X15267801Y-14949793D01*
X15267801Y-14949793D02*
X15258277Y-14987888D01*
X15258277Y-14987888D02*
X15248753Y-15006936D01*
X15248753Y-15006936D02*
X15239229Y-15016460D01*
X15239229Y-15016460D02*
X15220182Y-15025984D01*
X15220182Y-15025984D02*
X15201134Y-15025984D01*
X15201134Y-15025984D02*
X15182086Y-15016460D01*
X15182086Y-15016460D02*
X15172563Y-15006936D01*
X15172563Y-15006936D02*
X15163039Y-14987888D01*
X15163039Y-14987888D02*
X15153515Y-14949793D01*
X15153515Y-14949793D02*
X15153515Y-14902174D01*
X15153515Y-14902174D02*
X15163039Y-14864079D01*
X15163039Y-14864079D02*
X15172563Y-14845031D01*
X15172563Y-14845031D02*
X15182086Y-14835508D01*
X15182086Y-14835508D02*
X15201134Y-14825984D01*
X15353515Y-15006936D02*
X15363039Y-15016460D01*
X15363039Y-15016460D02*
X15353515Y-15025984D01*
X15353515Y-15025984D02*
X15343991Y-15016460D01*
X15343991Y-15016460D02*
X15353515Y-15006936D01*
X15353515Y-15006936D02*
X15353515Y-15025984D01*
X15486848Y-14825984D02*
X15505896Y-14825984D01*
X15505896Y-14825984D02*
X15524944Y-14835508D01*
X15524944Y-14835508D02*
X15534467Y-14845031D01*
X15534467Y-14845031D02*
X15543991Y-14864079D01*
X15543991Y-14864079D02*
X15553515Y-14902174D01*
X15553515Y-14902174D02*
X15553515Y-14949793D01*
X15553515Y-14949793D02*
X15543991Y-14987888D01*
X15543991Y-14987888D02*
X15534467Y-15006936D01*
X15534467Y-15006936D02*
X15524944Y-15016460D01*
X15524944Y-15016460D02*
X15505896Y-15025984D01*
X15505896Y-15025984D02*
X15486848Y-15025984D01*
X15486848Y-15025984D02*
X15467801Y-15016460D01*
X15467801Y-15016460D02*
X15458277Y-15006936D01*
X15458277Y-15006936D02*
X15448753Y-14987888D01*
X15448753Y-14987888D02*
X15439229Y-14949793D01*
X15439229Y-14949793D02*
X15439229Y-14902174D01*
X15439229Y-14902174D02*
X15448753Y-14864079D01*
X15448753Y-14864079D02*
X15458277Y-14845031D01*
X15458277Y-14845031D02*
X15467801Y-14835508D01*
X15467801Y-14835508D02*
X15486848Y-14825984D01*
X15743991Y-15025984D02*
X15629706Y-15025984D01*
X15686848Y-15025984D02*
X15686848Y-14825984D01*
X15686848Y-14825984D02*
X15667801Y-14854555D01*
X15667801Y-14854555D02*
X15648753Y-14873603D01*
X15648753Y-14873603D02*
X15629706Y-14883127D01*
X15934467Y-15025984D02*
X15820182Y-15025984D01*
X15877325Y-15025984D02*
X15877325Y-14825984D01*
X15877325Y-14825984D02*
X15858277Y-14854555D01*
X15858277Y-14854555D02*
X15839229Y-14873603D01*
X15839229Y-14873603D02*
X15820182Y-14883127D01*
X16048753Y-14911698D02*
X16029706Y-14902174D01*
X16029706Y-14902174D02*
X16020182Y-14892650D01*
X16020182Y-14892650D02*
X16010658Y-14873603D01*
X16010658Y-14873603D02*
X16010658Y-14864079D01*
X16010658Y-14864079D02*
X16020182Y-14845031D01*
X16020182Y-14845031D02*
X16029706Y-14835508D01*
X16029706Y-14835508D02*
X16048753Y-14825984D01*
X16048753Y-14825984D02*
X16086848Y-14825984D01*
X16086848Y-14825984D02*
X16105896Y-14835508D01*
X16105896Y-14835508D02*
X16115420Y-14845031D01*
X16115420Y-14845031D02*
X16124944Y-14864079D01*
X16124944Y-14864079D02*
X16124944Y-14873603D01*
X16124944Y-14873603D02*
X16115420Y-14892650D01*
X16115420Y-14892650D02*
X16105896Y-14902174D01*
X16105896Y-14902174D02*
X16086848Y-14911698D01*
X16086848Y-14911698D02*
X16048753Y-14911698D01*
X16048753Y-14911698D02*
X16029706Y-14921222D01*
X16029706Y-14921222D02*
X16020182Y-14930746D01*
X16020182Y-14930746D02*
X16010658Y-14949793D01*
X16010658Y-14949793D02*
X16010658Y-14987888D01*
X16010658Y-14987888D02*
X16020182Y-15006936D01*
X16020182Y-15006936D02*
X16029706Y-15016460D01*
X16029706Y-15016460D02*
X16048753Y-15025984D01*
X16048753Y-15025984D02*
X16086848Y-15025984D01*
X16086848Y-15025984D02*
X16105896Y-15016460D01*
X16105896Y-15016460D02*
X16115420Y-15006936D01*
X16115420Y-15006936D02*
X16124944Y-14987888D01*
X16124944Y-14987888D02*
X16124944Y-14949793D01*
X16124944Y-14949793D02*
X16115420Y-14930746D01*
X16115420Y-14930746D02*
X16105896Y-14921222D01*
X16105896Y-14921222D02*
X16086848Y-14911698D01*
X16201134Y-14825984D02*
X16201134Y-14864079D01*
X16277325Y-14825984D02*
X16277325Y-14864079D01*
X16572563Y-15102174D02*
X16563039Y-15092650D01*
X16563039Y-15092650D02*
X16543991Y-15064079D01*
X16543991Y-15064079D02*
X16534468Y-15045031D01*
X16534468Y-15045031D02*
X16524944Y-15016460D01*
X16524944Y-15016460D02*
X16515420Y-14968841D01*
X16515420Y-14968841D02*
X16515420Y-14930746D01*
X16515420Y-14930746D02*
X16524944Y-14883127D01*
X16524944Y-14883127D02*
X16534468Y-14854555D01*
X16534468Y-14854555D02*
X16543991Y-14835508D01*
X16543991Y-14835508D02*
X16563039Y-14806936D01*
X16563039Y-14806936D02*
X16572563Y-14797412D01*
X16753515Y-15025984D02*
X16639229Y-15025984D01*
X16696372Y-15025984D02*
X16696372Y-14825984D01*
X16696372Y-14825984D02*
X16677325Y-14854555D01*
X16677325Y-14854555D02*
X16658277Y-14873603D01*
X16658277Y-14873603D02*
X16639229Y-14883127D01*
X16991611Y-15025984D02*
X16991611Y-14825984D01*
X17077325Y-15025984D02*
X17077325Y-14921222D01*
X17077325Y-14921222D02*
X17067801Y-14902174D01*
X17067801Y-14902174D02*
X17048753Y-14892650D01*
X17048753Y-14892650D02*
X17020182Y-14892650D01*
X17020182Y-14892650D02*
X17001134Y-14902174D01*
X17001134Y-14902174D02*
X16991611Y-14911698D01*
X17201134Y-15025984D02*
X17182087Y-15016460D01*
X17182087Y-15016460D02*
X17172563Y-15006936D01*
X17172563Y-15006936D02*
X17163039Y-14987888D01*
X17163039Y-14987888D02*
X17163039Y-14930746D01*
X17163039Y-14930746D02*
X17172563Y-14911698D01*
X17172563Y-14911698D02*
X17182087Y-14902174D01*
X17182087Y-14902174D02*
X17201134Y-14892650D01*
X17201134Y-14892650D02*
X17229706Y-14892650D01*
X17229706Y-14892650D02*
X17248753Y-14902174D01*
X17248753Y-14902174D02*
X17258277Y-14911698D01*
X17258277Y-14911698D02*
X17267801Y-14930746D01*
X17267801Y-14930746D02*
X17267801Y-14987888D01*
X17267801Y-14987888D02*
X17258277Y-15006936D01*
X17258277Y-15006936D02*
X17248753Y-15016460D01*
X17248753Y-15016460D02*
X17229706Y-15025984D01*
X17229706Y-15025984D02*
X17201134Y-15025984D01*
X17382087Y-15025984D02*
X17363039Y-15016460D01*
X17363039Y-15016460D02*
X17353515Y-14997412D01*
X17353515Y-14997412D02*
X17353515Y-14825984D01*
X17534468Y-15016460D02*
X17515420Y-15025984D01*
X17515420Y-15025984D02*
X17477325Y-15025984D01*
X17477325Y-15025984D02*
X17458277Y-15016460D01*
X17458277Y-15016460D02*
X17448753Y-14997412D01*
X17448753Y-14997412D02*
X17448753Y-14921222D01*
X17448753Y-14921222D02*
X17458277Y-14902174D01*
X17458277Y-14902174D02*
X17477325Y-14892650D01*
X17477325Y-14892650D02*
X17515420Y-14892650D01*
X17515420Y-14892650D02*
X17534468Y-14902174D01*
X17534468Y-14902174D02*
X17543992Y-14921222D01*
X17543992Y-14921222D02*
X17543992Y-14940269D01*
X17543992Y-14940269D02*
X17448753Y-14959317D01*
X17610658Y-15102174D02*
X17620182Y-15092650D01*
X17620182Y-15092650D02*
X17639230Y-15064079D01*
X17639230Y-15064079D02*
X17648753Y-15045031D01*
X17648753Y-15045031D02*
X17658277Y-15016460D01*
X17658277Y-15016460D02*
X17667801Y-14968841D01*
X17667801Y-14968841D02*
X17667801Y-14930746D01*
X17667801Y-14930746D02*
X17658277Y-14883127D01*
X17658277Y-14883127D02*
X17648753Y-14854555D01*
X17648753Y-14854555D02*
X17639230Y-14835508D01*
X17639230Y-14835508D02*
X17620182Y-14806936D01*
X17620182Y-14806936D02*
X17610658Y-14797412D01*
D12*
X12967500Y-15228500D02*
X12997500Y-15198500D01*
X12967500Y-15168500D01*
X12937500Y-15198500D01*
X12967500Y-15228500D01*
D11*
X13296372Y-15089984D02*
X13315420Y-15089984D01*
X13315420Y-15089984D02*
X13334467Y-15099508D01*
X13334467Y-15099508D02*
X13343991Y-15109031D01*
X13343991Y-15109031D02*
X13353515Y-15128079D01*
X13353515Y-15128079D02*
X13363039Y-15166174D01*
X13363039Y-15166174D02*
X13363039Y-15213793D01*
X13363039Y-15213793D02*
X13353515Y-15251888D01*
X13353515Y-15251888D02*
X13343991Y-15270936D01*
X13343991Y-15270936D02*
X13334467Y-15280460D01*
X13334467Y-15280460D02*
X13315420Y-15289984D01*
X13315420Y-15289984D02*
X13296372Y-15289984D01*
X13296372Y-15289984D02*
X13277324Y-15280460D01*
X13277324Y-15280460D02*
X13267801Y-15270936D01*
X13267801Y-15270936D02*
X13258277Y-15251888D01*
X13258277Y-15251888D02*
X13248753Y-15213793D01*
X13248753Y-15213793D02*
X13248753Y-15166174D01*
X13248753Y-15166174D02*
X13258277Y-15128079D01*
X13258277Y-15128079D02*
X13267801Y-15109031D01*
X13267801Y-15109031D02*
X13277324Y-15099508D01*
X13277324Y-15099508D02*
X13296372Y-15089984D01*
X13448753Y-15270936D02*
X13458277Y-15280460D01*
X13458277Y-15280460D02*
X13448753Y-15289984D01*
X13448753Y-15289984D02*
X13439229Y-15280460D01*
X13439229Y-15280460D02*
X13448753Y-15270936D01*
X13448753Y-15270936D02*
X13448753Y-15289984D01*
X13629705Y-15089984D02*
X13591610Y-15089984D01*
X13591610Y-15089984D02*
X13572562Y-15099508D01*
X13572562Y-15099508D02*
X13563039Y-15109031D01*
X13563039Y-15109031D02*
X13543991Y-15137603D01*
X13543991Y-15137603D02*
X13534467Y-15175698D01*
X13534467Y-15175698D02*
X13534467Y-15251888D01*
X13534467Y-15251888D02*
X13543991Y-15270936D01*
X13543991Y-15270936D02*
X13553515Y-15280460D01*
X13553515Y-15280460D02*
X13572562Y-15289984D01*
X13572562Y-15289984D02*
X13610658Y-15289984D01*
X13610658Y-15289984D02*
X13629705Y-15280460D01*
X13629705Y-15280460D02*
X13639229Y-15270936D01*
X13639229Y-15270936D02*
X13648753Y-15251888D01*
X13648753Y-15251888D02*
X13648753Y-15204269D01*
X13648753Y-15204269D02*
X13639229Y-15185222D01*
X13639229Y-15185222D02*
X13629705Y-15175698D01*
X13629705Y-15175698D02*
X13610658Y-15166174D01*
X13610658Y-15166174D02*
X13572562Y-15166174D01*
X13572562Y-15166174D02*
X13553515Y-15175698D01*
X13553515Y-15175698D02*
X13543991Y-15185222D01*
X13543991Y-15185222D02*
X13534467Y-15204269D01*
X13772562Y-15089984D02*
X13791610Y-15089984D01*
X13791610Y-15089984D02*
X13810658Y-15099508D01*
X13810658Y-15099508D02*
X13820182Y-15109031D01*
X13820182Y-15109031D02*
X13829705Y-15128079D01*
X13829705Y-15128079D02*
X13839229Y-15166174D01*
X13839229Y-15166174D02*
X13839229Y-15213793D01*
X13839229Y-15213793D02*
X13829705Y-15251888D01*
X13829705Y-15251888D02*
X13820182Y-15270936D01*
X13820182Y-15270936D02*
X13810658Y-15280460D01*
X13810658Y-15280460D02*
X13791610Y-15289984D01*
X13791610Y-15289984D02*
X13772562Y-15289984D01*
X13772562Y-15289984D02*
X13753515Y-15280460D01*
X13753515Y-15280460D02*
X13743991Y-15270936D01*
X13743991Y-15270936D02*
X13734467Y-15251888D01*
X13734467Y-15251888D02*
X13724943Y-15213793D01*
X13724943Y-15213793D02*
X13724943Y-15166174D01*
X13724943Y-15166174D02*
X13734467Y-15128079D01*
X13734467Y-15128079D02*
X13743991Y-15109031D01*
X13743991Y-15109031D02*
X13753515Y-15099508D01*
X13753515Y-15099508D02*
X13772562Y-15089984D01*
X13963039Y-15089984D02*
X13982086Y-15089984D01*
X13982086Y-15089984D02*
X14001134Y-15099508D01*
X14001134Y-15099508D02*
X14010658Y-15109031D01*
X14010658Y-15109031D02*
X14020182Y-15128079D01*
X14020182Y-15128079D02*
X14029705Y-15166174D01*
X14029705Y-15166174D02*
X14029705Y-15213793D01*
X14029705Y-15213793D02*
X14020182Y-15251888D01*
X14020182Y-15251888D02*
X14010658Y-15270936D01*
X14010658Y-15270936D02*
X14001134Y-15280460D01*
X14001134Y-15280460D02*
X13982086Y-15289984D01*
X13982086Y-15289984D02*
X13963039Y-15289984D01*
X13963039Y-15289984D02*
X13943991Y-15280460D01*
X13943991Y-15280460D02*
X13934467Y-15270936D01*
X13934467Y-15270936D02*
X13924943Y-15251888D01*
X13924943Y-15251888D02*
X13915420Y-15213793D01*
X13915420Y-15213793D02*
X13915420Y-15166174D01*
X13915420Y-15166174D02*
X13924943Y-15128079D01*
X13924943Y-15128079D02*
X13934467Y-15109031D01*
X13934467Y-15109031D02*
X13943991Y-15099508D01*
X13943991Y-15099508D02*
X13963039Y-15089984D01*
X14115420Y-15289984D02*
X14115420Y-15156650D01*
X14115420Y-15175698D02*
X14124943Y-15166174D01*
X14124943Y-15166174D02*
X14143991Y-15156650D01*
X14143991Y-15156650D02*
X14172563Y-15156650D01*
X14172563Y-15156650D02*
X14191610Y-15166174D01*
X14191610Y-15166174D02*
X14201134Y-15185222D01*
X14201134Y-15185222D02*
X14201134Y-15289984D01*
X14201134Y-15185222D02*
X14210658Y-15166174D01*
X14210658Y-15166174D02*
X14229705Y-15156650D01*
X14229705Y-15156650D02*
X14258277Y-15156650D01*
X14258277Y-15156650D02*
X14277324Y-15166174D01*
X14277324Y-15166174D02*
X14286848Y-15185222D01*
X14286848Y-15185222D02*
X14286848Y-15289984D01*
X14382086Y-15289984D02*
X14382086Y-15156650D01*
X14382086Y-15175698D02*
X14391610Y-15166174D01*
X14391610Y-15166174D02*
X14410658Y-15156650D01*
X14410658Y-15156650D02*
X14439229Y-15156650D01*
X14439229Y-15156650D02*
X14458277Y-15166174D01*
X14458277Y-15166174D02*
X14467801Y-15185222D01*
X14467801Y-15185222D02*
X14467801Y-15289984D01*
X14467801Y-15185222D02*
X14477324Y-15166174D01*
X14477324Y-15166174D02*
X14496372Y-15156650D01*
X14496372Y-15156650D02*
X14524943Y-15156650D01*
X14524943Y-15156650D02*
X14543991Y-15166174D01*
X14543991Y-15166174D02*
X14553515Y-15185222D01*
X14553515Y-15185222D02*
X14553515Y-15289984D01*
X14943991Y-15080460D02*
X14772563Y-15337603D01*
X15201134Y-15089984D02*
X15220182Y-15089984D01*
X15220182Y-15089984D02*
X15239229Y-15099508D01*
X15239229Y-15099508D02*
X15248753Y-15109031D01*
X15248753Y-15109031D02*
X15258277Y-15128079D01*
X15258277Y-15128079D02*
X15267801Y-15166174D01*
X15267801Y-15166174D02*
X15267801Y-15213793D01*
X15267801Y-15213793D02*
X15258277Y-15251888D01*
X15258277Y-15251888D02*
X15248753Y-15270936D01*
X15248753Y-15270936D02*
X15239229Y-15280460D01*
X15239229Y-15280460D02*
X15220182Y-15289984D01*
X15220182Y-15289984D02*
X15201134Y-15289984D01*
X15201134Y-15289984D02*
X15182086Y-15280460D01*
X15182086Y-15280460D02*
X15172563Y-15270936D01*
X15172563Y-15270936D02*
X15163039Y-15251888D01*
X15163039Y-15251888D02*
X15153515Y-15213793D01*
X15153515Y-15213793D02*
X15153515Y-15166174D01*
X15153515Y-15166174D02*
X15163039Y-15128079D01*
X15163039Y-15128079D02*
X15172563Y-15109031D01*
X15172563Y-15109031D02*
X15182086Y-15099508D01*
X15182086Y-15099508D02*
X15201134Y-15089984D01*
X15353515Y-15270936D02*
X15363039Y-15280460D01*
X15363039Y-15280460D02*
X15353515Y-15289984D01*
X15353515Y-15289984D02*
X15343991Y-15280460D01*
X15343991Y-15280460D02*
X15353515Y-15270936D01*
X15353515Y-15270936D02*
X15353515Y-15289984D01*
X15486848Y-15089984D02*
X15505896Y-15089984D01*
X15505896Y-15089984D02*
X15524944Y-15099508D01*
X15524944Y-15099508D02*
X15534467Y-15109031D01*
X15534467Y-15109031D02*
X15543991Y-15128079D01*
X15543991Y-15128079D02*
X15553515Y-15166174D01*
X15553515Y-15166174D02*
X15553515Y-15213793D01*
X15553515Y-15213793D02*
X15543991Y-15251888D01*
X15543991Y-15251888D02*
X15534467Y-15270936D01*
X15534467Y-15270936D02*
X15524944Y-15280460D01*
X15524944Y-15280460D02*
X15505896Y-15289984D01*
X15505896Y-15289984D02*
X15486848Y-15289984D01*
X15486848Y-15289984D02*
X15467801Y-15280460D01*
X15467801Y-15280460D02*
X15458277Y-15270936D01*
X15458277Y-15270936D02*
X15448753Y-15251888D01*
X15448753Y-15251888D02*
X15439229Y-15213793D01*
X15439229Y-15213793D02*
X15439229Y-15166174D01*
X15439229Y-15166174D02*
X15448753Y-15128079D01*
X15448753Y-15128079D02*
X15458277Y-15109031D01*
X15458277Y-15109031D02*
X15467801Y-15099508D01*
X15467801Y-15099508D02*
X15486848Y-15089984D01*
X15629706Y-15109031D02*
X15639229Y-15099508D01*
X15639229Y-15099508D02*
X15658277Y-15089984D01*
X15658277Y-15089984D02*
X15705896Y-15089984D01*
X15705896Y-15089984D02*
X15724944Y-15099508D01*
X15724944Y-15099508D02*
X15734467Y-15109031D01*
X15734467Y-15109031D02*
X15743991Y-15128079D01*
X15743991Y-15128079D02*
X15743991Y-15147127D01*
X15743991Y-15147127D02*
X15734467Y-15175698D01*
X15734467Y-15175698D02*
X15620182Y-15289984D01*
X15620182Y-15289984D02*
X15743991Y-15289984D01*
X15810658Y-15089984D02*
X15934467Y-15089984D01*
X15934467Y-15089984D02*
X15867801Y-15166174D01*
X15867801Y-15166174D02*
X15896372Y-15166174D01*
X15896372Y-15166174D02*
X15915420Y-15175698D01*
X15915420Y-15175698D02*
X15924944Y-15185222D01*
X15924944Y-15185222D02*
X15934467Y-15204269D01*
X15934467Y-15204269D02*
X15934467Y-15251888D01*
X15934467Y-15251888D02*
X15924944Y-15270936D01*
X15924944Y-15270936D02*
X15915420Y-15280460D01*
X15915420Y-15280460D02*
X15896372Y-15289984D01*
X15896372Y-15289984D02*
X15839229Y-15289984D01*
X15839229Y-15289984D02*
X15820182Y-15280460D01*
X15820182Y-15280460D02*
X15810658Y-15270936D01*
X16105896Y-15089984D02*
X16067801Y-15089984D01*
X16067801Y-15089984D02*
X16048753Y-15099508D01*
X16048753Y-15099508D02*
X16039229Y-15109031D01*
X16039229Y-15109031D02*
X16020182Y-15137603D01*
X16020182Y-15137603D02*
X16010658Y-15175698D01*
X16010658Y-15175698D02*
X16010658Y-15251888D01*
X16010658Y-15251888D02*
X16020182Y-15270936D01*
X16020182Y-15270936D02*
X16029706Y-15280460D01*
X16029706Y-15280460D02*
X16048753Y-15289984D01*
X16048753Y-15289984D02*
X16086848Y-15289984D01*
X16086848Y-15289984D02*
X16105896Y-15280460D01*
X16105896Y-15280460D02*
X16115420Y-15270936D01*
X16115420Y-15270936D02*
X16124944Y-15251888D01*
X16124944Y-15251888D02*
X16124944Y-15204269D01*
X16124944Y-15204269D02*
X16115420Y-15185222D01*
X16115420Y-15185222D02*
X16105896Y-15175698D01*
X16105896Y-15175698D02*
X16086848Y-15166174D01*
X16086848Y-15166174D02*
X16048753Y-15166174D01*
X16048753Y-15166174D02*
X16029706Y-15175698D01*
X16029706Y-15175698D02*
X16020182Y-15185222D01*
X16020182Y-15185222D02*
X16010658Y-15204269D01*
X16201134Y-15089984D02*
X16201134Y-15128079D01*
X16277325Y-15089984D02*
X16277325Y-15128079D01*
X16572563Y-15366174D02*
X16563039Y-15356650D01*
X16563039Y-15356650D02*
X16543991Y-15328079D01*
X16543991Y-15328079D02*
X16534468Y-15309031D01*
X16534468Y-15309031D02*
X16524944Y-15280460D01*
X16524944Y-15280460D02*
X16515420Y-15232841D01*
X16515420Y-15232841D02*
X16515420Y-15194746D01*
X16515420Y-15194746D02*
X16524944Y-15147127D01*
X16524944Y-15147127D02*
X16534468Y-15118555D01*
X16534468Y-15118555D02*
X16543991Y-15099508D01*
X16543991Y-15099508D02*
X16563039Y-15070936D01*
X16563039Y-15070936D02*
X16572563Y-15061412D01*
X16686848Y-15089984D02*
X16705896Y-15089984D01*
X16705896Y-15089984D02*
X16724944Y-15099508D01*
X16724944Y-15099508D02*
X16734468Y-15109031D01*
X16734468Y-15109031D02*
X16743991Y-15128079D01*
X16743991Y-15128079D02*
X16753515Y-15166174D01*
X16753515Y-15166174D02*
X16753515Y-15213793D01*
X16753515Y-15213793D02*
X16743991Y-15251888D01*
X16743991Y-15251888D02*
X16734468Y-15270936D01*
X16734468Y-15270936D02*
X16724944Y-15280460D01*
X16724944Y-15280460D02*
X16705896Y-15289984D01*
X16705896Y-15289984D02*
X16686848Y-15289984D01*
X16686848Y-15289984D02*
X16667801Y-15280460D01*
X16667801Y-15280460D02*
X16658277Y-15270936D01*
X16658277Y-15270936D02*
X16648753Y-15251888D01*
X16648753Y-15251888D02*
X16639229Y-15213793D01*
X16639229Y-15213793D02*
X16639229Y-15166174D01*
X16639229Y-15166174D02*
X16648753Y-15128079D01*
X16648753Y-15128079D02*
X16658277Y-15109031D01*
X16658277Y-15109031D02*
X16667801Y-15099508D01*
X16667801Y-15099508D02*
X16686848Y-15089984D01*
X16991611Y-15289984D02*
X16991611Y-15089984D01*
X17077325Y-15289984D02*
X17077325Y-15185222D01*
X17077325Y-15185222D02*
X17067801Y-15166174D01*
X17067801Y-15166174D02*
X17048753Y-15156650D01*
X17048753Y-15156650D02*
X17020182Y-15156650D01*
X17020182Y-15156650D02*
X17001134Y-15166174D01*
X17001134Y-15166174D02*
X16991611Y-15175698D01*
X17201134Y-15289984D02*
X17182087Y-15280460D01*
X17182087Y-15280460D02*
X17172563Y-15270936D01*
X17172563Y-15270936D02*
X17163039Y-15251888D01*
X17163039Y-15251888D02*
X17163039Y-15194746D01*
X17163039Y-15194746D02*
X17172563Y-15175698D01*
X17172563Y-15175698D02*
X17182087Y-15166174D01*
X17182087Y-15166174D02*
X17201134Y-15156650D01*
X17201134Y-15156650D02*
X17229706Y-15156650D01*
X17229706Y-15156650D02*
X17248753Y-15166174D01*
X17248753Y-15166174D02*
X17258277Y-15175698D01*
X17258277Y-15175698D02*
X17267801Y-15194746D01*
X17267801Y-15194746D02*
X17267801Y-15251888D01*
X17267801Y-15251888D02*
X17258277Y-15270936D01*
X17258277Y-15270936D02*
X17248753Y-15280460D01*
X17248753Y-15280460D02*
X17229706Y-15289984D01*
X17229706Y-15289984D02*
X17201134Y-15289984D01*
X17382087Y-15289984D02*
X17363039Y-15280460D01*
X17363039Y-15280460D02*
X17353515Y-15261412D01*
X17353515Y-15261412D02*
X17353515Y-15089984D01*
X17534468Y-15280460D02*
X17515420Y-15289984D01*
X17515420Y-15289984D02*
X17477325Y-15289984D01*
X17477325Y-15289984D02*
X17458277Y-15280460D01*
X17458277Y-15280460D02*
X17448753Y-15261412D01*
X17448753Y-15261412D02*
X17448753Y-15185222D01*
X17448753Y-15185222D02*
X17458277Y-15166174D01*
X17458277Y-15166174D02*
X17477325Y-15156650D01*
X17477325Y-15156650D02*
X17515420Y-15156650D01*
X17515420Y-15156650D02*
X17534468Y-15166174D01*
X17534468Y-15166174D02*
X17543992Y-15185222D01*
X17543992Y-15185222D02*
X17543992Y-15204269D01*
X17543992Y-15204269D02*
X17448753Y-15223317D01*
X17620182Y-15280460D02*
X17639230Y-15289984D01*
X17639230Y-15289984D02*
X17677325Y-15289984D01*
X17677325Y-15289984D02*
X17696373Y-15280460D01*
X17696373Y-15280460D02*
X17705896Y-15261412D01*
X17705896Y-15261412D02*
X17705896Y-15251888D01*
X17705896Y-15251888D02*
X17696373Y-15232841D01*
X17696373Y-15232841D02*
X17677325Y-15223317D01*
X17677325Y-15223317D02*
X17648753Y-15223317D01*
X17648753Y-15223317D02*
X17629706Y-15213793D01*
X17629706Y-15213793D02*
X17620182Y-15194746D01*
X17620182Y-15194746D02*
X17620182Y-15185222D01*
X17620182Y-15185222D02*
X17629706Y-15166174D01*
X17629706Y-15166174D02*
X17648753Y-15156650D01*
X17648753Y-15156650D02*
X17677325Y-15156650D01*
X17677325Y-15156650D02*
X17696373Y-15166174D01*
X17943992Y-15213793D02*
X18096373Y-15213793D01*
X18020182Y-15289984D02*
X18020182Y-15137603D01*
X18429706Y-15156650D02*
X18429706Y-15289984D01*
X18382087Y-15080460D02*
X18334468Y-15223317D01*
X18334468Y-15223317D02*
X18458277Y-15223317D01*
X18677325Y-15280460D02*
X18696373Y-15289984D01*
X18696373Y-15289984D02*
X18734468Y-15289984D01*
X18734468Y-15289984D02*
X18753516Y-15280460D01*
X18753516Y-15280460D02*
X18763039Y-15261412D01*
X18763039Y-15261412D02*
X18763039Y-15251888D01*
X18763039Y-15251888D02*
X18753516Y-15232841D01*
X18753516Y-15232841D02*
X18734468Y-15223317D01*
X18734468Y-15223317D02*
X18705896Y-15223317D01*
X18705896Y-15223317D02*
X18686849Y-15213793D01*
X18686849Y-15213793D02*
X18677325Y-15194746D01*
X18677325Y-15194746D02*
X18677325Y-15185222D01*
X18677325Y-15185222D02*
X18686849Y-15166174D01*
X18686849Y-15166174D02*
X18705896Y-15156650D01*
X18705896Y-15156650D02*
X18734468Y-15156650D01*
X18734468Y-15156650D02*
X18753516Y-15166174D01*
X18877325Y-15289984D02*
X18858277Y-15280460D01*
X18858277Y-15280460D02*
X18848754Y-15261412D01*
X18848754Y-15261412D02*
X18848754Y-15089984D01*
X18982087Y-15289984D02*
X18963039Y-15280460D01*
X18963039Y-15280460D02*
X18953516Y-15270936D01*
X18953516Y-15270936D02*
X18943992Y-15251888D01*
X18943992Y-15251888D02*
X18943992Y-15194746D01*
X18943992Y-15194746D02*
X18953516Y-15175698D01*
X18953516Y-15175698D02*
X18963039Y-15166174D01*
X18963039Y-15166174D02*
X18982087Y-15156650D01*
X18982087Y-15156650D02*
X19010658Y-15156650D01*
X19010658Y-15156650D02*
X19029706Y-15166174D01*
X19029706Y-15166174D02*
X19039230Y-15175698D01*
X19039230Y-15175698D02*
X19048754Y-15194746D01*
X19048754Y-15194746D02*
X19048754Y-15251888D01*
X19048754Y-15251888D02*
X19039230Y-15270936D01*
X19039230Y-15270936D02*
X19029706Y-15280460D01*
X19029706Y-15280460D02*
X19010658Y-15289984D01*
X19010658Y-15289984D02*
X18982087Y-15289984D01*
X19105897Y-15156650D02*
X19182087Y-15156650D01*
X19134468Y-15089984D02*
X19134468Y-15261412D01*
X19134468Y-15261412D02*
X19143992Y-15280460D01*
X19143992Y-15280460D02*
X19163039Y-15289984D01*
X19163039Y-15289984D02*
X19182087Y-15289984D01*
X19239230Y-15280460D02*
X19258277Y-15289984D01*
X19258277Y-15289984D02*
X19296373Y-15289984D01*
X19296373Y-15289984D02*
X19315420Y-15280460D01*
X19315420Y-15280460D02*
X19324944Y-15261412D01*
X19324944Y-15261412D02*
X19324944Y-15251888D01*
X19324944Y-15251888D02*
X19315420Y-15232841D01*
X19315420Y-15232841D02*
X19296373Y-15223317D01*
X19296373Y-15223317D02*
X19267801Y-15223317D01*
X19267801Y-15223317D02*
X19248754Y-15213793D01*
X19248754Y-15213793D02*
X19239230Y-15194746D01*
X19239230Y-15194746D02*
X19239230Y-15185222D01*
X19239230Y-15185222D02*
X19248754Y-15166174D01*
X19248754Y-15166174D02*
X19267801Y-15156650D01*
X19267801Y-15156650D02*
X19296373Y-15156650D01*
X19296373Y-15156650D02*
X19315420Y-15166174D01*
X19391611Y-15366174D02*
X19401135Y-15356650D01*
X19401135Y-15356650D02*
X19420182Y-15328079D01*
X19420182Y-15328079D02*
X19429706Y-15309031D01*
X19429706Y-15309031D02*
X19439230Y-15280460D01*
X19439230Y-15280460D02*
X19448754Y-15232841D01*
X19448754Y-15232841D02*
X19448754Y-15194746D01*
X19448754Y-15194746D02*
X19439230Y-15147127D01*
X19439230Y-15147127D02*
X19429706Y-15118555D01*
X19429706Y-15118555D02*
X19420182Y-15099508D01*
X19420182Y-15099508D02*
X19401135Y-15070936D01*
X19401135Y-15070936D02*
X19391611Y-15061412D01*
D12*
X12932500Y-15430000D02*
X12997500Y-15495000D01*
X12997500Y-15430000D02*
X12932500Y-15495000D01*
X12997500Y-15462500D02*
G75*
G02*
X12932500Y-15462500I-32500J0D01*
G01*
X12932500Y-15462500D02*
G75*
G02*
X12997500Y-15462500I32500J0D01*
G01*
D11*
X13296372Y-15353984D02*
X13315420Y-15353984D01*
X13315420Y-15353984D02*
X13334467Y-15363508D01*
X13334467Y-15363508D02*
X13343991Y-15373031D01*
X13343991Y-15373031D02*
X13353515Y-15392079D01*
X13353515Y-15392079D02*
X13363039Y-15430174D01*
X13363039Y-15430174D02*
X13363039Y-15477793D01*
X13363039Y-15477793D02*
X13353515Y-15515888D01*
X13353515Y-15515888D02*
X13343991Y-15534936D01*
X13343991Y-15534936D02*
X13334467Y-15544460D01*
X13334467Y-15544460D02*
X13315420Y-15553984D01*
X13315420Y-15553984D02*
X13296372Y-15553984D01*
X13296372Y-15553984D02*
X13277324Y-15544460D01*
X13277324Y-15544460D02*
X13267801Y-15534936D01*
X13267801Y-15534936D02*
X13258277Y-15515888D01*
X13258277Y-15515888D02*
X13248753Y-15477793D01*
X13248753Y-15477793D02*
X13248753Y-15430174D01*
X13248753Y-15430174D02*
X13258277Y-15392079D01*
X13258277Y-15392079D02*
X13267801Y-15373031D01*
X13267801Y-15373031D02*
X13277324Y-15363508D01*
X13277324Y-15363508D02*
X13296372Y-15353984D01*
X13448753Y-15534936D02*
X13458277Y-15544460D01*
X13458277Y-15544460D02*
X13448753Y-15553984D01*
X13448753Y-15553984D02*
X13439229Y-15544460D01*
X13439229Y-15544460D02*
X13448753Y-15534936D01*
X13448753Y-15534936D02*
X13448753Y-15553984D01*
X13629705Y-15353984D02*
X13591610Y-15353984D01*
X13591610Y-15353984D02*
X13572562Y-15363508D01*
X13572562Y-15363508D02*
X13563039Y-15373031D01*
X13563039Y-15373031D02*
X13543991Y-15401603D01*
X13543991Y-15401603D02*
X13534467Y-15439698D01*
X13534467Y-15439698D02*
X13534467Y-15515888D01*
X13534467Y-15515888D02*
X13543991Y-15534936D01*
X13543991Y-15534936D02*
X13553515Y-15544460D01*
X13553515Y-15544460D02*
X13572562Y-15553984D01*
X13572562Y-15553984D02*
X13610658Y-15553984D01*
X13610658Y-15553984D02*
X13629705Y-15544460D01*
X13629705Y-15544460D02*
X13639229Y-15534936D01*
X13639229Y-15534936D02*
X13648753Y-15515888D01*
X13648753Y-15515888D02*
X13648753Y-15468269D01*
X13648753Y-15468269D02*
X13639229Y-15449222D01*
X13639229Y-15449222D02*
X13629705Y-15439698D01*
X13629705Y-15439698D02*
X13610658Y-15430174D01*
X13610658Y-15430174D02*
X13572562Y-15430174D01*
X13572562Y-15430174D02*
X13553515Y-15439698D01*
X13553515Y-15439698D02*
X13543991Y-15449222D01*
X13543991Y-15449222D02*
X13534467Y-15468269D01*
X13829705Y-15353984D02*
X13734467Y-15353984D01*
X13734467Y-15353984D02*
X13724943Y-15449222D01*
X13724943Y-15449222D02*
X13734467Y-15439698D01*
X13734467Y-15439698D02*
X13753515Y-15430174D01*
X13753515Y-15430174D02*
X13801134Y-15430174D01*
X13801134Y-15430174D02*
X13820182Y-15439698D01*
X13820182Y-15439698D02*
X13829705Y-15449222D01*
X13829705Y-15449222D02*
X13839229Y-15468269D01*
X13839229Y-15468269D02*
X13839229Y-15515888D01*
X13839229Y-15515888D02*
X13829705Y-15534936D01*
X13829705Y-15534936D02*
X13820182Y-15544460D01*
X13820182Y-15544460D02*
X13801134Y-15553984D01*
X13801134Y-15553984D02*
X13753515Y-15553984D01*
X13753515Y-15553984D02*
X13734467Y-15544460D01*
X13734467Y-15544460D02*
X13724943Y-15534936D01*
X13963039Y-15353984D02*
X13982086Y-15353984D01*
X13982086Y-15353984D02*
X14001134Y-15363508D01*
X14001134Y-15363508D02*
X14010658Y-15373031D01*
X14010658Y-15373031D02*
X14020182Y-15392079D01*
X14020182Y-15392079D02*
X14029705Y-15430174D01*
X14029705Y-15430174D02*
X14029705Y-15477793D01*
X14029705Y-15477793D02*
X14020182Y-15515888D01*
X14020182Y-15515888D02*
X14010658Y-15534936D01*
X14010658Y-15534936D02*
X14001134Y-15544460D01*
X14001134Y-15544460D02*
X13982086Y-15553984D01*
X13982086Y-15553984D02*
X13963039Y-15553984D01*
X13963039Y-15553984D02*
X13943991Y-15544460D01*
X13943991Y-15544460D02*
X13934467Y-15534936D01*
X13934467Y-15534936D02*
X13924943Y-15515888D01*
X13924943Y-15515888D02*
X13915420Y-15477793D01*
X13915420Y-15477793D02*
X13915420Y-15430174D01*
X13915420Y-15430174D02*
X13924943Y-15392079D01*
X13924943Y-15392079D02*
X13934467Y-15373031D01*
X13934467Y-15373031D02*
X13943991Y-15363508D01*
X13943991Y-15363508D02*
X13963039Y-15353984D01*
X14115420Y-15553984D02*
X14115420Y-15420650D01*
X14115420Y-15439698D02*
X14124943Y-15430174D01*
X14124943Y-15430174D02*
X14143991Y-15420650D01*
X14143991Y-15420650D02*
X14172563Y-15420650D01*
X14172563Y-15420650D02*
X14191610Y-15430174D01*
X14191610Y-15430174D02*
X14201134Y-15449222D01*
X14201134Y-15449222D02*
X14201134Y-15553984D01*
X14201134Y-15449222D02*
X14210658Y-15430174D01*
X14210658Y-15430174D02*
X14229705Y-15420650D01*
X14229705Y-15420650D02*
X14258277Y-15420650D01*
X14258277Y-15420650D02*
X14277324Y-15430174D01*
X14277324Y-15430174D02*
X14286848Y-15449222D01*
X14286848Y-15449222D02*
X14286848Y-15553984D01*
X14382086Y-15553984D02*
X14382086Y-15420650D01*
X14382086Y-15439698D02*
X14391610Y-15430174D01*
X14391610Y-15430174D02*
X14410658Y-15420650D01*
X14410658Y-15420650D02*
X14439229Y-15420650D01*
X14439229Y-15420650D02*
X14458277Y-15430174D01*
X14458277Y-15430174D02*
X14467801Y-15449222D01*
X14467801Y-15449222D02*
X14467801Y-15553984D01*
X14467801Y-15449222D02*
X14477324Y-15430174D01*
X14477324Y-15430174D02*
X14496372Y-15420650D01*
X14496372Y-15420650D02*
X14524943Y-15420650D01*
X14524943Y-15420650D02*
X14543991Y-15430174D01*
X14543991Y-15430174D02*
X14553515Y-15449222D01*
X14553515Y-15449222D02*
X14553515Y-15553984D01*
X14943991Y-15344460D02*
X14772563Y-15601603D01*
X15201134Y-15353984D02*
X15220182Y-15353984D01*
X15220182Y-15353984D02*
X15239229Y-15363508D01*
X15239229Y-15363508D02*
X15248753Y-15373031D01*
X15248753Y-15373031D02*
X15258277Y-15392079D01*
X15258277Y-15392079D02*
X15267801Y-15430174D01*
X15267801Y-15430174D02*
X15267801Y-15477793D01*
X15267801Y-15477793D02*
X15258277Y-15515888D01*
X15258277Y-15515888D02*
X15248753Y-15534936D01*
X15248753Y-15534936D02*
X15239229Y-15544460D01*
X15239229Y-15544460D02*
X15220182Y-15553984D01*
X15220182Y-15553984D02*
X15201134Y-15553984D01*
X15201134Y-15553984D02*
X15182086Y-15544460D01*
X15182086Y-15544460D02*
X15172563Y-15534936D01*
X15172563Y-15534936D02*
X15163039Y-15515888D01*
X15163039Y-15515888D02*
X15153515Y-15477793D01*
X15153515Y-15477793D02*
X15153515Y-15430174D01*
X15153515Y-15430174D02*
X15163039Y-15392079D01*
X15163039Y-15392079D02*
X15172563Y-15373031D01*
X15172563Y-15373031D02*
X15182086Y-15363508D01*
X15182086Y-15363508D02*
X15201134Y-15353984D01*
X15353515Y-15534936D02*
X15363039Y-15544460D01*
X15363039Y-15544460D02*
X15353515Y-15553984D01*
X15353515Y-15553984D02*
X15343991Y-15544460D01*
X15343991Y-15544460D02*
X15353515Y-15534936D01*
X15353515Y-15534936D02*
X15353515Y-15553984D01*
X15486848Y-15353984D02*
X15505896Y-15353984D01*
X15505896Y-15353984D02*
X15524944Y-15363508D01*
X15524944Y-15363508D02*
X15534467Y-15373031D01*
X15534467Y-15373031D02*
X15543991Y-15392079D01*
X15543991Y-15392079D02*
X15553515Y-15430174D01*
X15553515Y-15430174D02*
X15553515Y-15477793D01*
X15553515Y-15477793D02*
X15543991Y-15515888D01*
X15543991Y-15515888D02*
X15534467Y-15534936D01*
X15534467Y-15534936D02*
X15524944Y-15544460D01*
X15524944Y-15544460D02*
X15505896Y-15553984D01*
X15505896Y-15553984D02*
X15486848Y-15553984D01*
X15486848Y-15553984D02*
X15467801Y-15544460D01*
X15467801Y-15544460D02*
X15458277Y-15534936D01*
X15458277Y-15534936D02*
X15448753Y-15515888D01*
X15448753Y-15515888D02*
X15439229Y-15477793D01*
X15439229Y-15477793D02*
X15439229Y-15430174D01*
X15439229Y-15430174D02*
X15448753Y-15392079D01*
X15448753Y-15392079D02*
X15458277Y-15373031D01*
X15458277Y-15373031D02*
X15467801Y-15363508D01*
X15467801Y-15363508D02*
X15486848Y-15353984D01*
X15629706Y-15373031D02*
X15639229Y-15363508D01*
X15639229Y-15363508D02*
X15658277Y-15353984D01*
X15658277Y-15353984D02*
X15705896Y-15353984D01*
X15705896Y-15353984D02*
X15724944Y-15363508D01*
X15724944Y-15363508D02*
X15734467Y-15373031D01*
X15734467Y-15373031D02*
X15743991Y-15392079D01*
X15743991Y-15392079D02*
X15743991Y-15411127D01*
X15743991Y-15411127D02*
X15734467Y-15439698D01*
X15734467Y-15439698D02*
X15620182Y-15553984D01*
X15620182Y-15553984D02*
X15743991Y-15553984D01*
X15924944Y-15353984D02*
X15829706Y-15353984D01*
X15829706Y-15353984D02*
X15820182Y-15449222D01*
X15820182Y-15449222D02*
X15829706Y-15439698D01*
X15829706Y-15439698D02*
X15848753Y-15430174D01*
X15848753Y-15430174D02*
X15896372Y-15430174D01*
X15896372Y-15430174D02*
X15915420Y-15439698D01*
X15915420Y-15439698D02*
X15924944Y-15449222D01*
X15924944Y-15449222D02*
X15934467Y-15468269D01*
X15934467Y-15468269D02*
X15934467Y-15515888D01*
X15934467Y-15515888D02*
X15924944Y-15534936D01*
X15924944Y-15534936D02*
X15915420Y-15544460D01*
X15915420Y-15544460D02*
X15896372Y-15553984D01*
X15896372Y-15553984D02*
X15848753Y-15553984D01*
X15848753Y-15553984D02*
X15829706Y-15544460D01*
X15829706Y-15544460D02*
X15820182Y-15534936D01*
X16105896Y-15353984D02*
X16067801Y-15353984D01*
X16067801Y-15353984D02*
X16048753Y-15363508D01*
X16048753Y-15363508D02*
X16039229Y-15373031D01*
X16039229Y-15373031D02*
X16020182Y-15401603D01*
X16020182Y-15401603D02*
X16010658Y-15439698D01*
X16010658Y-15439698D02*
X16010658Y-15515888D01*
X16010658Y-15515888D02*
X16020182Y-15534936D01*
X16020182Y-15534936D02*
X16029706Y-15544460D01*
X16029706Y-15544460D02*
X16048753Y-15553984D01*
X16048753Y-15553984D02*
X16086848Y-15553984D01*
X16086848Y-15553984D02*
X16105896Y-15544460D01*
X16105896Y-15544460D02*
X16115420Y-15534936D01*
X16115420Y-15534936D02*
X16124944Y-15515888D01*
X16124944Y-15515888D02*
X16124944Y-15468269D01*
X16124944Y-15468269D02*
X16115420Y-15449222D01*
X16115420Y-15449222D02*
X16105896Y-15439698D01*
X16105896Y-15439698D02*
X16086848Y-15430174D01*
X16086848Y-15430174D02*
X16048753Y-15430174D01*
X16048753Y-15430174D02*
X16029706Y-15439698D01*
X16029706Y-15439698D02*
X16020182Y-15449222D01*
X16020182Y-15449222D02*
X16010658Y-15468269D01*
X16201134Y-15353984D02*
X16201134Y-15392079D01*
X16277325Y-15353984D02*
X16277325Y-15392079D01*
X16572563Y-15630174D02*
X16563039Y-15620650D01*
X16563039Y-15620650D02*
X16543991Y-15592079D01*
X16543991Y-15592079D02*
X16534468Y-15573031D01*
X16534468Y-15573031D02*
X16524944Y-15544460D01*
X16524944Y-15544460D02*
X16515420Y-15496841D01*
X16515420Y-15496841D02*
X16515420Y-15458746D01*
X16515420Y-15458746D02*
X16524944Y-15411127D01*
X16524944Y-15411127D02*
X16534468Y-15382555D01*
X16534468Y-15382555D02*
X16543991Y-15363508D01*
X16543991Y-15363508D02*
X16563039Y-15334936D01*
X16563039Y-15334936D02*
X16572563Y-15325412D01*
X16639229Y-15373031D02*
X16648753Y-15363508D01*
X16648753Y-15363508D02*
X16667801Y-15353984D01*
X16667801Y-15353984D02*
X16715420Y-15353984D01*
X16715420Y-15353984D02*
X16734468Y-15363508D01*
X16734468Y-15363508D02*
X16743991Y-15373031D01*
X16743991Y-15373031D02*
X16753515Y-15392079D01*
X16753515Y-15392079D02*
X16753515Y-15411127D01*
X16753515Y-15411127D02*
X16743991Y-15439698D01*
X16743991Y-15439698D02*
X16629706Y-15553984D01*
X16629706Y-15553984D02*
X16753515Y-15553984D01*
X16991611Y-15553984D02*
X16991611Y-15353984D01*
X17077325Y-15553984D02*
X17077325Y-15449222D01*
X17077325Y-15449222D02*
X17067801Y-15430174D01*
X17067801Y-15430174D02*
X17048753Y-15420650D01*
X17048753Y-15420650D02*
X17020182Y-15420650D01*
X17020182Y-15420650D02*
X17001134Y-15430174D01*
X17001134Y-15430174D02*
X16991611Y-15439698D01*
X17201134Y-15553984D02*
X17182087Y-15544460D01*
X17182087Y-15544460D02*
X17172563Y-15534936D01*
X17172563Y-15534936D02*
X17163039Y-15515888D01*
X17163039Y-15515888D02*
X17163039Y-15458746D01*
X17163039Y-15458746D02*
X17172563Y-15439698D01*
X17172563Y-15439698D02*
X17182087Y-15430174D01*
X17182087Y-15430174D02*
X17201134Y-15420650D01*
X17201134Y-15420650D02*
X17229706Y-15420650D01*
X17229706Y-15420650D02*
X17248753Y-15430174D01*
X17248753Y-15430174D02*
X17258277Y-15439698D01*
X17258277Y-15439698D02*
X17267801Y-15458746D01*
X17267801Y-15458746D02*
X17267801Y-15515888D01*
X17267801Y-15515888D02*
X17258277Y-15534936D01*
X17258277Y-15534936D02*
X17248753Y-15544460D01*
X17248753Y-15544460D02*
X17229706Y-15553984D01*
X17229706Y-15553984D02*
X17201134Y-15553984D01*
X17382087Y-15553984D02*
X17363039Y-15544460D01*
X17363039Y-15544460D02*
X17353515Y-15525412D01*
X17353515Y-15525412D02*
X17353515Y-15353984D01*
X17534468Y-15544460D02*
X17515420Y-15553984D01*
X17515420Y-15553984D02*
X17477325Y-15553984D01*
X17477325Y-15553984D02*
X17458277Y-15544460D01*
X17458277Y-15544460D02*
X17448753Y-15525412D01*
X17448753Y-15525412D02*
X17448753Y-15449222D01*
X17448753Y-15449222D02*
X17458277Y-15430174D01*
X17458277Y-15430174D02*
X17477325Y-15420650D01*
X17477325Y-15420650D02*
X17515420Y-15420650D01*
X17515420Y-15420650D02*
X17534468Y-15430174D01*
X17534468Y-15430174D02*
X17543992Y-15449222D01*
X17543992Y-15449222D02*
X17543992Y-15468269D01*
X17543992Y-15468269D02*
X17448753Y-15487317D01*
X17620182Y-15544460D02*
X17639230Y-15553984D01*
X17639230Y-15553984D02*
X17677325Y-15553984D01*
X17677325Y-15553984D02*
X17696373Y-15544460D01*
X17696373Y-15544460D02*
X17705896Y-15525412D01*
X17705896Y-15525412D02*
X17705896Y-15515888D01*
X17705896Y-15515888D02*
X17696373Y-15496841D01*
X17696373Y-15496841D02*
X17677325Y-15487317D01*
X17677325Y-15487317D02*
X17648753Y-15487317D01*
X17648753Y-15487317D02*
X17629706Y-15477793D01*
X17629706Y-15477793D02*
X17620182Y-15458746D01*
X17620182Y-15458746D02*
X17620182Y-15449222D01*
X17620182Y-15449222D02*
X17629706Y-15430174D01*
X17629706Y-15430174D02*
X17648753Y-15420650D01*
X17648753Y-15420650D02*
X17677325Y-15420650D01*
X17677325Y-15420650D02*
X17696373Y-15430174D01*
X17772563Y-15630174D02*
X17782087Y-15620650D01*
X17782087Y-15620650D02*
X17801134Y-15592079D01*
X17801134Y-15592079D02*
X17810658Y-15573031D01*
X17810658Y-15573031D02*
X17820182Y-15544460D01*
X17820182Y-15544460D02*
X17829706Y-15496841D01*
X17829706Y-15496841D02*
X17829706Y-15458746D01*
X17829706Y-15458746D02*
X17820182Y-15411127D01*
X17820182Y-15411127D02*
X17810658Y-15382555D01*
X17810658Y-15382555D02*
X17801134Y-15363508D01*
X17801134Y-15363508D02*
X17782087Y-15334936D01*
X17782087Y-15334936D02*
X17772563Y-15325412D01*
X12797500Y-15626500D02*
X12997500Y-15826500D01*
X12997500Y-15626500D02*
X12797500Y-15826500D01*
X12897500Y-15626500D02*
X12897500Y-15826500D01*
X12797500Y-15726500D02*
X12997500Y-15726500D01*
X13248753Y-15637031D02*
X13258277Y-15627508D01*
X13258277Y-15627508D02*
X13277324Y-15617984D01*
X13277324Y-15617984D02*
X13324943Y-15617984D01*
X13324943Y-15617984D02*
X13343991Y-15627508D01*
X13343991Y-15627508D02*
X13353515Y-15637031D01*
X13353515Y-15637031D02*
X13363039Y-15656079D01*
X13363039Y-15656079D02*
X13363039Y-15675127D01*
X13363039Y-15675127D02*
X13353515Y-15703698D01*
X13353515Y-15703698D02*
X13239229Y-15817984D01*
X13239229Y-15817984D02*
X13363039Y-15817984D01*
X13448753Y-15798936D02*
X13458277Y-15808460D01*
X13458277Y-15808460D02*
X13448753Y-15817984D01*
X13448753Y-15817984D02*
X13439229Y-15808460D01*
X13439229Y-15808460D02*
X13448753Y-15798936D01*
X13448753Y-15798936D02*
X13448753Y-15817984D01*
X13639229Y-15617984D02*
X13543991Y-15617984D01*
X13543991Y-15617984D02*
X13534467Y-15713222D01*
X13534467Y-15713222D02*
X13543991Y-15703698D01*
X13543991Y-15703698D02*
X13563039Y-15694174D01*
X13563039Y-15694174D02*
X13610658Y-15694174D01*
X13610658Y-15694174D02*
X13629705Y-15703698D01*
X13629705Y-15703698D02*
X13639229Y-15713222D01*
X13639229Y-15713222D02*
X13648753Y-15732269D01*
X13648753Y-15732269D02*
X13648753Y-15779888D01*
X13648753Y-15779888D02*
X13639229Y-15798936D01*
X13639229Y-15798936D02*
X13629705Y-15808460D01*
X13629705Y-15808460D02*
X13610658Y-15817984D01*
X13610658Y-15817984D02*
X13563039Y-15817984D01*
X13563039Y-15817984D02*
X13543991Y-15808460D01*
X13543991Y-15808460D02*
X13534467Y-15798936D01*
X13772562Y-15617984D02*
X13791610Y-15617984D01*
X13791610Y-15617984D02*
X13810658Y-15627508D01*
X13810658Y-15627508D02*
X13820182Y-15637031D01*
X13820182Y-15637031D02*
X13829705Y-15656079D01*
X13829705Y-15656079D02*
X13839229Y-15694174D01*
X13839229Y-15694174D02*
X13839229Y-15741793D01*
X13839229Y-15741793D02*
X13829705Y-15779888D01*
X13829705Y-15779888D02*
X13820182Y-15798936D01*
X13820182Y-15798936D02*
X13810658Y-15808460D01*
X13810658Y-15808460D02*
X13791610Y-15817984D01*
X13791610Y-15817984D02*
X13772562Y-15817984D01*
X13772562Y-15817984D02*
X13753515Y-15808460D01*
X13753515Y-15808460D02*
X13743991Y-15798936D01*
X13743991Y-15798936D02*
X13734467Y-15779888D01*
X13734467Y-15779888D02*
X13724943Y-15741793D01*
X13724943Y-15741793D02*
X13724943Y-15694174D01*
X13724943Y-15694174D02*
X13734467Y-15656079D01*
X13734467Y-15656079D02*
X13743991Y-15637031D01*
X13743991Y-15637031D02*
X13753515Y-15627508D01*
X13753515Y-15627508D02*
X13772562Y-15617984D01*
X13963039Y-15617984D02*
X13982086Y-15617984D01*
X13982086Y-15617984D02*
X14001134Y-15627508D01*
X14001134Y-15627508D02*
X14010658Y-15637031D01*
X14010658Y-15637031D02*
X14020182Y-15656079D01*
X14020182Y-15656079D02*
X14029705Y-15694174D01*
X14029705Y-15694174D02*
X14029705Y-15741793D01*
X14029705Y-15741793D02*
X14020182Y-15779888D01*
X14020182Y-15779888D02*
X14010658Y-15798936D01*
X14010658Y-15798936D02*
X14001134Y-15808460D01*
X14001134Y-15808460D02*
X13982086Y-15817984D01*
X13982086Y-15817984D02*
X13963039Y-15817984D01*
X13963039Y-15817984D02*
X13943991Y-15808460D01*
X13943991Y-15808460D02*
X13934467Y-15798936D01*
X13934467Y-15798936D02*
X13924943Y-15779888D01*
X13924943Y-15779888D02*
X13915420Y-15741793D01*
X13915420Y-15741793D02*
X13915420Y-15694174D01*
X13915420Y-15694174D02*
X13924943Y-15656079D01*
X13924943Y-15656079D02*
X13934467Y-15637031D01*
X13934467Y-15637031D02*
X13943991Y-15627508D01*
X13943991Y-15627508D02*
X13963039Y-15617984D01*
X14115420Y-15817984D02*
X14115420Y-15684650D01*
X14115420Y-15703698D02*
X14124943Y-15694174D01*
X14124943Y-15694174D02*
X14143991Y-15684650D01*
X14143991Y-15684650D02*
X14172563Y-15684650D01*
X14172563Y-15684650D02*
X14191610Y-15694174D01*
X14191610Y-15694174D02*
X14201134Y-15713222D01*
X14201134Y-15713222D02*
X14201134Y-15817984D01*
X14201134Y-15713222D02*
X14210658Y-15694174D01*
X14210658Y-15694174D02*
X14229705Y-15684650D01*
X14229705Y-15684650D02*
X14258277Y-15684650D01*
X14258277Y-15684650D02*
X14277324Y-15694174D01*
X14277324Y-15694174D02*
X14286848Y-15713222D01*
X14286848Y-15713222D02*
X14286848Y-15817984D01*
X14382086Y-15817984D02*
X14382086Y-15684650D01*
X14382086Y-15703698D02*
X14391610Y-15694174D01*
X14391610Y-15694174D02*
X14410658Y-15684650D01*
X14410658Y-15684650D02*
X14439229Y-15684650D01*
X14439229Y-15684650D02*
X14458277Y-15694174D01*
X14458277Y-15694174D02*
X14467801Y-15713222D01*
X14467801Y-15713222D02*
X14467801Y-15817984D01*
X14467801Y-15713222D02*
X14477324Y-15694174D01*
X14477324Y-15694174D02*
X14496372Y-15684650D01*
X14496372Y-15684650D02*
X14524943Y-15684650D01*
X14524943Y-15684650D02*
X14543991Y-15694174D01*
X14543991Y-15694174D02*
X14553515Y-15713222D01*
X14553515Y-15713222D02*
X14553515Y-15817984D01*
X14943991Y-15608460D02*
X14772563Y-15865603D01*
X15201134Y-15617984D02*
X15220182Y-15617984D01*
X15220182Y-15617984D02*
X15239229Y-15627508D01*
X15239229Y-15627508D02*
X15248753Y-15637031D01*
X15248753Y-15637031D02*
X15258277Y-15656079D01*
X15258277Y-15656079D02*
X15267801Y-15694174D01*
X15267801Y-15694174D02*
X15267801Y-15741793D01*
X15267801Y-15741793D02*
X15258277Y-15779888D01*
X15258277Y-15779888D02*
X15248753Y-15798936D01*
X15248753Y-15798936D02*
X15239229Y-15808460D01*
X15239229Y-15808460D02*
X15220182Y-15817984D01*
X15220182Y-15817984D02*
X15201134Y-15817984D01*
X15201134Y-15817984D02*
X15182086Y-15808460D01*
X15182086Y-15808460D02*
X15172563Y-15798936D01*
X15172563Y-15798936D02*
X15163039Y-15779888D01*
X15163039Y-15779888D02*
X15153515Y-15741793D01*
X15153515Y-15741793D02*
X15153515Y-15694174D01*
X15153515Y-15694174D02*
X15163039Y-15656079D01*
X15163039Y-15656079D02*
X15172563Y-15637031D01*
X15172563Y-15637031D02*
X15182086Y-15627508D01*
X15182086Y-15627508D02*
X15201134Y-15617984D01*
X15353515Y-15798936D02*
X15363039Y-15808460D01*
X15363039Y-15808460D02*
X15353515Y-15817984D01*
X15353515Y-15817984D02*
X15343991Y-15808460D01*
X15343991Y-15808460D02*
X15353515Y-15798936D01*
X15353515Y-15798936D02*
X15353515Y-15817984D01*
X15486848Y-15617984D02*
X15505896Y-15617984D01*
X15505896Y-15617984D02*
X15524944Y-15627508D01*
X15524944Y-15627508D02*
X15534467Y-15637031D01*
X15534467Y-15637031D02*
X15543991Y-15656079D01*
X15543991Y-15656079D02*
X15553515Y-15694174D01*
X15553515Y-15694174D02*
X15553515Y-15741793D01*
X15553515Y-15741793D02*
X15543991Y-15779888D01*
X15543991Y-15779888D02*
X15534467Y-15798936D01*
X15534467Y-15798936D02*
X15524944Y-15808460D01*
X15524944Y-15808460D02*
X15505896Y-15817984D01*
X15505896Y-15817984D02*
X15486848Y-15817984D01*
X15486848Y-15817984D02*
X15467801Y-15808460D01*
X15467801Y-15808460D02*
X15458277Y-15798936D01*
X15458277Y-15798936D02*
X15448753Y-15779888D01*
X15448753Y-15779888D02*
X15439229Y-15741793D01*
X15439229Y-15741793D02*
X15439229Y-15694174D01*
X15439229Y-15694174D02*
X15448753Y-15656079D01*
X15448753Y-15656079D02*
X15458277Y-15637031D01*
X15458277Y-15637031D02*
X15467801Y-15627508D01*
X15467801Y-15627508D02*
X15486848Y-15617984D01*
X15648753Y-15817984D02*
X15686848Y-15817984D01*
X15686848Y-15817984D02*
X15705896Y-15808460D01*
X15705896Y-15808460D02*
X15715420Y-15798936D01*
X15715420Y-15798936D02*
X15734467Y-15770365D01*
X15734467Y-15770365D02*
X15743991Y-15732269D01*
X15743991Y-15732269D02*
X15743991Y-15656079D01*
X15743991Y-15656079D02*
X15734467Y-15637031D01*
X15734467Y-15637031D02*
X15724944Y-15627508D01*
X15724944Y-15627508D02*
X15705896Y-15617984D01*
X15705896Y-15617984D02*
X15667801Y-15617984D01*
X15667801Y-15617984D02*
X15648753Y-15627508D01*
X15648753Y-15627508D02*
X15639229Y-15637031D01*
X15639229Y-15637031D02*
X15629706Y-15656079D01*
X15629706Y-15656079D02*
X15629706Y-15703698D01*
X15629706Y-15703698D02*
X15639229Y-15722746D01*
X15639229Y-15722746D02*
X15648753Y-15732269D01*
X15648753Y-15732269D02*
X15667801Y-15741793D01*
X15667801Y-15741793D02*
X15705896Y-15741793D01*
X15705896Y-15741793D02*
X15724944Y-15732269D01*
X15724944Y-15732269D02*
X15734467Y-15722746D01*
X15734467Y-15722746D02*
X15743991Y-15703698D01*
X15858277Y-15703698D02*
X15839229Y-15694174D01*
X15839229Y-15694174D02*
X15829706Y-15684650D01*
X15829706Y-15684650D02*
X15820182Y-15665603D01*
X15820182Y-15665603D02*
X15820182Y-15656079D01*
X15820182Y-15656079D02*
X15829706Y-15637031D01*
X15829706Y-15637031D02*
X15839229Y-15627508D01*
X15839229Y-15627508D02*
X15858277Y-15617984D01*
X15858277Y-15617984D02*
X15896372Y-15617984D01*
X15896372Y-15617984D02*
X15915420Y-15627508D01*
X15915420Y-15627508D02*
X15924944Y-15637031D01*
X15924944Y-15637031D02*
X15934467Y-15656079D01*
X15934467Y-15656079D02*
X15934467Y-15665603D01*
X15934467Y-15665603D02*
X15924944Y-15684650D01*
X15924944Y-15684650D02*
X15915420Y-15694174D01*
X15915420Y-15694174D02*
X15896372Y-15703698D01*
X15896372Y-15703698D02*
X15858277Y-15703698D01*
X15858277Y-15703698D02*
X15839229Y-15713222D01*
X15839229Y-15713222D02*
X15829706Y-15722746D01*
X15829706Y-15722746D02*
X15820182Y-15741793D01*
X15820182Y-15741793D02*
X15820182Y-15779888D01*
X15820182Y-15779888D02*
X15829706Y-15798936D01*
X15829706Y-15798936D02*
X15839229Y-15808460D01*
X15839229Y-15808460D02*
X15858277Y-15817984D01*
X15858277Y-15817984D02*
X15896372Y-15817984D01*
X15896372Y-15817984D02*
X15915420Y-15808460D01*
X15915420Y-15808460D02*
X15924944Y-15798936D01*
X15924944Y-15798936D02*
X15934467Y-15779888D01*
X15934467Y-15779888D02*
X15934467Y-15741793D01*
X15934467Y-15741793D02*
X15924944Y-15722746D01*
X15924944Y-15722746D02*
X15915420Y-15713222D01*
X15915420Y-15713222D02*
X15896372Y-15703698D01*
X16105896Y-15684650D02*
X16105896Y-15817984D01*
X16058277Y-15608460D02*
X16010658Y-15751317D01*
X16010658Y-15751317D02*
X16134467Y-15751317D01*
X16201134Y-15617984D02*
X16201134Y-15656079D01*
X16277325Y-15617984D02*
X16277325Y-15656079D01*
X16572563Y-15894174D02*
X16563039Y-15884650D01*
X16563039Y-15884650D02*
X16543991Y-15856079D01*
X16543991Y-15856079D02*
X16534468Y-15837031D01*
X16534468Y-15837031D02*
X16524944Y-15808460D01*
X16524944Y-15808460D02*
X16515420Y-15760841D01*
X16515420Y-15760841D02*
X16515420Y-15722746D01*
X16515420Y-15722746D02*
X16524944Y-15675127D01*
X16524944Y-15675127D02*
X16534468Y-15646555D01*
X16534468Y-15646555D02*
X16543991Y-15627508D01*
X16543991Y-15627508D02*
X16563039Y-15598936D01*
X16563039Y-15598936D02*
X16572563Y-15589412D01*
X16734468Y-15684650D02*
X16734468Y-15817984D01*
X16686848Y-15608460D02*
X16639229Y-15751317D01*
X16639229Y-15751317D02*
X16763039Y-15751317D01*
X16991611Y-15817984D02*
X16991611Y-15617984D01*
X17077325Y-15817984D02*
X17077325Y-15713222D01*
X17077325Y-15713222D02*
X17067801Y-15694174D01*
X17067801Y-15694174D02*
X17048753Y-15684650D01*
X17048753Y-15684650D02*
X17020182Y-15684650D01*
X17020182Y-15684650D02*
X17001134Y-15694174D01*
X17001134Y-15694174D02*
X16991611Y-15703698D01*
X17201134Y-15817984D02*
X17182087Y-15808460D01*
X17182087Y-15808460D02*
X17172563Y-15798936D01*
X17172563Y-15798936D02*
X17163039Y-15779888D01*
X17163039Y-15779888D02*
X17163039Y-15722746D01*
X17163039Y-15722746D02*
X17172563Y-15703698D01*
X17172563Y-15703698D02*
X17182087Y-15694174D01*
X17182087Y-15694174D02*
X17201134Y-15684650D01*
X17201134Y-15684650D02*
X17229706Y-15684650D01*
X17229706Y-15684650D02*
X17248753Y-15694174D01*
X17248753Y-15694174D02*
X17258277Y-15703698D01*
X17258277Y-15703698D02*
X17267801Y-15722746D01*
X17267801Y-15722746D02*
X17267801Y-15779888D01*
X17267801Y-15779888D02*
X17258277Y-15798936D01*
X17258277Y-15798936D02*
X17248753Y-15808460D01*
X17248753Y-15808460D02*
X17229706Y-15817984D01*
X17229706Y-15817984D02*
X17201134Y-15817984D01*
X17382087Y-15817984D02*
X17363039Y-15808460D01*
X17363039Y-15808460D02*
X17353515Y-15789412D01*
X17353515Y-15789412D02*
X17353515Y-15617984D01*
X17534468Y-15808460D02*
X17515420Y-15817984D01*
X17515420Y-15817984D02*
X17477325Y-15817984D01*
X17477325Y-15817984D02*
X17458277Y-15808460D01*
X17458277Y-15808460D02*
X17448753Y-15789412D01*
X17448753Y-15789412D02*
X17448753Y-15713222D01*
X17448753Y-15713222D02*
X17458277Y-15694174D01*
X17458277Y-15694174D02*
X17477325Y-15684650D01*
X17477325Y-15684650D02*
X17515420Y-15684650D01*
X17515420Y-15684650D02*
X17534468Y-15694174D01*
X17534468Y-15694174D02*
X17543992Y-15713222D01*
X17543992Y-15713222D02*
X17543992Y-15732269D01*
X17543992Y-15732269D02*
X17448753Y-15751317D01*
X17620182Y-15808460D02*
X17639230Y-15817984D01*
X17639230Y-15817984D02*
X17677325Y-15817984D01*
X17677325Y-15817984D02*
X17696373Y-15808460D01*
X17696373Y-15808460D02*
X17705896Y-15789412D01*
X17705896Y-15789412D02*
X17705896Y-15779888D01*
X17705896Y-15779888D02*
X17696373Y-15760841D01*
X17696373Y-15760841D02*
X17677325Y-15751317D01*
X17677325Y-15751317D02*
X17648753Y-15751317D01*
X17648753Y-15751317D02*
X17629706Y-15741793D01*
X17629706Y-15741793D02*
X17620182Y-15722746D01*
X17620182Y-15722746D02*
X17620182Y-15713222D01*
X17620182Y-15713222D02*
X17629706Y-15694174D01*
X17629706Y-15694174D02*
X17648753Y-15684650D01*
X17648753Y-15684650D02*
X17677325Y-15684650D01*
X17677325Y-15684650D02*
X17696373Y-15694174D01*
X17772563Y-15894174D02*
X17782087Y-15884650D01*
X17782087Y-15884650D02*
X17801134Y-15856079D01*
X17801134Y-15856079D02*
X17810658Y-15837031D01*
X17810658Y-15837031D02*
X17820182Y-15808460D01*
X17820182Y-15808460D02*
X17829706Y-15760841D01*
X17829706Y-15760841D02*
X17829706Y-15722746D01*
X17829706Y-15722746D02*
X17820182Y-15675127D01*
X17820182Y-15675127D02*
X17810658Y-15646555D01*
X17810658Y-15646555D02*
X17801134Y-15627508D01*
X17801134Y-15627508D02*
X17782087Y-15598936D01*
X17782087Y-15598936D02*
X17772563Y-15589412D01*
M02*
