G04 #@! TF.GenerationSoftware,KiCad,Pcbnew,9.0.3*
G04 #@! TF.CreationDate,2025-07-18T23:55:16-07:00*
G04 #@! TF.ProjectId,kikard,6b696b61-7264-42e6-9b69-6361645f7063,rev?*
G04 #@! TF.SameCoordinates,Original*
G04 #@! TF.FileFunction,Soldermask,Top*
G04 #@! TF.FilePolarity,Negative*
%FSLAX46Y46*%
G04 Gerber Fmt 4.6, Leading zero omitted, Abs format (unit mm)*
G04 Created by KiCad (PCBNEW 9.0.3) date 2025-07-18 23:55:16*
%MOMM*%
%LPD*%
G01*
G04 APERTURE LIST*
G04 Aperture macros list*
%AMRoundRect*
0 Rectangle with rounded corners*
0 $1 Rounding radius*
0 $2 $3 $4 $5 $6 $7 $8 $9 X,Y pos of 4 corners*
0 Add a 4 corners polygon primitive as box body*
4,1,4,$2,$3,$4,$5,$6,$7,$8,$9,$2,$3,0*
0 Add four circle primitives for the rounded corners*
1,1,$1+$1,$2,$3*
1,1,$1+$1,$4,$5*
1,1,$1+$1,$6,$7*
1,1,$1+$1,$8,$9*
0 Add four rect primitives between the rounded corners*
20,1,$1+$1,$2,$3,$4,$5,0*
20,1,$1+$1,$4,$5,$6,$7,0*
20,1,$1+$1,$6,$7,$8,$9,0*
20,1,$1+$1,$8,$9,$2,$3,0*%
G04 Aperture macros list end*
%ADD10R,0.700000X0.900000*%
%ADD11R,0.540000X0.790000*%
%ADD12R,0.790000X0.540000*%
%ADD13R,0.900000X0.800000*%
%ADD14R,0.810000X0.860000*%
%ADD15R,0.490000X0.290000*%
%ADD16R,0.490000X0.430000*%
%ADD17C,5.000000*%
%ADD18R,1.100000X0.800000*%
%ADD19R,0.570000X0.540000*%
%ADD20RoundRect,0.058000X0.464000X0.174000X-0.464000X0.174000X-0.464000X-0.174000X0.464000X-0.174000X0*%
%ADD21RoundRect,0.058000X0.174000X0.464000X-0.174000X0.464000X-0.174000X-0.464000X0.174000X-0.464000X0*%
%ADD22RoundRect,0.102000X1.750000X1.750000X-1.750000X1.750000X-1.750000X-1.750000X1.750000X-1.750000X0*%
%ADD23R,0.860000X0.800000*%
%ADD24R,1.530000X1.360000*%
%ADD25C,0.400000*%
%ADD26R,1.200000X2.000000*%
%ADD27R,0.800000X1.000000*%
%ADD28R,0.850000X0.700000*%
%ADD29C,0.650000*%
%ADD30O,1.000000X2.100000*%
%ADD31O,1.000000X1.800000*%
%ADD32R,0.600000X1.150000*%
%ADD33R,0.300000X1.150000*%
%ADD34RoundRect,0.102000X-2.425000X-2.425000X2.425000X-2.425000X2.425000X2.425000X-2.425000X2.425000X0*%
%ADD35C,0.479000*%
%ADD36C,0.500000*%
%ADD37C,0.250000*%
G04 APERTURE END LIST*
D10*
X157400000Y-130730000D03*
X156500000Y-130730000D03*
X157400000Y-129430000D03*
X156500000Y-129430000D03*
X143450000Y-130650000D03*
X142550000Y-130650000D03*
X143450000Y-129350000D03*
X142550000Y-129350000D03*
D11*
X150500000Y-119500000D03*
X150500000Y-118400000D03*
D12*
X141900000Y-102500000D03*
X143000000Y-102500000D03*
D13*
X147500000Y-118600000D03*
X147500000Y-120000000D03*
D12*
X133500000Y-102780000D03*
X134600000Y-102780000D03*
D14*
X139000000Y-108500000D03*
X140500000Y-108500000D03*
D13*
X159000000Y-97100000D03*
X159000000Y-98500000D03*
D15*
X137500000Y-108300000D03*
X137500000Y-107500000D03*
D16*
X136440000Y-107900000D03*
D12*
X138900000Y-96750000D03*
X140000000Y-96750000D03*
X144900000Y-107000000D03*
X146000000Y-107000000D03*
D11*
X156500000Y-104000000D03*
X156500000Y-102900000D03*
X141000000Y-111900000D03*
X141000000Y-113000000D03*
D17*
X167000000Y-132000000D03*
D11*
X147000000Y-94900000D03*
X147000000Y-96000000D03*
D18*
X156900000Y-108010000D03*
X158500000Y-108000000D03*
X158500000Y-106850000D03*
X156900000Y-106860000D03*
D12*
X134600000Y-101280000D03*
X133500000Y-101280000D03*
D19*
X156140000Y-124500000D03*
X157000000Y-124500000D03*
D12*
X146000000Y-105500000D03*
X144900000Y-105500000D03*
X144000000Y-124500000D03*
X142900000Y-124500000D03*
D20*
X151185000Y-102185000D03*
X151185000Y-101685000D03*
X151185000Y-101185000D03*
X151185000Y-100685000D03*
X151185000Y-100185000D03*
X151185000Y-99685000D03*
X151185000Y-99185000D03*
X151185000Y-98685000D03*
D21*
X150500000Y-98000000D03*
X150000000Y-98000000D03*
X149500000Y-98000000D03*
X149000000Y-98000000D03*
X148500000Y-98000000D03*
X148000000Y-98000000D03*
X147500000Y-98000000D03*
X147000000Y-98000000D03*
D20*
X146315000Y-98685000D03*
X146315000Y-99185000D03*
X146315000Y-99685000D03*
X146315000Y-100185000D03*
X146315000Y-100685000D03*
X146315000Y-101185000D03*
X146315000Y-101685000D03*
X146315000Y-102185000D03*
D21*
X147000000Y-102870000D03*
X147500000Y-102870000D03*
X148000000Y-102870000D03*
X148500000Y-102870000D03*
X149000000Y-102870000D03*
X149500000Y-102870000D03*
X150000000Y-102870000D03*
X150500000Y-102870000D03*
D22*
X148750000Y-100435000D03*
D11*
X157500000Y-97400000D03*
X157500000Y-98500000D03*
X149950000Y-94900000D03*
X149950000Y-96000000D03*
D23*
X142500000Y-114500000D03*
X142500000Y-113100000D03*
D11*
X139500000Y-111900000D03*
X139500000Y-113000000D03*
D12*
X134600000Y-92280000D03*
X133500000Y-92280000D03*
X144000000Y-126000000D03*
X142900000Y-126000000D03*
X156500000Y-117000000D03*
X155400000Y-117000000D03*
X136000000Y-99780000D03*
X137100000Y-99780000D03*
D24*
X159460000Y-129000000D03*
X163540000Y-129000000D03*
D12*
X153000000Y-107000000D03*
X151900000Y-107000000D03*
D25*
X137700000Y-90800000D03*
X144700000Y-84800000D03*
D11*
X153500000Y-97400000D03*
X153500000Y-98500000D03*
D17*
X133000000Y-68000000D03*
D26*
X164550000Y-114600000D03*
X164550000Y-106000000D03*
X168450000Y-114600000D03*
X168450000Y-106000000D03*
D19*
X152000000Y-125000000D03*
X152860000Y-125000000D03*
D11*
X156500000Y-93900000D03*
X156500000Y-95000000D03*
D27*
X142100000Y-122500000D03*
X140900000Y-122500000D03*
D26*
X164550000Y-125600000D03*
X164550000Y-117000000D03*
X168450000Y-125600000D03*
X168450000Y-117000000D03*
D23*
X144000000Y-113100000D03*
X144000000Y-114500000D03*
D19*
X147860000Y-125000000D03*
X147000000Y-125000000D03*
D13*
X158000000Y-93600000D03*
X158000000Y-95000000D03*
D28*
X160200000Y-102400000D03*
X161500000Y-102400000D03*
X161500000Y-101500000D03*
X160200000Y-101500000D03*
D29*
X147110000Y-128615000D03*
X152890000Y-128615000D03*
D30*
X145680000Y-128115000D03*
X154320000Y-128115000D03*
D31*
X145680000Y-132265000D03*
X154320000Y-132265000D03*
D32*
X146800000Y-127545000D03*
X147600000Y-127545000D03*
D33*
X148750000Y-127545000D03*
X149750000Y-127545000D03*
X150250000Y-127545000D03*
X151250000Y-127545000D03*
D32*
X153200000Y-127545000D03*
X152400000Y-127545000D03*
D33*
X151750000Y-127545000D03*
X150750000Y-127545000D03*
X149250000Y-127545000D03*
X148250000Y-127545000D03*
D12*
X138900000Y-98250000D03*
X140000000Y-98250000D03*
D13*
X143500000Y-108600000D03*
X143500000Y-110000000D03*
D11*
X142000000Y-117400000D03*
X142000000Y-118500000D03*
X162000000Y-95900000D03*
X162000000Y-97000000D03*
D17*
X167000000Y-68000000D03*
D12*
X136000000Y-98250000D03*
X137100000Y-98250000D03*
X159450000Y-124500000D03*
X160550000Y-124500000D03*
D26*
X164550000Y-103600000D03*
X164550000Y-95000000D03*
X168450000Y-103600000D03*
X168450000Y-95000000D03*
D15*
X137500000Y-106300000D03*
X137500000Y-105500000D03*
D16*
X136440000Y-105900000D03*
D12*
X133900000Y-108000000D03*
X135000000Y-108000000D03*
D13*
X148500000Y-94600000D03*
X148500000Y-96000000D03*
D11*
X152000000Y-119500000D03*
X152000000Y-118400000D03*
D13*
X143500000Y-120000000D03*
X143500000Y-118600000D03*
D12*
X141900000Y-104000000D03*
X143000000Y-104000000D03*
D13*
X158000000Y-104000000D03*
X158000000Y-102600000D03*
D14*
X136500000Y-103000000D03*
X138000000Y-103000000D03*
D11*
X131600000Y-95230000D03*
X131600000Y-96330000D03*
D13*
X155000000Y-97100000D03*
X155000000Y-98500000D03*
D12*
X138020000Y-129000000D03*
X139120000Y-129000000D03*
D11*
X131600000Y-98680000D03*
X131600000Y-99780000D03*
D12*
X133900000Y-106000000D03*
X135000000Y-106000000D03*
X134600000Y-93780000D03*
X133500000Y-93780000D03*
D11*
X153500000Y-104000000D03*
X153500000Y-102900000D03*
D13*
X155000000Y-104000000D03*
X155000000Y-102600000D03*
X145500000Y-120000000D03*
X145500000Y-118600000D03*
D11*
X161500000Y-106500000D03*
X161500000Y-105400000D03*
D13*
X151500000Y-94600000D03*
X151500000Y-96000000D03*
D12*
X137100000Y-96750000D03*
X136000000Y-96750000D03*
D11*
X158000000Y-110450000D03*
X158000000Y-111550000D03*
D12*
X136000000Y-95280000D03*
X137100000Y-95280000D03*
D34*
X149700000Y-112600000D03*
D35*
X148450000Y-109350000D03*
X148950000Y-109350000D03*
X149450000Y-109350000D03*
X149950000Y-109350000D03*
X150450000Y-109350000D03*
X150950000Y-109350000D03*
X151450000Y-109350000D03*
X151950000Y-109350000D03*
X152450000Y-109350000D03*
X152950000Y-114850000D03*
X146950000Y-115100000D03*
X147700000Y-115350000D03*
X148700000Y-115350000D03*
X149200000Y-115350000D03*
X149700000Y-115350000D03*
X150200000Y-115350000D03*
X150700000Y-115350000D03*
X151200000Y-115350000D03*
X151700000Y-115350000D03*
X152950000Y-115350000D03*
X146950000Y-115850000D03*
X147450000Y-115850000D03*
X147950000Y-115850000D03*
X148450000Y-115850000D03*
X148950000Y-115850000D03*
X149450000Y-115850000D03*
X149950000Y-115850000D03*
X150450000Y-115850000D03*
X150950000Y-115850000D03*
X151450000Y-115850000D03*
X151950000Y-115850000D03*
X152450000Y-115850000D03*
X146450000Y-109850000D03*
X147200000Y-109850000D03*
X147700000Y-109850000D03*
X148200000Y-109850000D03*
X148700000Y-109850000D03*
X149200000Y-109850000D03*
X149700000Y-109850000D03*
X150200000Y-109850000D03*
X150700000Y-109850000D03*
X151200000Y-109850000D03*
X152950000Y-109850000D03*
X146450000Y-110350000D03*
X146950000Y-110600000D03*
X152450000Y-110600000D03*
X152950000Y-110850000D03*
X146950000Y-111100000D03*
X152450000Y-111100000D03*
X146450000Y-111350000D03*
X146950000Y-111600000D03*
X152450000Y-111600000D03*
X146450000Y-111850000D03*
X152950000Y-111850000D03*
X146950000Y-112100000D03*
X146450000Y-112350000D03*
X152950000Y-112350000D03*
X146950000Y-112600000D03*
X146450000Y-112850000D03*
X152950000Y-112850000D03*
X146950000Y-113100000D03*
X152450000Y-113100000D03*
X146450000Y-113350000D03*
X152950000Y-113350000D03*
X146950000Y-113600000D03*
X152450000Y-113600000D03*
X146450000Y-113850000D03*
X152950000Y-113850000D03*
X152450000Y-114100000D03*
X146450000Y-114350000D03*
X152950000Y-114350000D03*
X146950000Y-114600000D03*
X152450000Y-114600000D03*
D17*
X133000000Y-132000000D03*
D36*
X161500000Y-101500000D03*
X160200000Y-102400000D03*
D37*
X148200000Y-109850000D03*
X147700000Y-115350000D03*
X146950000Y-111100000D03*
X152450000Y-110600000D03*
X146450000Y-110350000D03*
X152450000Y-111600000D03*
X149700000Y-115350000D03*
X148450000Y-115850000D03*
X146450000Y-112850000D03*
X152450000Y-113600000D03*
X152450000Y-113100000D03*
X151700000Y-115350000D03*
X150700000Y-115350000D03*
X149200000Y-115350000D03*
X148700000Y-115350000D03*
X151200000Y-115350000D03*
M02*
