%TF.GenerationSoftware,KiCad,Pcbnew,9.0.3*%
%TF.CreationDate,2025-07-24T21:08:32-07:00*%
%TF.ProjectId,kikard,6b696b61-7264-42e6-9b69-6361645f7063,rev?*%
%TF.SameCoordinates,Original*%
%TF.FileFunction,Drillmap*%
%TF.FilePolarity,Positive*%
%FSLAX45Y45*%
G04 Gerber Fmt 4.5, Leading zero omitted, Abs format (unit mm)*
G04 Created by KiCad (PCBNEW 9.0.3) date 2025-07-24 21:08:32*
%MOMM*%
%LPD*%
G01*
G04 APERTURE LIST*
%ADD10C,0.050000*%
%ADD11C,0.200000*%
G04 APERTURE END LIST*
D10*
X13000000Y-6500000D02*
X17000000Y-6500000D01*
X17000000Y-13500000D01*
X13000000Y-13500000D01*
X13000000Y-6500000D01*
D11*
X13258277Y-13813984D02*
X13258277Y-13613984D01*
X13258277Y-13613984D02*
X13305896Y-13613984D01*
X13305896Y-13613984D02*
X13334467Y-13623508D01*
X13334467Y-13623508D02*
X13353515Y-13642555D01*
X13353515Y-13642555D02*
X13363039Y-13661603D01*
X13363039Y-13661603D02*
X13372562Y-13699698D01*
X13372562Y-13699698D02*
X13372562Y-13728269D01*
X13372562Y-13728269D02*
X13363039Y-13766365D01*
X13363039Y-13766365D02*
X13353515Y-13785412D01*
X13353515Y-13785412D02*
X13334467Y-13804460D01*
X13334467Y-13804460D02*
X13305896Y-13813984D01*
X13305896Y-13813984D02*
X13258277Y-13813984D01*
X13458277Y-13813984D02*
X13458277Y-13680650D01*
X13458277Y-13718746D02*
X13467801Y-13699698D01*
X13467801Y-13699698D02*
X13477324Y-13690174D01*
X13477324Y-13690174D02*
X13496372Y-13680650D01*
X13496372Y-13680650D02*
X13515420Y-13680650D01*
X13582086Y-13813984D02*
X13582086Y-13680650D01*
X13582086Y-13613984D02*
X13572562Y-13623508D01*
X13572562Y-13623508D02*
X13582086Y-13633031D01*
X13582086Y-13633031D02*
X13591610Y-13623508D01*
X13591610Y-13623508D02*
X13582086Y-13613984D01*
X13582086Y-13613984D02*
X13582086Y-13633031D01*
X13705896Y-13813984D02*
X13686848Y-13804460D01*
X13686848Y-13804460D02*
X13677324Y-13785412D01*
X13677324Y-13785412D02*
X13677324Y-13613984D01*
X13810658Y-13813984D02*
X13791610Y-13804460D01*
X13791610Y-13804460D02*
X13782086Y-13785412D01*
X13782086Y-13785412D02*
X13782086Y-13613984D01*
X14039229Y-13813984D02*
X14039229Y-13613984D01*
X14039229Y-13613984D02*
X14105896Y-13756841D01*
X14105896Y-13756841D02*
X14172562Y-13613984D01*
X14172562Y-13613984D02*
X14172562Y-13813984D01*
X14353515Y-13813984D02*
X14353515Y-13709222D01*
X14353515Y-13709222D02*
X14343991Y-13690174D01*
X14343991Y-13690174D02*
X14324943Y-13680650D01*
X14324943Y-13680650D02*
X14286848Y-13680650D01*
X14286848Y-13680650D02*
X14267801Y-13690174D01*
X14353515Y-13804460D02*
X14334467Y-13813984D01*
X14334467Y-13813984D02*
X14286848Y-13813984D01*
X14286848Y-13813984D02*
X14267801Y-13804460D01*
X14267801Y-13804460D02*
X14258277Y-13785412D01*
X14258277Y-13785412D02*
X14258277Y-13766365D01*
X14258277Y-13766365D02*
X14267801Y-13747317D01*
X14267801Y-13747317D02*
X14286848Y-13737793D01*
X14286848Y-13737793D02*
X14334467Y-13737793D01*
X14334467Y-13737793D02*
X14353515Y-13728269D01*
X14448753Y-13680650D02*
X14448753Y-13880650D01*
X14448753Y-13690174D02*
X14467801Y-13680650D01*
X14467801Y-13680650D02*
X14505896Y-13680650D01*
X14505896Y-13680650D02*
X14524943Y-13690174D01*
X14524943Y-13690174D02*
X14534467Y-13699698D01*
X14534467Y-13699698D02*
X14543991Y-13718746D01*
X14543991Y-13718746D02*
X14543991Y-13775888D01*
X14543991Y-13775888D02*
X14534467Y-13794936D01*
X14534467Y-13794936D02*
X14524943Y-13804460D01*
X14524943Y-13804460D02*
X14505896Y-13813984D01*
X14505896Y-13813984D02*
X14467801Y-13813984D01*
X14467801Y-13813984D02*
X14448753Y-13804460D01*
X14629705Y-13794936D02*
X14639229Y-13804460D01*
X14639229Y-13804460D02*
X14629705Y-13813984D01*
X14629705Y-13813984D02*
X14620182Y-13804460D01*
X14620182Y-13804460D02*
X14629705Y-13794936D01*
X14629705Y-13794936D02*
X14629705Y-13813984D01*
X14629705Y-13690174D02*
X14639229Y-13699698D01*
X14639229Y-13699698D02*
X14629705Y-13709222D01*
X14629705Y-13709222D02*
X14620182Y-13699698D01*
X14620182Y-13699698D02*
X14629705Y-13690174D01*
X14629705Y-13690174D02*
X14629705Y-13709222D01*
M02*
