G04 #@! TF.GenerationSoftware,KiCad,Pcbnew,9.0.3*
G04 #@! TF.CreationDate,2025-07-18T23:55:15-07:00*
G04 #@! TF.ProjectId,kikard,6b696b61-7264-42e6-9b69-6361645f7063,rev?*
G04 #@! TF.SameCoordinates,Original*
G04 #@! TF.FileFunction,Copper,L1,Top*
G04 #@! TF.FilePolarity,Positive*
%FSLAX46Y46*%
G04 Gerber Fmt 4.6, Leading zero omitted, Abs format (unit mm)*
G04 Created by KiCad (PCBNEW 9.0.3) date 2025-07-18 23:55:15*
%MOMM*%
%LPD*%
G01*
G04 APERTURE LIST*
G04 Aperture macros list*
%AMRoundRect*
0 Rectangle with rounded corners*
0 $1 Rounding radius*
0 $2 $3 $4 $5 $6 $7 $8 $9 X,Y pos of 4 corners*
0 Add a 4 corners polygon primitive as box body*
4,1,4,$2,$3,$4,$5,$6,$7,$8,$9,$2,$3,0*
0 Add four circle primitives for the rounded corners*
1,1,$1+$1,$2,$3*
1,1,$1+$1,$4,$5*
1,1,$1+$1,$6,$7*
1,1,$1+$1,$8,$9*
0 Add four rect primitives between the rounded corners*
20,1,$1+$1,$2,$3,$4,$5,0*
20,1,$1+$1,$4,$5,$6,$7,0*
20,1,$1+$1,$6,$7,$8,$9,0*
20,1,$1+$1,$8,$9,$2,$3,0*%
%AMFreePoly0*
4,1,203,24.639018,24.796157,24.711114,24.766294,24.766294,24.711114,24.796157,24.639018,24.800000,24.600000,24.800000,0.000000,24.796157,-0.039018,24.766294,-0.111114,24.711114,-0.166294,24.639018,-0.196157,24.600000,-0.200000,1.000000,-0.200000,0.960982,-0.196157,0.888886,-0.166294,0.833706,-0.111114,0.803843,-0.039018,0.800000,0.000000,0.800000,23.600000,0.803843,23.639018,0.833706,23.711114,
0.888886,23.766294,0.960982,23.796157,1.000000,23.800000,23.600000,23.800000,23.639018,23.796157,23.711114,23.766294,23.766294,23.711114,23.796157,23.639018,23.800000,23.600000,23.800000,1.000000,23.796157,0.960982,23.766294,0.888886,23.711114,0.833706,23.639018,0.803843,23.600000,0.800000,2.000000,0.800000,1.960982,0.803843,1.888886,0.833706,1.833706,0.888886,1.803843,0.960982,
1.800000,1.000000,1.800000,22.600000,1.803843,22.639018,1.833706,22.711114,1.888886,22.766294,1.960982,22.796157,2.000000,22.800000,22.600000,22.800000,22.639018,22.796157,22.711114,22.766294,22.766294,22.711114,22.796157,22.639018,22.800000,22.600000,22.800000,2.000000,22.796157,1.960982,22.766294,1.888886,22.711114,1.833706,22.639018,1.803843,22.600000,1.800000,3.000000,1.800000,
2.960982,1.803843,2.888886,1.833706,2.833706,1.888886,2.803843,1.960982,2.800000,2.000000,2.800000,21.600000,2.803843,21.639018,2.833706,21.711114,2.888886,21.766294,2.960982,21.796157,3.000000,21.800000,21.600000,21.800000,21.639018,21.796157,21.711114,21.766294,21.766294,21.711114,21.796157,21.639018,21.800000,21.600000,21.800000,3.000000,21.796157,2.960982,21.766294,2.888886,
21.711114,2.833706,21.639018,2.803843,21.600000,2.800000,4.000000,2.800000,3.960982,2.803843,3.888886,2.833706,3.833706,2.888886,3.803843,2.960982,3.800000,3.000000,3.800000,20.600000,3.803843,20.639018,3.833706,20.711114,3.888886,20.766294,3.960982,20.796157,4.000000,20.800000,20.600000,20.800000,20.639018,20.796157,20.711114,20.766294,20.766294,20.711114,20.796157,20.639018,
20.800000,20.600000,20.800000,4.000000,20.796157,3.960982,20.766294,3.888886,20.711114,3.833706,20.639018,3.803843,20.600000,3.800000,5.000000,3.800000,4.960982,3.803843,4.888886,3.833706,4.833706,3.888886,4.803843,3.960982,4.800000,4.000000,4.800000,19.600000,4.803843,19.639018,4.833706,19.711114,4.888886,19.766294,4.960982,19.796157,5.000000,19.800000,19.600000,19.800000,
19.639018,19.796157,19.711114,19.766294,19.766294,19.711114,19.796157,19.639018,19.800000,19.600000,19.800000,5.000000,19.796157,4.960982,19.766294,4.888886,19.711114,4.833706,19.639018,4.803843,19.600000,4.800000,6.000000,4.800000,5.960982,4.803843,5.888886,4.833706,5.833706,4.888886,5.803843,4.960982,5.800000,5.000000,5.800000,18.600000,5.803843,18.639018,5.833706,18.711114,
5.888886,18.766294,5.960982,18.796157,6.000000,18.800000,18.600000,18.800000,18.639018,18.796157,18.711114,18.766294,18.766294,18.711114,18.796157,18.639018,18.800000,18.600000,18.800000,6.000000,18.796157,5.960982,18.766294,5.888886,18.711114,5.833706,18.639018,5.803843,18.560982,5.803843,18.488886,5.833706,18.433706,5.888886,18.403843,5.960982,18.400000,6.000000,18.400000,18.400000,
6.200000,18.400000,6.200000,5.200000,19.400000,5.200000,19.400000,19.400000,5.200000,19.400000,5.200000,4.200000,20.400000,4.200000,20.400000,20.400000,4.200000,20.400000,4.200000,3.200000,21.400000,3.200000,21.400000,21.400000,3.200000,21.400000,3.200000,2.200000,22.400000,2.200000,22.400000,22.400000,2.200000,22.400000,2.200000,1.200000,23.400000,1.200000,23.400000,23.400000,
1.200000,23.400000,1.200000,0.200000,24.400000,0.200000,24.400000,24.400000,0.200000,24.400000,0.200000,0.000000,0.196157,-0.039018,0.166294,-0.111114,0.111114,-0.166294,0.039018,-0.196157,-0.039018,-0.196157,-0.111114,-0.166294,-0.166294,-0.111114,-0.196157,-0.039018,-0.200000,0.000000,-0.200000,24.600000,-0.196157,24.639018,-0.166294,24.711114,-0.111114,24.766294,-0.039018,24.796157,
0.000000,24.800000,24.600000,24.800000,24.639018,24.796157,24.639018,24.796157,$1*%
%AMFreePoly1*
4,1,21,11.639018,0.196157,11.711114,0.166294,11.766294,0.111114,11.796157,0.039018,11.796157,-0.039018,11.766294,-0.111114,11.711114,-0.166294,11.639018,-0.196157,11.600000,-0.200000,0.000000,-0.200000,-0.039018,-0.196157,-0.111114,-0.166294,-0.166294,-0.111114,-0.196157,-0.039018,-0.196157,0.039018,-0.166294,0.111114,-0.111114,0.166294,-0.039018,0.196157,0.000000,0.200000,11.600000,0.200000,
11.639018,0.196157,11.639018,0.196157,$1*%
G04 Aperture macros list end*
G04 #@! TA.AperFunction,EtchedComponent*
%ADD10C,0.000000*%
G04 #@! TD*
G04 #@! TA.AperFunction,SMDPad,CuDef*
%ADD11R,0.700000X0.900000*%
G04 #@! TD*
G04 #@! TA.AperFunction,SMDPad,CuDef*
%ADD12R,0.540000X0.790000*%
G04 #@! TD*
G04 #@! TA.AperFunction,SMDPad,CuDef*
%ADD13R,0.790000X0.540000*%
G04 #@! TD*
G04 #@! TA.AperFunction,SMDPad,CuDef*
%ADD14R,0.900000X0.800000*%
G04 #@! TD*
G04 #@! TA.AperFunction,SMDPad,CuDef*
%ADD15R,0.810000X0.860000*%
G04 #@! TD*
G04 #@! TA.AperFunction,SMDPad,CuDef*
%ADD16R,0.490000X0.290000*%
G04 #@! TD*
G04 #@! TA.AperFunction,SMDPad,CuDef*
%ADD17R,0.490000X0.430000*%
G04 #@! TD*
G04 #@! TA.AperFunction,ComponentPad*
%ADD18C,5.000000*%
G04 #@! TD*
G04 #@! TA.AperFunction,SMDPad,CuDef*
%ADD19R,1.100000X0.800000*%
G04 #@! TD*
G04 #@! TA.AperFunction,SMDPad,CuDef*
%ADD20R,0.570000X0.540000*%
G04 #@! TD*
G04 #@! TA.AperFunction,SMDPad,CuDef*
%ADD21RoundRect,0.032500X0.387500X0.097500X-0.387500X0.097500X-0.387500X-0.097500X0.387500X-0.097500X0*%
G04 #@! TD*
G04 #@! TA.AperFunction,SMDPad,CuDef*
%ADD22RoundRect,0.032500X0.097500X0.387500X-0.097500X0.387500X-0.097500X-0.387500X0.097500X-0.387500X0*%
G04 #@! TD*
G04 #@! TA.AperFunction,SMDPad,CuDef*
%ADD23R,3.500000X3.500000*%
G04 #@! TD*
G04 #@! TA.AperFunction,SMDPad,CuDef*
%ADD24R,0.860000X0.800000*%
G04 #@! TD*
G04 #@! TA.AperFunction,SMDPad,CuDef*
%ADD25R,1.530000X1.360000*%
G04 #@! TD*
G04 #@! TA.AperFunction,ComponentPad*
%ADD26C,0.400000*%
G04 #@! TD*
G04 #@! TA.AperFunction,SMDPad,CuDef*
%ADD27FreePoly0,0.000000*%
G04 #@! TD*
G04 #@! TA.AperFunction,SMDPad,CuDef*
%ADD28FreePoly1,0.000000*%
G04 #@! TD*
G04 #@! TA.AperFunction,SMDPad,CuDef*
%ADD29R,1.200000X2.000000*%
G04 #@! TD*
G04 #@! TA.AperFunction,SMDPad,CuDef*
%ADD30R,0.800000X1.000000*%
G04 #@! TD*
G04 #@! TA.AperFunction,SMDPad,CuDef*
%ADD31R,0.850000X0.700000*%
G04 #@! TD*
G04 #@! TA.AperFunction,ComponentPad*
%ADD32C,0.650000*%
G04 #@! TD*
G04 #@! TA.AperFunction,ComponentPad*
%ADD33O,1.000000X2.100000*%
G04 #@! TD*
G04 #@! TA.AperFunction,ComponentPad*
%ADD34O,1.000000X1.800000*%
G04 #@! TD*
G04 #@! TA.AperFunction,SMDPad,CuDef*
%ADD35R,0.600000X1.150000*%
G04 #@! TD*
G04 #@! TA.AperFunction,SMDPad,CuDef*
%ADD36R,0.300000X1.150000*%
G04 #@! TD*
G04 #@! TA.AperFunction,ConnectorPad*
%ADD37R,0.500000X0.500000*%
G04 #@! TD*
G04 #@! TA.AperFunction,ComponentPad*
%ADD38R,0.500000X0.900000*%
G04 #@! TD*
G04 #@! TA.AperFunction,SMDPad,CuDef*
%ADD39R,4.850000X4.850000*%
G04 #@! TD*
G04 #@! TA.AperFunction,SMDPad,CuDef*
%ADD40C,0.275000*%
G04 #@! TD*
G04 #@! TA.AperFunction,ViaPad*
%ADD41C,0.500000*%
G04 #@! TD*
G04 #@! TA.AperFunction,ViaPad*
%ADD42C,0.600000*%
G04 #@! TD*
G04 #@! TA.AperFunction,ViaPad*
%ADD43C,0.250000*%
G04 #@! TD*
G04 #@! TA.AperFunction,Conductor*
%ADD44C,0.200000*%
G04 #@! TD*
G04 APERTURE END LIST*
D10*
G04 #@! TA.AperFunction,EtchedComponent*
G36*
X134915000Y-113700000D02*
G01*
X130975000Y-113700000D01*
X130975000Y-115400000D01*
X133615000Y-115400000D01*
X133615000Y-118400000D01*
X130975000Y-118400000D01*
X130975000Y-120100000D01*
X133615000Y-120100000D01*
X133615000Y-123100000D01*
X130975000Y-123100000D01*
X130975000Y-124800000D01*
X135875000Y-124800000D01*
X135875000Y-125300000D01*
X130975000Y-125300000D01*
X130975000Y-126700000D01*
X135875000Y-126700000D01*
X135875000Y-127600000D01*
X135631785Y-127600000D01*
X130475000Y-127600000D01*
X130475000Y-127157267D01*
X135477018Y-127157267D01*
X135484908Y-127205353D01*
X135501814Y-127238245D01*
X135538584Y-127273185D01*
X135583378Y-127292847D01*
X135631785Y-127297583D01*
X135679395Y-127287742D01*
X135721797Y-127263674D01*
X135754581Y-127225731D01*
X135758935Y-127217819D01*
X135771043Y-127175156D01*
X135770300Y-127126637D01*
X135757400Y-127081122D01*
X135746787Y-127062511D01*
X135711553Y-127028868D01*
X135666368Y-127008309D01*
X135616842Y-127001778D01*
X135568583Y-127010218D01*
X135536357Y-127027112D01*
X135503687Y-127062372D01*
X135483592Y-127107682D01*
X135477018Y-127157267D01*
X130475000Y-127157267D01*
X130475000Y-122600000D01*
X133115000Y-122600000D01*
X133115000Y-120600000D01*
X130475000Y-120600000D01*
X130475000Y-117900000D01*
X133115000Y-117900000D01*
X133115000Y-115900000D01*
X130475000Y-115900000D01*
X130475000Y-113200000D01*
X134915000Y-113200000D01*
X134915000Y-113700000D01*
G37*
G04 #@! TD.AperFunction*
D11*
X157400000Y-130730000D03*
X156500000Y-130730000D03*
X157400000Y-129430000D03*
X156500000Y-129430000D03*
X143450000Y-130650000D03*
X142550000Y-130650000D03*
X143450000Y-129350000D03*
X142550000Y-129350000D03*
D12*
X150500000Y-119500000D03*
X150500000Y-118400000D03*
D13*
X141900000Y-102500000D03*
X143000000Y-102500000D03*
D14*
X147500000Y-118600000D03*
X147500000Y-120000000D03*
D13*
X133500000Y-102780000D03*
X134600000Y-102780000D03*
D15*
X139000000Y-108500000D03*
X140500000Y-108500000D03*
D14*
X159000000Y-97100000D03*
X159000000Y-98500000D03*
D16*
X137500000Y-108300000D03*
X137500000Y-107500000D03*
D17*
X136440000Y-107900000D03*
D13*
X138900000Y-96750000D03*
X140000000Y-96750000D03*
X144900000Y-107000000D03*
X146000000Y-107000000D03*
D12*
X156500000Y-104000000D03*
X156500000Y-102900000D03*
X141000000Y-111900000D03*
X141000000Y-113000000D03*
D18*
X167000000Y-132000000D03*
D12*
X147000000Y-94900000D03*
X147000000Y-96000000D03*
D19*
X156900000Y-108010000D03*
X158500000Y-108000000D03*
X158500000Y-106850000D03*
X156900000Y-106860000D03*
D13*
X134600000Y-101280000D03*
X133500000Y-101280000D03*
D20*
X156140000Y-124500000D03*
X157000000Y-124500000D03*
D13*
X146000000Y-105500000D03*
X144900000Y-105500000D03*
X144000000Y-124500000D03*
X142900000Y-124500000D03*
D21*
X151185000Y-102185000D03*
X151185000Y-101685000D03*
X151185000Y-101185000D03*
X151185000Y-100685000D03*
X151185000Y-100185000D03*
X151185000Y-99685000D03*
X151185000Y-99185000D03*
X151185000Y-98685000D03*
D22*
X150500000Y-98000000D03*
X150000000Y-98000000D03*
X149500000Y-98000000D03*
X149000000Y-98000000D03*
X148500000Y-98000000D03*
X148000000Y-98000000D03*
X147500000Y-98000000D03*
X147000000Y-98000000D03*
D21*
X146315000Y-98685000D03*
X146315000Y-99185000D03*
X146315000Y-99685000D03*
X146315000Y-100185000D03*
X146315000Y-100685000D03*
X146315000Y-101185000D03*
X146315000Y-101685000D03*
X146315000Y-102185000D03*
D22*
X147000000Y-102870000D03*
X147500000Y-102870000D03*
X148000000Y-102870000D03*
X148500000Y-102870000D03*
X149000000Y-102870000D03*
X149500000Y-102870000D03*
X150000000Y-102870000D03*
X150500000Y-102870000D03*
D23*
X148750000Y-100435000D03*
D12*
X157500000Y-97400000D03*
X157500000Y-98500000D03*
X149950000Y-94900000D03*
X149950000Y-96000000D03*
D24*
X142500000Y-114500000D03*
X142500000Y-113100000D03*
D12*
X139500000Y-111900000D03*
X139500000Y-113000000D03*
D13*
X134600000Y-92280000D03*
X133500000Y-92280000D03*
X144000000Y-126000000D03*
X142900000Y-126000000D03*
X156500000Y-117000000D03*
X155400000Y-117000000D03*
X136000000Y-99780000D03*
X137100000Y-99780000D03*
D25*
X159460000Y-129000000D03*
X163540000Y-129000000D03*
D13*
X153000000Y-107000000D03*
X151900000Y-107000000D03*
D26*
X137700000Y-90800000D03*
D27*
X137700000Y-90800000D03*
D26*
X144700000Y-84800000D03*
D28*
X144700000Y-84800000D03*
D12*
X153500000Y-97400000D03*
X153500000Y-98500000D03*
D18*
X133000000Y-68000000D03*
D29*
X164550000Y-114600000D03*
X164550000Y-106000000D03*
X168450000Y-114600000D03*
X168450000Y-106000000D03*
D20*
X152000000Y-125000000D03*
X152860000Y-125000000D03*
D12*
X156500000Y-93900000D03*
X156500000Y-95000000D03*
D30*
X142100000Y-122500000D03*
X140900000Y-122500000D03*
D29*
X164550000Y-125600000D03*
X164550000Y-117000000D03*
X168450000Y-125600000D03*
X168450000Y-117000000D03*
D24*
X144000000Y-113100000D03*
X144000000Y-114500000D03*
D20*
X147860000Y-125000000D03*
X147000000Y-125000000D03*
D14*
X158000000Y-93600000D03*
X158000000Y-95000000D03*
D31*
X160200000Y-102400000D03*
X161500000Y-102400000D03*
X161500000Y-101500000D03*
X160200000Y-101500000D03*
D32*
X147110000Y-128615000D03*
X152890000Y-128615000D03*
D33*
X145680000Y-128115000D03*
X154320000Y-128115000D03*
D34*
X145680000Y-132265000D03*
X154320000Y-132265000D03*
D35*
X146800000Y-127545000D03*
X147600000Y-127545000D03*
D36*
X148750000Y-127545000D03*
X149750000Y-127545000D03*
X150250000Y-127545000D03*
X151250000Y-127545000D03*
D35*
X153200000Y-127545000D03*
X152400000Y-127545000D03*
D36*
X151750000Y-127545000D03*
X150750000Y-127545000D03*
X149250000Y-127545000D03*
X148250000Y-127545000D03*
D13*
X138900000Y-98250000D03*
X140000000Y-98250000D03*
D14*
X143500000Y-108600000D03*
X143500000Y-110000000D03*
D12*
X142000000Y-117400000D03*
X142000000Y-118500000D03*
X162000000Y-95900000D03*
X162000000Y-97000000D03*
D18*
X167000000Y-68000000D03*
D13*
X136000000Y-98250000D03*
X137100000Y-98250000D03*
X159450000Y-124500000D03*
X160550000Y-124500000D03*
D29*
X164550000Y-103600000D03*
X164550000Y-95000000D03*
X168450000Y-103600000D03*
X168450000Y-95000000D03*
D16*
X137500000Y-106300000D03*
X137500000Y-105500000D03*
D17*
X136440000Y-105900000D03*
D13*
X133900000Y-108000000D03*
X135000000Y-108000000D03*
D14*
X148500000Y-94600000D03*
X148500000Y-96000000D03*
D12*
X152000000Y-119500000D03*
X152000000Y-118400000D03*
D14*
X143500000Y-120000000D03*
X143500000Y-118600000D03*
D13*
X141900000Y-104000000D03*
X143000000Y-104000000D03*
D14*
X158000000Y-104000000D03*
X158000000Y-102600000D03*
D15*
X136500000Y-103000000D03*
X138000000Y-103000000D03*
D12*
X131600000Y-95230000D03*
X131600000Y-96330000D03*
D14*
X155000000Y-97100000D03*
X155000000Y-98500000D03*
D13*
X138020000Y-129000000D03*
X139120000Y-129000000D03*
D12*
X131600000Y-98680000D03*
X131600000Y-99780000D03*
D13*
X133900000Y-106000000D03*
X135000000Y-106000000D03*
X134600000Y-93780000D03*
X133500000Y-93780000D03*
D12*
X153500000Y-104000000D03*
X153500000Y-102900000D03*
D14*
X155000000Y-104000000D03*
X155000000Y-102600000D03*
X145500000Y-120000000D03*
X145500000Y-118600000D03*
D12*
X161500000Y-106500000D03*
X161500000Y-105400000D03*
D37*
X135625000Y-125050000D03*
D38*
X135625000Y-127150000D03*
D14*
X151500000Y-94600000D03*
X151500000Y-96000000D03*
D13*
X137100000Y-96750000D03*
X136000000Y-96750000D03*
D12*
X158000000Y-110450000D03*
X158000000Y-111550000D03*
D13*
X136000000Y-95280000D03*
X137100000Y-95280000D03*
D39*
X149700000Y-112600000D03*
D40*
X148450000Y-109350000D03*
X148950000Y-109350000D03*
X149450000Y-109350000D03*
X149950000Y-109350000D03*
X150450000Y-109350000D03*
X150950000Y-109350000D03*
X151450000Y-109350000D03*
X151950000Y-109350000D03*
X152450000Y-109350000D03*
X152950000Y-114850000D03*
X146950000Y-115100000D03*
X147700000Y-115350000D03*
X148700000Y-115350000D03*
X149200000Y-115350000D03*
X149700000Y-115350000D03*
X150200000Y-115350000D03*
X150700000Y-115350000D03*
X151200000Y-115350000D03*
X151700000Y-115350000D03*
X152950000Y-115350000D03*
X146950000Y-115850000D03*
X147450000Y-115850000D03*
X147950000Y-115850000D03*
X148450000Y-115850000D03*
X148950000Y-115850000D03*
X149450000Y-115850000D03*
X149950000Y-115850000D03*
X150450000Y-115850000D03*
X150950000Y-115850000D03*
X151450000Y-115850000D03*
X151950000Y-115850000D03*
X152450000Y-115850000D03*
X146450000Y-109850000D03*
X147200000Y-109850000D03*
X147700000Y-109850000D03*
X148200000Y-109850000D03*
X148700000Y-109850000D03*
X149200000Y-109850000D03*
X149700000Y-109850000D03*
X150200000Y-109850000D03*
X150700000Y-109850000D03*
X151200000Y-109850000D03*
X152950000Y-109850000D03*
X146450000Y-110350000D03*
X146950000Y-110600000D03*
X152450000Y-110600000D03*
X152950000Y-110850000D03*
X146950000Y-111100000D03*
X152450000Y-111100000D03*
X146450000Y-111350000D03*
X146950000Y-111600000D03*
X152450000Y-111600000D03*
X146450000Y-111850000D03*
X152950000Y-111850000D03*
X146950000Y-112100000D03*
X146450000Y-112350000D03*
X152950000Y-112350000D03*
X146950000Y-112600000D03*
X146450000Y-112850000D03*
X152950000Y-112850000D03*
X146950000Y-113100000D03*
X152450000Y-113100000D03*
X146450000Y-113350000D03*
X152950000Y-113350000D03*
X146950000Y-113600000D03*
X152450000Y-113600000D03*
X146450000Y-113850000D03*
X152950000Y-113850000D03*
X152450000Y-114100000D03*
X146450000Y-114350000D03*
X152950000Y-114350000D03*
X146950000Y-114600000D03*
X152450000Y-114600000D03*
D18*
X133000000Y-132000000D03*
D41*
X161500000Y-101500000D03*
X160200000Y-102400000D03*
D42*
X152000000Y-103000000D03*
X135000000Y-98680000D03*
X152975735Y-107975735D03*
X152731478Y-99840399D03*
D43*
X148200000Y-109850000D03*
D42*
X154500000Y-110500000D03*
X144000000Y-99000000D03*
X142500000Y-112000000D03*
X138000000Y-101500000D03*
X146500000Y-104000000D03*
X155000000Y-107500000D03*
X143500000Y-106500000D03*
X145000000Y-99000000D03*
X131500000Y-102000000D03*
X134150000Y-95230000D03*
X134000000Y-90000000D03*
X132500000Y-107000000D03*
X144000000Y-117000000D03*
D43*
X147700000Y-115350000D03*
D42*
X151000000Y-117500000D03*
X151500000Y-120500000D03*
X146500000Y-117500000D03*
X150100000Y-107900000D03*
X155000000Y-102600000D03*
X147500000Y-126500000D03*
X152500000Y-126500000D03*
X142500000Y-128000000D03*
X148500000Y-123500000D03*
X153900000Y-125000000D03*
X156000000Y-98500000D03*
X153500000Y-121000000D03*
X156500000Y-120500000D03*
X152801735Y-95301735D03*
X147750000Y-96750000D03*
X152000000Y-97500000D03*
X151000000Y-97000000D03*
X149400000Y-97000000D03*
X158500000Y-100758450D03*
X159500000Y-104500000D03*
X161500000Y-98500000D03*
X159500000Y-100500000D03*
X158000000Y-109500000D03*
X155455000Y-109455000D03*
D43*
X146000000Y-111500000D03*
D42*
X140500000Y-119000000D03*
X141500000Y-120500000D03*
D43*
X146950000Y-111100000D03*
D42*
X147000000Y-107900000D03*
D43*
X153096256Y-110288769D03*
D42*
X141500000Y-114000000D03*
X150869121Y-108717651D03*
X152174265Y-108325735D03*
D43*
X152450000Y-110600000D03*
D42*
X141500000Y-116500000D03*
D43*
X146450000Y-110350000D03*
D42*
X155500000Y-115500000D03*
X154000000Y-118000000D03*
D43*
X152450000Y-111600000D03*
D42*
X141000000Y-129000000D03*
X141500000Y-100000000D03*
X141500000Y-95500000D03*
D43*
X149700000Y-115350000D03*
D42*
X153500000Y-119500000D03*
X146540156Y-109218905D03*
X144000000Y-112000000D03*
X144000000Y-96500000D03*
X148600000Y-97000000D03*
X144000000Y-95500000D03*
X146124265Y-96624265D03*
D43*
X148450000Y-115850000D03*
D42*
X143500000Y-127500000D03*
X154000000Y-117000000D03*
X156000000Y-126000000D03*
X144102000Y-116000000D03*
X137500000Y-110000000D03*
X138500000Y-106500000D03*
D43*
X146450000Y-112850000D03*
D42*
X140500000Y-103699997D03*
X156500000Y-111900000D03*
X140500000Y-104500000D03*
X155500000Y-111100000D03*
D43*
X152450000Y-113600000D03*
D42*
X155000000Y-114000000D03*
X155000000Y-112500000D03*
D43*
X152450000Y-113100000D03*
X151700000Y-115350000D03*
D42*
X150786793Y-104529761D03*
X149114579Y-104487851D03*
D43*
X150700000Y-115350000D03*
X149200000Y-115350000D03*
D42*
X148500000Y-105000000D03*
X149150000Y-125000000D03*
X150400000Y-126000000D03*
X147543849Y-104979567D03*
D43*
X148700000Y-115350000D03*
D42*
X149991063Y-104447187D03*
D43*
X151200000Y-115350000D03*
D44*
X142550000Y-130650000D02*
X143450000Y-130650000D01*
X156500000Y-130730000D02*
X157400000Y-130730000D01*
X159000000Y-97100000D02*
X161500000Y-99600000D01*
X161500000Y-99600000D02*
X161500000Y-101500000D01*
X160200000Y-103199000D02*
X159500000Y-103899000D01*
X160200000Y-102400000D02*
X160200000Y-103199000D01*
X159500000Y-103899000D02*
X158101000Y-103899000D01*
X158101000Y-103899000D02*
X158000000Y-104000000D01*
X147000000Y-98000000D02*
X146500000Y-97500000D01*
X146500000Y-97500000D02*
X146000000Y-97500000D01*
X146000000Y-97500000D02*
X145523265Y-97023265D01*
X145523265Y-95976735D02*
X146600000Y-94900000D01*
X145523265Y-97023265D02*
X145523265Y-95976735D01*
X146600000Y-94900000D02*
X147000000Y-94900000D01*
X154000000Y-107000000D02*
X154000000Y-107800000D01*
X154000000Y-107800000D02*
X152450000Y-109350000D01*
X158500000Y-106850000D02*
X157650000Y-106000000D01*
X157650000Y-106000000D02*
X155000000Y-106000000D01*
X155000000Y-106000000D02*
X154000000Y-107000000D01*
X136290000Y-127150000D02*
X138140000Y-129000000D01*
X135625000Y-127150000D02*
X136290000Y-127150000D01*
X146500000Y-124500000D02*
X147000000Y-125000000D01*
X153500000Y-104000000D02*
X155000000Y-104000000D01*
X144000000Y-124500000D02*
X146500000Y-124500000D01*
X141500000Y-102500000D02*
X141900000Y-102500000D01*
X154320000Y-128115000D02*
X153770000Y-128115000D01*
X148200000Y-111100000D02*
X149700000Y-112600000D01*
X152000000Y-103000000D02*
X152500000Y-103000000D01*
X166950000Y-93500000D02*
X161500000Y-93500000D01*
X157000000Y-132265000D02*
X154320000Y-132265000D01*
X151185000Y-99685000D02*
X152576079Y-99685000D01*
X160550000Y-126010000D02*
X163540000Y-129000000D01*
X140500000Y-101500000D02*
X141500000Y-102500000D01*
X145260000Y-130920000D02*
X145680000Y-130500000D01*
X158500000Y-108000000D02*
X156000000Y-110500000D01*
X146800000Y-125200000D02*
X147000000Y-125000000D01*
X141501000Y-94900000D02*
X147000000Y-94900000D01*
X156500000Y-117000000D02*
X154601000Y-118899000D01*
X157700000Y-93900000D02*
X158000000Y-93600000D01*
X148200000Y-94900000D02*
X148500000Y-94600000D01*
X156100000Y-93900000D02*
X156500000Y-93900000D01*
X159000000Y-97100000D02*
X159000000Y-94600000D01*
X149650000Y-94600000D02*
X149950000Y-94900000D01*
X143500000Y-120000000D02*
X145500000Y-120000000D01*
X168450000Y-126550000D02*
X167500000Y-127500000D01*
X146500000Y-104429000D02*
X146000000Y-104929000D01*
X145000000Y-99327542D02*
X145000000Y-99000000D01*
X145685000Y-100685000D02*
X144000000Y-99000000D01*
X144749000Y-116751000D02*
X144749000Y-119249000D01*
X142749000Y-109351000D02*
X142749000Y-110701000D01*
X158000000Y-111550000D02*
X157050000Y-111550000D01*
X138881000Y-92280000D02*
X141501000Y-94900000D01*
X143048000Y-111000000D02*
X144500000Y-111000000D01*
X139000000Y-109600000D02*
X140400000Y-111000000D01*
X146696000Y-104929000D02*
X146000000Y-104929000D01*
X168450000Y-117000000D02*
X168450000Y-125600000D01*
X131600000Y-96330000D02*
X135580000Y-96330000D01*
X146000000Y-104929000D02*
X145471000Y-104929000D01*
X135580000Y-96330000D02*
X136000000Y-96750000D01*
X154700000Y-97400000D02*
X155000000Y-97100000D01*
X146800000Y-127545000D02*
X146800000Y-126500000D01*
X152891367Y-111411500D02*
X153588500Y-111411500D01*
X146500000Y-104000000D02*
X146500000Y-104429000D01*
X136000000Y-96750000D02*
X136000000Y-98250000D01*
X156500000Y-93900000D02*
X157700000Y-93900000D01*
X161500000Y-106500000D02*
X161000000Y-106500000D01*
X154320000Y-132265000D02*
X154320000Y-128115000D01*
X148448000Y-122552000D02*
X148448000Y-120948000D01*
X163540000Y-129000000D02*
X164000000Y-129000000D01*
X145680000Y-128115000D02*
X146230000Y-128115000D01*
X134820000Y-103000000D02*
X134600000Y-102780000D01*
X147500000Y-104125000D02*
X146696000Y-104929000D01*
X147000000Y-124000000D02*
X147000000Y-125000000D01*
X158700000Y-97400000D02*
X159000000Y-97100000D01*
X154601000Y-118899000D02*
X152601000Y-118899000D01*
X153200000Y-127545000D02*
X153200000Y-125340000D01*
X153588500Y-111411500D02*
X154500000Y-110500000D01*
X168450000Y-95000000D02*
X166950000Y-93500000D01*
X138000000Y-101500000D02*
X140500000Y-101500000D01*
X148500000Y-94600000D02*
X149650000Y-94600000D01*
X135570000Y-98680000D02*
X136000000Y-98250000D01*
X142500000Y-112000000D02*
X142000000Y-111500000D01*
X158000000Y-104000000D02*
X160000000Y-106000000D01*
X144900000Y-107000000D02*
X144900000Y-107200000D01*
X153770000Y-128115000D02*
X153200000Y-127545000D01*
X157050000Y-111550000D02*
X156000000Y-110500000D01*
X147399000Y-105899000D02*
X147000000Y-105500000D01*
X147000000Y-105500000D02*
X147000000Y-105233000D01*
X168450000Y-103600000D02*
X168450000Y-106000000D01*
X136500000Y-103000000D02*
X138000000Y-101500000D01*
X143550000Y-130920000D02*
X145260000Y-130920000D01*
X140001000Y-127399000D02*
X142601000Y-127399000D01*
X148200000Y-109850000D02*
X148200000Y-111100000D01*
X152330000Y-124000000D02*
X152860000Y-124530000D01*
X157200000Y-97100000D02*
X157500000Y-97400000D01*
X160400000Y-94600000D02*
X159000000Y-94600000D01*
X143500000Y-106500000D02*
X144050000Y-107050000D01*
X145000000Y-116500000D02*
X144749000Y-116751000D01*
X156500000Y-104000000D02*
X158000000Y-104000000D01*
X147500000Y-102870000D02*
X147500000Y-104125000D01*
X149000000Y-100185000D02*
X148750000Y-100435000D01*
X160000000Y-107500000D02*
X159500000Y-108000000D01*
X151349943Y-107000000D02*
X150248943Y-105899000D01*
X151000000Y-124000000D02*
X152330000Y-124000000D01*
X142749000Y-110701000D02*
X143048000Y-111000000D01*
X156900000Y-106860000D02*
X155640000Y-106860000D01*
X143500000Y-108600000D02*
X142749000Y-109351000D01*
X168450000Y-95000000D02*
X168450000Y-103600000D01*
X145471000Y-104929000D02*
X144900000Y-105500000D01*
X153500000Y-97400000D02*
X154700000Y-97400000D01*
X168450000Y-125600000D02*
X168450000Y-126550000D01*
X135000000Y-98680000D02*
X135570000Y-98680000D01*
X144050000Y-108050000D02*
X143500000Y-108600000D01*
X147500000Y-120000000D02*
X148448000Y-120948000D01*
X160275000Y-132265000D02*
X163540000Y-129000000D01*
X152875735Y-107975735D02*
X151900000Y-107000000D01*
X144749000Y-119249000D02*
X145500000Y-120000000D01*
X156000000Y-110500000D02*
X154500000Y-110500000D01*
X152450000Y-111100000D02*
X152426000Y-111100000D01*
X160550000Y-124500000D02*
X160550000Y-126010000D01*
X135625000Y-125050000D02*
X137652000Y-125050000D01*
X144000000Y-126000000D02*
X146300000Y-126000000D01*
X155000000Y-104000000D02*
X156500000Y-104000000D01*
X155000000Y-97100000D02*
X157200000Y-97100000D01*
X153200000Y-125340000D02*
X152860000Y-125000000D01*
X141900000Y-102500000D02*
X141900000Y-104000000D01*
X157500000Y-97400000D02*
X158700000Y-97400000D01*
X148750000Y-100435000D02*
X147500000Y-101685000D01*
X137652000Y-125050000D02*
X140001000Y-127399000D01*
X155400000Y-94600000D02*
X156100000Y-93900000D01*
X146315000Y-100185000D02*
X145857458Y-100185000D01*
X151500000Y-94600000D02*
X155400000Y-94600000D01*
X159000000Y-94600000D02*
X158000000Y-93600000D01*
X148448000Y-122552000D02*
X147000000Y-124000000D01*
X161700000Y-95900000D02*
X160400000Y-94600000D01*
X142000000Y-118500000D02*
X143500000Y-120000000D01*
X152579867Y-111100000D02*
X152891367Y-111411500D01*
X131600000Y-98680000D02*
X135000000Y-98680000D01*
X162000000Y-95900000D02*
X161700000Y-95900000D01*
X142000000Y-110100000D02*
X142749000Y-109351000D01*
X159500000Y-108000000D02*
X158500000Y-108000000D01*
X157500000Y-131765000D02*
X157000000Y-132265000D01*
X155640000Y-106860000D02*
X155000000Y-107500000D01*
X145680000Y-132265000D02*
X145680000Y-130500000D01*
X145000000Y-111500000D02*
X145000000Y-116500000D01*
X151900000Y-107000000D02*
X151349943Y-107000000D01*
X134600000Y-92280000D02*
X138881000Y-92280000D01*
X152975735Y-107975735D02*
X152875735Y-107975735D01*
X168450000Y-114600000D02*
X168450000Y-117000000D01*
X145857458Y-100185000D02*
X145000000Y-99327542D01*
X146315000Y-100685000D02*
X145685000Y-100685000D01*
X146230000Y-128115000D02*
X146800000Y-127545000D01*
X150500000Y-123500000D02*
X151000000Y-124000000D01*
X146800000Y-126500000D02*
X146800000Y-125200000D01*
X167500000Y-127500000D02*
X165040000Y-127500000D01*
X144900000Y-107200000D02*
X144050000Y-108050000D01*
X144900000Y-105500000D02*
X144900000Y-107000000D01*
X142000000Y-111500000D02*
X142000000Y-111000000D01*
X145500000Y-120000000D02*
X147500000Y-120000000D01*
X168450000Y-106000000D02*
X168450000Y-114600000D01*
X144050000Y-107050000D02*
X144050000Y-108050000D01*
X152576079Y-99685000D02*
X152731478Y-99840399D01*
X150500000Y-119500000D02*
X150500000Y-123500000D01*
X145680000Y-130500000D02*
X145680000Y-128115000D01*
X139000000Y-108500000D02*
X139000000Y-109600000D01*
X147000000Y-105233000D02*
X146696000Y-104929000D01*
X151200000Y-94900000D02*
X151500000Y-94600000D01*
X149950000Y-94900000D02*
X151200000Y-94900000D01*
X152500000Y-103000000D02*
X153500000Y-104000000D01*
X152450000Y-111100000D02*
X152579867Y-111100000D01*
X141900000Y-104000000D02*
X143400000Y-105500000D01*
X146300000Y-126000000D02*
X146800000Y-126500000D01*
X165040000Y-127500000D02*
X163540000Y-129000000D01*
X147500000Y-101685000D02*
X147500000Y-102870000D01*
X152000000Y-119500000D02*
X150500000Y-119500000D01*
X157500000Y-131000000D02*
X157500000Y-131765000D01*
X139500000Y-111900000D02*
X140400000Y-111000000D01*
X136500000Y-103000000D02*
X134820000Y-103000000D01*
X161500000Y-93500000D02*
X160400000Y-94600000D01*
X149000000Y-98000000D02*
X149000000Y-100185000D01*
X142601000Y-127399000D02*
X144000000Y-126000000D01*
X140400000Y-111000000D02*
X142000000Y-111000000D01*
X150248943Y-105899000D02*
X147399000Y-105899000D01*
X161000000Y-106500000D02*
X160000000Y-107500000D01*
X152601000Y-118899000D02*
X152000000Y-119500000D01*
X157000000Y-132265000D02*
X160275000Y-132265000D01*
X144500000Y-111000000D02*
X145000000Y-111500000D01*
X160000000Y-106000000D02*
X160000000Y-107500000D01*
X141000000Y-111900000D02*
X139500000Y-111900000D01*
X142000000Y-111000000D02*
X142000000Y-110100000D01*
X147000000Y-94900000D02*
X148200000Y-94900000D01*
X152860000Y-124530000D02*
X152860000Y-125000000D01*
X143400000Y-105500000D02*
X144900000Y-105500000D01*
X133900000Y-106000000D02*
X132500000Y-104600000D01*
X134100000Y-99780000D02*
X134600000Y-100280000D01*
X131600000Y-99780000D02*
X133000000Y-99780000D01*
X131600000Y-101900000D02*
X131500000Y-102000000D01*
X135100000Y-99780000D02*
X134600000Y-100280000D01*
X132500000Y-100280000D02*
X133000000Y-99780000D01*
X131600000Y-99780000D02*
X131600000Y-101900000D01*
X133000000Y-99780000D02*
X134100000Y-99780000D01*
X136000000Y-99780000D02*
X135100000Y-99780000D01*
X134600000Y-100280000D02*
X134600000Y-101280000D01*
X132500000Y-104600000D02*
X132500000Y-100280000D01*
X131600000Y-95230000D02*
X131600000Y-92400000D01*
X134600000Y-94780000D02*
X134600000Y-93780000D01*
X133900000Y-108000000D02*
X133500000Y-108000000D01*
X134150000Y-95230000D02*
X134600000Y-94780000D01*
X131600000Y-95230000D02*
X134150000Y-95230000D01*
X133500000Y-108000000D02*
X132500000Y-107000000D01*
X136000000Y-95280000D02*
X135100000Y-95280000D01*
X131600000Y-92400000D02*
X134000000Y-90000000D01*
X135100000Y-95280000D02*
X134600000Y-94780000D01*
X144000000Y-118100000D02*
X143500000Y-118600000D01*
X144000000Y-117000000D02*
X144000000Y-118100000D01*
X146500000Y-117500000D02*
X146500000Y-117600000D01*
X146450000Y-114350000D02*
X145500000Y-115300000D01*
X150500000Y-117953033D02*
X150500000Y-118400000D01*
X154432900Y-124500000D02*
X156140000Y-124500000D01*
X151500000Y-120500000D02*
X151500000Y-121567100D01*
X150100000Y-107900000D02*
X150900000Y-107900000D01*
X146000000Y-109850000D02*
X143650000Y-109850000D01*
X150100000Y-107100000D02*
X150000000Y-107000000D01*
X146000000Y-107000000D02*
X146000000Y-107500000D01*
X150500000Y-118400000D02*
X150500000Y-118000000D01*
X145500000Y-115855546D02*
X145500000Y-116000000D01*
X152450000Y-115850000D02*
X152450000Y-117950000D01*
X146950000Y-114600000D02*
X146755546Y-114600000D01*
X151950000Y-108950000D02*
X151950000Y-109350000D01*
X152785000Y-102185000D02*
X153500000Y-102900000D01*
X150900000Y-107900000D02*
X151950000Y-108950000D01*
X151185000Y-102185000D02*
X152785000Y-102185000D01*
X143650000Y-109850000D02*
X143500000Y-110000000D01*
X145500000Y-110350000D02*
X146000000Y-109850000D01*
X150500000Y-118000000D02*
X151000000Y-117500000D01*
X146450000Y-109850000D02*
X146000000Y-109850000D01*
X146000000Y-107500000D02*
X143500000Y-110000000D01*
X145500000Y-115300000D02*
X145500000Y-110350000D01*
X151500000Y-121567100D02*
X154432900Y-124500000D01*
X146500000Y-117600000D02*
X145500000Y-118600000D01*
X153500000Y-102900000D02*
X154700000Y-102900000D01*
X152000000Y-118400000D02*
X151900000Y-118400000D01*
X154700000Y-102900000D02*
X155000000Y-102600000D01*
X150100000Y-107900000D02*
X150100000Y-107100000D01*
X145500000Y-116000000D02*
X145500000Y-118600000D01*
X149950000Y-117403033D02*
X150500000Y-117953033D01*
X151900000Y-118400000D02*
X151000000Y-117500000D01*
X149950000Y-115850000D02*
X149950000Y-117403033D01*
X146755546Y-114600000D02*
X145500000Y-115855546D01*
X150000000Y-107000000D02*
X146000000Y-107000000D01*
X145500000Y-115300000D02*
X145500000Y-116000000D01*
X152450000Y-117950000D02*
X152000000Y-118400000D01*
X146950000Y-116104333D02*
X146950000Y-115850000D01*
X149950000Y-96450000D02*
X150000000Y-96500000D01*
X153500000Y-98500000D02*
X155000000Y-98500000D01*
X156500000Y-120500000D02*
X154000000Y-120500000D01*
X148849000Y-123151000D02*
X148849000Y-118003333D01*
X148849000Y-118003333D02*
X148172834Y-117327166D01*
X147500000Y-118600000D02*
X147500000Y-118000000D01*
X152400000Y-127545000D02*
X152400000Y-126600000D01*
X151500000Y-96000000D02*
X152103470Y-96000000D01*
X154000000Y-120500000D02*
X153500000Y-121000000D01*
X156400000Y-127500000D02*
X153900000Y-125000000D01*
X147500000Y-126500000D02*
X147500000Y-127445000D01*
X147500000Y-127445000D02*
X147600000Y-127545000D01*
X147500000Y-118000000D02*
X148172834Y-117327166D01*
X156000000Y-98500000D02*
X155000000Y-98500000D01*
X152103470Y-96000000D02*
X152801735Y-95301735D01*
X149950000Y-96000000D02*
X149950000Y-96450000D01*
X156400000Y-129160000D02*
X156400000Y-127500000D01*
X142500000Y-128000000D02*
X142500000Y-129030000D01*
X151500000Y-96000000D02*
X149950000Y-96000000D01*
X148500000Y-123500000D02*
X148849000Y-123151000D01*
X148172834Y-117327166D02*
X146950000Y-116104333D01*
X150000000Y-96500000D02*
X150000000Y-98000000D01*
X142500000Y-129030000D02*
X142450000Y-129080000D01*
X153315000Y-98685000D02*
X153500000Y-98500000D01*
X151185000Y-98685000D02*
X153315000Y-98685000D01*
X152400000Y-126600000D02*
X152500000Y-126500000D01*
X143500000Y-104000000D02*
X143000000Y-104000000D01*
X146315000Y-102185000D02*
X145315000Y-102185000D01*
X143000000Y-102500000D02*
X145000000Y-102500000D01*
X145315000Y-102185000D02*
X145000000Y-102500000D01*
X145000000Y-102500000D02*
X143500000Y-104000000D01*
X150500000Y-98000000D02*
X151500000Y-98000000D01*
X148000000Y-97000000D02*
X148000000Y-98000000D01*
X151500000Y-98000000D02*
X152000000Y-97500000D01*
X147000000Y-96000000D02*
X147750000Y-96750000D01*
X147750000Y-96750000D02*
X148000000Y-97000000D01*
X147750000Y-96750000D02*
X148500000Y-96000000D01*
X149500000Y-98000000D02*
X149500000Y-97100000D01*
X156500000Y-95000000D02*
X158000000Y-95000000D01*
X152251000Y-96701000D02*
X151299000Y-96701000D01*
X153952000Y-95000000D02*
X152251000Y-96701000D01*
X149500000Y-97100000D02*
X149400000Y-97000000D01*
X151299000Y-96701000D02*
X151000000Y-97000000D01*
X156500000Y-95000000D02*
X153952000Y-95000000D01*
X157500000Y-98500000D02*
X159000000Y-98500000D01*
X151201000Y-99201000D02*
X151185000Y-99185000D01*
X157500000Y-98500000D02*
X156799000Y-99201000D01*
X156799000Y-99201000D02*
X151201000Y-99201000D01*
X157700000Y-102900000D02*
X158000000Y-102600000D01*
X156500000Y-102775000D02*
X156500000Y-102900000D01*
X151185000Y-101185000D02*
X151901000Y-101185000D01*
X155509000Y-101784000D02*
X156500000Y-102775000D01*
X151901000Y-101185000D02*
X152500000Y-101784000D01*
X156500000Y-102900000D02*
X157700000Y-102900000D01*
X152500000Y-101784000D02*
X155509000Y-101784000D01*
X159500000Y-104500000D02*
X160500000Y-104500000D01*
X151185000Y-100185000D02*
X152227550Y-100185000D01*
X158301000Y-100957450D02*
X158500000Y-100758450D01*
X161500000Y-105400000D02*
X161400000Y-105400000D01*
X152227550Y-100185000D02*
X153000000Y-100957450D01*
X161500000Y-103500000D02*
X161500000Y-102400000D01*
X161400000Y-105400000D02*
X160500000Y-104500000D01*
X160500000Y-104500000D02*
X161500000Y-103500000D01*
X153000000Y-100957450D02*
X158301000Y-100957450D01*
X160058450Y-101358450D02*
X160200000Y-101500000D01*
X151185000Y-100685000D02*
X151968100Y-100685000D01*
X152641550Y-101358450D02*
X160058450Y-101358450D01*
X162000000Y-97000000D02*
X162000000Y-98000000D01*
X151968100Y-100685000D02*
X152641550Y-101358450D01*
X159500000Y-100608393D02*
X158748943Y-101359450D01*
X162000000Y-98000000D02*
X161500000Y-98500000D01*
X159500000Y-100500000D02*
X159500000Y-100608393D01*
X153000000Y-107000000D02*
X154000000Y-107000000D01*
X158000000Y-110450000D02*
X158000000Y-109500000D01*
X155455000Y-109455000D02*
X156900000Y-108010000D01*
X152950000Y-109850000D02*
X155060000Y-109850000D01*
X155060000Y-109850000D02*
X155455000Y-109455000D01*
X146000000Y-111000000D02*
X146000000Y-111500000D01*
X146518367Y-110911500D02*
X146088500Y-110911500D01*
X140900000Y-122500000D02*
X140900000Y-124000000D01*
X140900000Y-124000000D02*
X142900000Y-126000000D01*
X146088500Y-110911500D02*
X146000000Y-111000000D01*
X146950000Y-110600000D02*
X146829867Y-110600000D01*
X146829867Y-110600000D02*
X146518367Y-110911500D01*
X140500000Y-119000000D02*
X140900000Y-119400000D01*
X140900000Y-119400000D02*
X140900000Y-122500000D01*
X142100000Y-122500000D02*
X142100000Y-123700000D01*
X142100000Y-121100000D02*
X142100000Y-122500000D01*
X142100000Y-123700000D02*
X142900000Y-124500000D01*
X141500000Y-120500000D02*
X142100000Y-121100000D01*
X140500000Y-114000000D02*
X139500000Y-113000000D01*
X150869121Y-108717651D02*
X150651470Y-108500000D01*
X147800000Y-108500000D02*
X147700000Y-108600000D01*
X141000000Y-113000000D02*
X139500000Y-113000000D01*
X141100000Y-113100000D02*
X141000000Y-113000000D01*
X153096256Y-110703744D02*
X152950000Y-110850000D01*
X142500000Y-113100000D02*
X141100000Y-113100000D01*
X147700000Y-108600000D02*
X147000000Y-107900000D01*
X150651470Y-108500000D02*
X147800000Y-108500000D01*
X141500000Y-114000000D02*
X140500000Y-114000000D01*
X147700000Y-109850000D02*
X147700000Y-108600000D01*
X153096256Y-110288769D02*
X153096256Y-110703744D01*
X150248902Y-106500000D02*
X152074637Y-108325735D01*
X150248902Y-106500000D02*
X147000000Y-106500000D01*
X147000000Y-106500000D02*
X146000000Y-105500000D01*
X152074637Y-108325735D02*
X152174265Y-108325735D01*
X141500000Y-116500000D02*
X142000000Y-117000000D01*
X142000000Y-117000000D02*
X142000000Y-117400000D01*
X155000000Y-117000000D02*
X154000000Y-118000000D01*
X155500000Y-116900000D02*
X155400000Y-117000000D01*
X141000000Y-129000000D02*
X139000000Y-129000000D01*
X155400000Y-117000000D02*
X155000000Y-117000000D01*
X155500000Y-115500000D02*
X155500000Y-116900000D01*
X144685000Y-101185000D02*
X142500000Y-99000000D01*
X136649000Y-101851000D02*
X134071000Y-101851000D01*
X133500000Y-102422000D02*
X134071000Y-101851000D01*
X134071000Y-101851000D02*
X133500000Y-101280000D01*
X133500000Y-102780000D02*
X133500000Y-102422000D01*
X142500000Y-99000000D02*
X139500000Y-99000000D01*
X146315000Y-101185000D02*
X144685000Y-101185000D01*
X139500000Y-99000000D02*
X136649000Y-101851000D01*
X138900000Y-98250000D02*
X137100000Y-98250000D01*
X137100000Y-98250000D02*
X137100000Y-99780000D01*
X137100000Y-96750000D02*
X137100000Y-95280000D01*
X138900000Y-96750000D02*
X137100000Y-96750000D01*
X142500000Y-100000000D02*
X141500000Y-100000000D01*
X146315000Y-101685000D02*
X144185000Y-101685000D01*
X134149000Y-92851000D02*
X134071000Y-92851000D01*
X141500000Y-95500000D02*
X138851000Y-92851000D01*
X133500000Y-93780000D02*
X133500000Y-93500000D01*
X134071000Y-92851000D02*
X133500000Y-92280000D01*
X133500000Y-93500000D02*
X134149000Y-92851000D01*
X144185000Y-101685000D02*
X142500000Y-100000000D01*
X138851000Y-92851000D02*
X134149000Y-92851000D01*
X135100000Y-105900000D02*
X135000000Y-106000000D01*
X136440000Y-105900000D02*
X135100000Y-105900000D01*
X135100000Y-107900000D02*
X135000000Y-108000000D01*
X136440000Y-107900000D02*
X135100000Y-107900000D01*
X156500000Y-123500000D02*
X156485000Y-123515000D01*
X158000000Y-123500000D02*
X158000000Y-125500000D01*
X159450000Y-123950000D02*
X159000000Y-123500000D01*
X152500000Y-120500000D02*
X152500000Y-122000000D01*
X157000000Y-124030000D02*
X157000000Y-124500000D01*
X159460000Y-126960000D02*
X159460000Y-129000000D01*
X158000000Y-123500000D02*
X156500000Y-123500000D01*
X156470000Y-123500000D02*
X156485000Y-123515000D01*
X156485000Y-123515000D02*
X157000000Y-124030000D01*
X159450000Y-124500000D02*
X159450000Y-123950000D01*
X158000000Y-125500000D02*
X159460000Y-126960000D01*
X152500000Y-122000000D02*
X154000000Y-123500000D01*
X159000000Y-123500000D02*
X158000000Y-123500000D01*
X154000000Y-123500000D02*
X156470000Y-123500000D01*
X153500000Y-119500000D02*
X152500000Y-120500000D01*
X147171251Y-109850000D02*
X146540156Y-109218905D01*
X144000000Y-112000000D02*
X144000000Y-113100000D01*
X147200000Y-109850000D02*
X147171251Y-109850000D01*
X144000000Y-114500000D02*
X142500000Y-114500000D01*
X148500000Y-97100000D02*
X148600000Y-97000000D01*
X142250000Y-98250000D02*
X140000000Y-98250000D01*
X148500000Y-98000000D02*
X148500000Y-97100000D01*
X144000000Y-96500000D02*
X142250000Y-98250000D01*
X146327493Y-96827493D02*
X146124265Y-96624265D01*
X147500000Y-98000000D02*
X147500000Y-97542458D01*
X147500000Y-97542458D02*
X146785035Y-96827493D01*
X144000000Y-95500000D02*
X142750000Y-96750000D01*
X142750000Y-96750000D02*
X140000000Y-96750000D01*
X146785035Y-96827493D02*
X146327493Y-96827493D01*
X143500000Y-129030000D02*
X143550000Y-129080000D01*
X143500000Y-127500000D02*
X143500000Y-129030000D01*
X157500000Y-129160000D02*
X157500000Y-127500000D01*
X153144454Y-114350000D02*
X152950000Y-114350000D01*
X157500000Y-127500000D02*
X156000000Y-126000000D01*
X154000000Y-117000000D02*
X154000000Y-115205546D01*
X154000000Y-115205546D02*
X153144454Y-114350000D01*
X140432900Y-114500000D02*
X139500000Y-114500000D01*
X141932900Y-116000000D02*
X140432900Y-114500000D01*
X138500000Y-106500000D02*
X137700000Y-106500000D01*
X137700000Y-106500000D02*
X137500000Y-106300000D01*
X137500000Y-112500000D02*
X137500000Y-108300000D01*
X139500000Y-114500000D02*
X137500000Y-112500000D01*
X144102000Y-116000000D02*
X141932900Y-116000000D01*
X139300003Y-103699997D02*
X138750000Y-104250000D01*
X138000000Y-103000000D02*
X138750000Y-103750000D01*
X138750000Y-103750000D02*
X138750000Y-104250000D01*
X154750057Y-111900000D02*
X156500000Y-111900000D01*
X140500000Y-103699997D02*
X139300003Y-103699997D01*
X152950000Y-112350000D02*
X154300057Y-112350000D01*
X138750000Y-104250000D02*
X137500000Y-105500000D01*
X154300057Y-112350000D02*
X154750057Y-111900000D01*
X140500000Y-104500000D02*
X139500000Y-105500000D01*
X153751000Y-111850000D02*
X154500000Y-111101000D01*
X140500000Y-108000000D02*
X139500000Y-107000000D01*
X154501000Y-111100000D02*
X155500000Y-111100000D01*
X139500000Y-107000000D02*
X139000000Y-107500000D01*
X154500000Y-111101000D02*
X154501000Y-111100000D01*
X139000000Y-107500000D02*
X137500000Y-107500000D01*
X140500000Y-108500000D02*
X140500000Y-108000000D01*
X139500000Y-105500000D02*
X139500000Y-107000000D01*
X152950000Y-111850000D02*
X153751000Y-111850000D01*
X148750000Y-125890000D02*
X147860000Y-125000000D01*
X148750000Y-127545000D02*
X148750000Y-125890000D01*
X151750000Y-125250000D02*
X152000000Y-125000000D01*
X151750000Y-127545000D02*
X151750000Y-125250000D01*
X163000000Y-114000000D02*
X163500000Y-114500000D01*
X164550000Y-117000000D02*
X164550000Y-125600000D01*
X155000000Y-114000000D02*
X163000000Y-114000000D01*
X163500000Y-115950000D02*
X164550000Y-117000000D01*
X163500000Y-114500000D02*
X163500000Y-115950000D01*
X164550000Y-114600000D02*
X164550000Y-106000000D01*
X163300000Y-113350000D02*
X164550000Y-114600000D01*
X152950000Y-113350000D02*
X163300000Y-113350000D01*
X155000000Y-112500000D02*
X162500000Y-112500000D01*
X163000000Y-105150000D02*
X164550000Y-103600000D01*
X163000000Y-112000000D02*
X163000000Y-105150000D01*
X164550000Y-103600000D02*
X164550000Y-95000000D01*
X162500000Y-112500000D02*
X163000000Y-112000000D01*
X150786793Y-103156793D02*
X150500000Y-102870000D01*
X150786793Y-104529761D02*
X150786793Y-103156793D01*
X149500000Y-104102430D02*
X149500000Y-102870000D01*
X149114579Y-104487851D02*
X149500000Y-104102430D01*
X148500000Y-104000000D02*
X149000000Y-103500000D01*
X149000000Y-103500000D02*
X149000000Y-102870000D01*
X148500000Y-105000000D02*
X148500000Y-104000000D01*
X150250000Y-127545000D02*
X150250000Y-126150000D01*
X150250000Y-126150000D02*
X150400000Y-126000000D01*
X149250000Y-124900000D02*
X149250000Y-117837233D01*
X147450000Y-116037233D02*
X147450000Y-115850000D01*
X149250000Y-127545000D02*
X149250000Y-125100000D01*
X149250000Y-125100000D02*
X149150000Y-125000000D01*
X149250000Y-117837233D02*
X147450000Y-116037233D01*
X149150000Y-125000000D02*
X149250000Y-124900000D01*
X147543849Y-104979567D02*
X148000000Y-104523416D01*
X148000000Y-104523416D02*
X148000000Y-102870000D01*
X151000000Y-125500000D02*
X150500000Y-125000000D01*
X149750000Y-127545000D02*
X149750000Y-125000000D01*
X149750000Y-117770133D02*
X147950000Y-115970133D01*
X149750000Y-117770133D02*
X149750000Y-125000000D01*
X147950000Y-115970133D02*
X147950000Y-115850000D01*
X150500000Y-125000000D02*
X149750000Y-125000000D01*
X151000000Y-126500000D02*
X151000000Y-125500000D01*
X150750000Y-127545000D02*
X150750000Y-126750000D01*
X150750000Y-126750000D02*
X151000000Y-126500000D01*
X149991063Y-102878937D02*
X150000000Y-102870000D01*
X149991063Y-104447187D02*
X149991063Y-102878937D01*
M02*
