M48
; DRILL file {KiCad 9.0.3} date 2025-07-25T19:12:14-0700
; FORMAT={-:-/ absolute / metric / decimal}
; #@! TF.CreationDate,2025-07-25T19:12:14-07:00
; #@! TF.GenerationSoftware,Kicad,Pcbnew,9.0.3
; #@! TF.FileFunction,Plated,1,2,PTH
FMAT,2
METRIC
; #@! TA.AperFunction,Plated,PTH,ViaDrill
T1C0.150
; #@! TA.AperFunction,Plated,PTH,ComponentDrill
T2C0.200
; #@! TA.AperFunction,Plated,PTH,ViaDrill
T3C0.300
; #@! TA.AperFunction,Plated,PTH,ComponentDrill
T4C0.300
; #@! TA.AperFunction,Plated,PTH,ComponentDrill
T5C0.600
; #@! TA.AperFunction,Plated,PTH,ComponentDrill
T6C0.650
; #@! TA.AperFunction,Plated,PTH,ComponentDrill
T7C2.500
%
G90
G05
T1
X146.0Y-111.5
X146.45Y-110.35
X146.45Y-112.85
X146.95Y-111.1
X147.7Y-115.35
X148.2Y-109.85
X148.45Y-115.85
X148.7Y-115.35
X149.2Y-115.35
X149.7Y-115.35
X150.7Y-115.35
X151.2Y-115.35
X151.7Y-115.35
X152.45Y-110.6
X152.45Y-111.6
X152.45Y-113.1
X152.45Y-113.6
X152.95Y-114.85
X153.096Y-110.289
T2
X137.7Y-90.8
X144.7Y-84.8
T3
X131.5Y-102.0
X132.5Y-107.0
X134.0Y-90.0
X134.15Y-95.23
X135.0Y-98.68
X137.5Y-110.0
X138.0Y-101.5
X138.5Y-106.5
X140.5Y-103.7
X140.5Y-104.5
X140.5Y-119.0
X141.0Y-129.0
X141.5Y-95.5
X141.5Y-100.0
X141.5Y-114.0
X141.5Y-116.5
X141.5Y-120.5
X142.5Y-112.0
X142.5Y-128.0
X143.5Y-106.5
X143.5Y-127.5
X144.0Y-95.5
X144.0Y-96.5
X144.0Y-99.0
X144.0Y-112.0
X144.0Y-117.0
X144.102Y-116.0
X145.0Y-99.0
X146.124Y-96.624
X146.5Y-104.0
X146.5Y-117.5
X146.54Y-109.219
X147.0Y-107.9
X147.5Y-126.5
X147.544Y-104.98
X147.75Y-96.75
X148.5Y-105.0
X148.5Y-123.5
X148.6Y-97.0
X149.115Y-104.488
X149.15Y-125.0
X149.4Y-97.0
X149.991Y-104.447
X150.1Y-107.9
X150.4Y-126.0
X150.787Y-104.53
X150.869Y-108.718
X151.0Y-97.0
X151.0Y-117.5
X151.5Y-120.5
X152.0Y-97.5
X152.0Y-103.0
X152.174Y-108.326
X152.5Y-126.5
X152.731Y-99.84
X152.802Y-95.302
X152.976Y-107.976
X153.05Y-117.0
X153.1Y-121.5
X153.5Y-119.5
X153.5Y-120.5
X153.9Y-125.0
X154.0Y-117.0
X154.0Y-118.0
X154.5Y-110.5
X155.0Y-102.6
X155.0Y-107.5
X155.0Y-112.5
X155.0Y-114.0
X155.0Y-114.8
X155.455Y-109.455
X155.5Y-111.1
X155.5Y-115.5
X156.0Y-98.5
X156.0Y-126.0
X156.5Y-111.9
X156.5Y-120.5
X158.0Y-109.5
X158.5Y-100.758
X159.5Y-100.5
X159.5Y-104.5
X159.5Y-111.5
X160.0Y-115.0
X160.0Y-118.5
X160.2Y-102.4
X161.5Y-98.5
X161.5Y-101.5
T4
X135.625Y-127.15
T6
X147.11Y-128.615
X152.89Y-128.615
T7
X133.0Y-68.0
X133.0Y-132.0
X167.0Y-68.0
X167.0Y-132.0
T5
X145.68Y-127.565G85X145.68Y-128.665
G05
X145.68Y-131.865G85X145.68Y-132.665
G05
X154.32Y-127.565G85X154.32Y-128.665
G05
X154.32Y-131.865G85X154.32Y-132.665
G05
M30
