%TF.GenerationSoftware,KiCad,Pcbnew,9.0.3*%
%TF.CreationDate,2025-07-18T22:25:21-07:00*%
%TF.ProjectId,kikard,6b696b61-7264-42e6-9b69-6361645f7063,rev?*%
%TF.SameCoordinates,Original*%
%TF.FileFunction,Copper,L1,Top*%
%TF.FilePolarity,Positive*%
%FSLAX46Y46*%
G04 Gerber Fmt 4.6, Leading zero omitted, Abs format (unit mm)*
G04 Created by KiCad (PCBNEW 9.0.3) date 2025-07-18 22:25:21*
%MOMM*%
%LPD*%
G01*
G04 APERTURE LIST*
G04 Aperture macros list*
%AMRoundRect*
0 Rectangle with rounded corners*
0 $1 Rounding radius*
0 $2 $3 $4 $5 $6 $7 $8 $9 X,Y pos of 4 corners*
0 Add a 4 corners polygon primitive as box body*
4,1,4,$2,$3,$4,$5,$6,$7,$8,$9,$2,$3,0*
0 Add four circle primitives for the rounded corners*
1,1,$1+$1,$2,$3*
1,1,$1+$1,$4,$5*
1,1,$1+$1,$6,$7*
1,1,$1+$1,$8,$9*
0 Add four rect primitives between the rounded corners*
20,1,$1+$1,$2,$3,$4,$5,0*
20,1,$1+$1,$4,$5,$6,$7,0*
20,1,$1+$1,$6,$7,$8,$9,0*
20,1,$1+$1,$8,$9,$2,$3,0*%
%AMFreePoly0*
4,1,203,24.639018,24.796157,24.711114,24.766294,24.766294,24.711114,24.796157,24.639018,24.800000,24.600000,24.800000,0.000000,24.796157,-0.039018,24.766294,-0.111114,24.711114,-0.166294,24.639018,-0.196157,24.600000,-0.200000,1.000000,-0.200000,0.960982,-0.196157,0.888886,-0.166294,0.833706,-0.111114,0.803843,-0.039018,0.800000,0.000000,0.800000,23.600000,0.803843,23.639018,0.833706,23.711114,
0.888886,23.766294,0.960982,23.796157,1.000000,23.800000,23.600000,23.800000,23.639018,23.796157,23.711114,23.766294,23.766294,23.711114,23.796157,23.639018,23.800000,23.600000,23.800000,1.000000,23.796157,0.960982,23.766294,0.888886,23.711114,0.833706,23.639018,0.803843,23.600000,0.800000,2.000000,0.800000,1.960982,0.803843,1.888886,0.833706,1.833706,0.888886,1.803843,0.960982,
1.800000,1.000000,1.800000,22.600000,1.803843,22.639018,1.833706,22.711114,1.888886,22.766294,1.960982,22.796157,2.000000,22.800000,22.600000,22.800000,22.639018,22.796157,22.711114,22.766294,22.766294,22.711114,22.796157,22.639018,22.800000,22.600000,22.800000,2.000000,22.796157,1.960982,22.766294,1.888886,22.711114,1.833706,22.639018,1.803843,22.600000,1.800000,3.000000,1.800000,
2.960982,1.803843,2.888886,1.833706,2.833706,1.888886,2.803843,1.960982,2.800000,2.000000,2.800000,21.600000,2.803843,21.639018,2.833706,21.711114,2.888886,21.766294,2.960982,21.796157,3.000000,21.800000,21.600000,21.800000,21.639018,21.796157,21.711114,21.766294,21.766294,21.711114,21.796157,21.639018,21.800000,21.600000,21.800000,3.000000,21.796157,2.960982,21.766294,2.888886,
21.711114,2.833706,21.639018,2.803843,21.600000,2.800000,4.000000,2.800000,3.960982,2.803843,3.888886,2.833706,3.833706,2.888886,3.803843,2.960982,3.800000,3.000000,3.800000,20.600000,3.803843,20.639018,3.833706,20.711114,3.888886,20.766294,3.960982,20.796157,4.000000,20.800000,20.600000,20.800000,20.639018,20.796157,20.711114,20.766294,20.766294,20.711114,20.796157,20.639018,
20.800000,20.600000,20.800000,4.000000,20.796157,3.960982,20.766294,3.888886,20.711114,3.833706,20.639018,3.803843,20.600000,3.800000,5.000000,3.800000,4.960982,3.803843,4.888886,3.833706,4.833706,3.888886,4.803843,3.960982,4.800000,4.000000,4.800000,19.600000,4.803843,19.639018,4.833706,19.711114,4.888886,19.766294,4.960982,19.796157,5.000000,19.800000,19.600000,19.800000,
19.639018,19.796157,19.711114,19.766294,19.766294,19.711114,19.796157,19.639018,19.800000,19.600000,19.800000,5.000000,19.796157,4.960982,19.766294,4.888886,19.711114,4.833706,19.639018,4.803843,19.600000,4.800000,6.000000,4.800000,5.960982,4.803843,5.888886,4.833706,5.833706,4.888886,5.803843,4.960982,5.800000,5.000000,5.800000,18.600000,5.803843,18.639018,5.833706,18.711114,
5.888886,18.766294,5.960982,18.796157,6.000000,18.800000,18.600000,18.800000,18.639018,18.796157,18.711114,18.766294,18.766294,18.711114,18.796157,18.639018,18.800000,18.600000,18.800000,6.000000,18.796157,5.960982,18.766294,5.888886,18.711114,5.833706,18.639018,5.803843,18.560982,5.803843,18.488886,5.833706,18.433706,5.888886,18.403843,5.960982,18.400000,6.000000,18.400000,18.400000,
6.200000,18.400000,6.200000,5.200000,19.400000,5.200000,19.400000,19.400000,5.200000,19.400000,5.200000,4.200000,20.400000,4.200000,20.400000,20.400000,4.200000,20.400000,4.200000,3.200000,21.400000,3.200000,21.400000,21.400000,3.200000,21.400000,3.200000,2.200000,22.400000,2.200000,22.400000,22.400000,2.200000,22.400000,2.200000,1.200000,23.400000,1.200000,23.400000,23.400000,
1.200000,23.400000,1.200000,0.200000,24.400000,0.200000,24.400000,24.400000,0.200000,24.400000,0.200000,0.000000,0.196157,-0.039018,0.166294,-0.111114,0.111114,-0.166294,0.039018,-0.196157,-0.039018,-0.196157,-0.111114,-0.166294,-0.166294,-0.111114,-0.196157,-0.039018,-0.200000,0.000000,-0.200000,24.600000,-0.196157,24.639018,-0.166294,24.711114,-0.111114,24.766294,-0.039018,24.796157,
0.000000,24.800000,24.600000,24.800000,24.639018,24.796157,24.639018,24.796157,$1*%
%AMFreePoly1*
4,1,21,11.639018,0.196157,11.711114,0.166294,11.766294,0.111114,11.796157,0.039018,11.796157,-0.039018,11.766294,-0.111114,11.711114,-0.166294,11.639018,-0.196157,11.600000,-0.200000,0.000000,-0.200000,-0.039018,-0.196157,-0.111114,-0.166294,-0.166294,-0.111114,-0.196157,-0.039018,-0.196157,0.039018,-0.166294,0.111114,-0.111114,0.166294,-0.039018,0.196157,0.000000,0.200000,11.600000,0.200000,
11.639018,0.196157,11.639018,0.196157,$1*%
G04 Aperture macros list end*
%TA.AperFunction,EtchedComponent*%
%ADD10C,0.000000*%
%TD*%
%TA.AperFunction,SMDPad,CuDef*%
%ADD11R,0.540000X0.790000*%
%TD*%
%TA.AperFunction,SMDPad,CuDef*%
%ADD12R,0.790000X0.540000*%
%TD*%
%TA.AperFunction,SMDPad,CuDef*%
%ADD13R,0.900000X0.800000*%
%TD*%
%TA.AperFunction,SMDPad,CuDef*%
%ADD14R,0.810000X0.860000*%
%TD*%
%TA.AperFunction,SMDPad,CuDef*%
%ADD15R,0.490000X0.290000*%
%TD*%
%TA.AperFunction,SMDPad,CuDef*%
%ADD16R,0.490000X0.430000*%
%TD*%
%TA.AperFunction,ComponentPad*%
%ADD17C,5.000000*%
%TD*%
%TA.AperFunction,SMDPad,CuDef*%
%ADD18R,1.100000X0.800000*%
%TD*%
%TA.AperFunction,SMDPad,CuDef*%
%ADD19R,0.570000X0.540000*%
%TD*%
%TA.AperFunction,SMDPad,CuDef*%
%ADD20RoundRect,0.032500X0.387500X0.097500X-0.387500X0.097500X-0.387500X-0.097500X0.387500X-0.097500X0*%
%TD*%
%TA.AperFunction,SMDPad,CuDef*%
%ADD21RoundRect,0.032500X0.097500X0.387500X-0.097500X0.387500X-0.097500X-0.387500X0.097500X-0.387500X0*%
%TD*%
%TA.AperFunction,SMDPad,CuDef*%
%ADD22R,3.500000X3.500000*%
%TD*%
%TA.AperFunction,SMDPad,CuDef*%
%ADD23R,0.700000X0.900000*%
%TD*%
%TA.AperFunction,SMDPad,CuDef*%
%ADD24R,0.860000X0.800000*%
%TD*%
%TA.AperFunction,SMDPad,CuDef*%
%ADD25R,1.530000X1.360000*%
%TD*%
%TA.AperFunction,ComponentPad*%
%ADD26C,0.400000*%
%TD*%
%TA.AperFunction,SMDPad,CuDef*%
%ADD27FreePoly0,0.000000*%
%TD*%
%TA.AperFunction,SMDPad,CuDef*%
%ADD28FreePoly1,0.000000*%
%TD*%
%TA.AperFunction,SMDPad,CuDef*%
%ADD29R,1.200000X2.000000*%
%TD*%
%TA.AperFunction,SMDPad,CuDef*%
%ADD30R,0.800000X1.000000*%
%TD*%
%TA.AperFunction,SMDPad,CuDef*%
%ADD31R,0.850000X0.700000*%
%TD*%
%TA.AperFunction,ComponentPad*%
%ADD32C,0.650000*%
%TD*%
%TA.AperFunction,ComponentPad*%
%ADD33O,1.000000X2.100000*%
%TD*%
%TA.AperFunction,ComponentPad*%
%ADD34O,1.000000X1.800000*%
%TD*%
%TA.AperFunction,SMDPad,CuDef*%
%ADD35R,0.600000X1.150000*%
%TD*%
%TA.AperFunction,SMDPad,CuDef*%
%ADD36R,0.300000X1.150000*%
%TD*%
%TA.AperFunction,ConnectorPad*%
%ADD37R,0.500000X0.500000*%
%TD*%
%TA.AperFunction,ComponentPad*%
%ADD38R,0.500000X0.900000*%
%TD*%
%TA.AperFunction,SMDPad,CuDef*%
%ADD39R,4.850000X4.850000*%
%TD*%
%TA.AperFunction,SMDPad,CuDef*%
%ADD40C,0.275000*%
%TD*%
%TA.AperFunction,ViaPad*%
%ADD41C,0.600000*%
%TD*%
%TA.AperFunction,ViaPad*%
%ADD42C,0.250000*%
%TD*%
%TA.AperFunction,Conductor*%
%ADD43C,0.200000*%
%TD*%
G04 APERTURE END LIST*
D10*
%TA.AperFunction,EtchedComponent*%
%TO.C,AE1*%
G36*
X204915000Y-128700000D02*
G01*
X200975000Y-128700000D01*
X200975000Y-130400000D01*
X203615000Y-130400000D01*
X203615000Y-133400000D01*
X200975000Y-133400000D01*
X200975000Y-135100000D01*
X203615000Y-135100000D01*
X203615000Y-138100000D01*
X200975000Y-138100000D01*
X200975000Y-139800000D01*
X205875000Y-139800000D01*
X205875000Y-140300000D01*
X200975000Y-140300000D01*
X200975000Y-141700000D01*
X205875000Y-141700000D01*
X205875000Y-142600000D01*
X205631785Y-142600000D01*
X200475000Y-142600000D01*
X200475000Y-142157267D01*
X205477018Y-142157267D01*
X205484908Y-142205353D01*
X205501814Y-142238245D01*
X205538584Y-142273185D01*
X205583378Y-142292847D01*
X205631785Y-142297583D01*
X205679395Y-142287742D01*
X205721797Y-142263674D01*
X205754581Y-142225731D01*
X205758935Y-142217819D01*
X205771043Y-142175156D01*
X205770300Y-142126637D01*
X205757400Y-142081122D01*
X205746787Y-142062511D01*
X205711553Y-142028868D01*
X205666368Y-142008309D01*
X205616842Y-142001778D01*
X205568583Y-142010218D01*
X205536357Y-142027112D01*
X205503687Y-142062372D01*
X205483592Y-142107682D01*
X205477018Y-142157267D01*
X200475000Y-142157267D01*
X200475000Y-137600000D01*
X203115000Y-137600000D01*
X203115000Y-135600000D01*
X200475000Y-135600000D01*
X200475000Y-132900000D01*
X203115000Y-132900000D01*
X203115000Y-130900000D01*
X200475000Y-130900000D01*
X200475000Y-128200000D01*
X204915000Y-128200000D01*
X204915000Y-128700000D01*
G37*
%TD.AperFunction*%
%TD*%
D11*
%TO.P,C31,1*%
%TO.N,GND*%
X220500000Y-134500000D03*
%TO.P,C31,2*%
%TO.N,VDD3.3v*%
X220500000Y-133400000D03*
%TD*%
D12*
%TO.P,C10,1*%
%TO.N,GND*%
X211900000Y-117500000D03*
%TO.P,C10,2*%
%TO.N,Net-(U2-AGDC)*%
X213000000Y-117500000D03*
%TD*%
D13*
%TO.P,C3,1*%
%TO.N,vusb*%
X217500000Y-133600000D03*
%TO.P,C3,2*%
%TO.N,GND*%
X217500000Y-135000000D03*
%TD*%
D12*
%TO.P,C35,1*%
%TO.N,ST_RFI1*%
X203500000Y-117780000D03*
%TO.P,C35,2*%
%TO.N,GND*%
X204600000Y-117780000D03*
%TD*%
D14*
%TO.P,R4,1*%
%TO.N,GND*%
X209000000Y-123500000D03*
%TO.P,R4,2*%
%TO.N,NRF_NFC_2*%
X210500000Y-123500000D03*
%TD*%
D13*
%TO.P,C17,1*%
%TO.N,GND*%
X229000000Y-112100000D03*
%TO.P,C17,2*%
%TO.N,Net-(U2-VDD_A)*%
X229000000Y-113500000D03*
%TD*%
D15*
%TO.P,Q2,1,G*%
%TO.N,NFC_SW*%
X207500000Y-123300000D03*
%TO.P,Q2,2,S*%
%TO.N,NRF_NFC_2*%
X207500000Y-122500000D03*
D16*
%TO.P,Q2,3,D*%
%TO.N,Net-(Q2-D)*%
X206440000Y-122900000D03*
%TD*%
D12*
%TO.P,L5,1,1*%
%TO.N,Net-(C40-Pad1)*%
X208900000Y-111750000D03*
%TO.P,L5,2,2*%
%TO.N,ST_RFO2*%
X210000000Y-111750000D03*
%TD*%
%TO.P,C34,1*%
%TO.N,GND*%
X214900000Y-122000000D03*
%TO.P,C34,2*%
%TO.N,VDD3.3v*%
X216000000Y-122000000D03*
%TD*%
D11*
%TO.P,C18,1*%
%TO.N,GND*%
X226500000Y-119000000D03*
%TO.P,C18,2*%
%TO.N,Net-(U2-VDD_D)*%
X226500000Y-117900000D03*
%TD*%
%TO.P,C27,1*%
%TO.N,GND*%
X211000000Y-126900000D03*
%TO.P,C27,2*%
%TO.N,DCC*%
X211000000Y-128000000D03*
%TD*%
D17*
%TO.P,REF\u002A\u002A,1*%
%TO.N,N/C*%
X237000000Y-147000000D03*
%TD*%
D11*
%TO.P,C12,1*%
%TO.N,GND*%
X217000000Y-109900000D03*
%TO.P,C12,2*%
%TO.N,Net-(U2-VDD_DR)*%
X217000000Y-111000000D03*
%TD*%
D18*
%TO.P,Y2,1,1*%
%TO.N,Net-(U1-XC1)*%
X226900000Y-123010000D03*
%TO.P,Y2,2,2*%
%TO.N,GND*%
X228500000Y-123000000D03*
%TO.P,Y2,3,3*%
%TO.N,Net-(U1-XC2)*%
X228500000Y-121850000D03*
%TO.P,Y2,4,4*%
%TO.N,GND*%
X226900000Y-121860000D03*
%TD*%
D12*
%TO.P,C36,1*%
%TO.N,NFC_ANT_1*%
X204600000Y-116280000D03*
%TO.P,C36,2*%
%TO.N,ST_RFI1*%
X203500000Y-116280000D03*
%TD*%
D19*
%TO.P,R5,1*%
%TO.N,VDD3.3v*%
X226140000Y-139500000D03*
%TO.P,R5,2*%
%TO.N,RESET*%
X227000000Y-139500000D03*
%TD*%
D12*
%TO.P,C28,1*%
%TO.N,Net-(U1-DEC3)*%
X216000000Y-120500000D03*
%TO.P,C28,2*%
%TO.N,GND*%
X214900000Y-120500000D03*
%TD*%
%TO.P,C25,1*%
%TO.N,GND*%
X214000000Y-139500000D03*
%TO.P,C25,2*%
%TO.N,Net-(U1-P0.01{slash}XL2)*%
X212900000Y-139500000D03*
%TD*%
D20*
%TO.P,U2,1,VDD_IO*%
%TO.N,VDD3.3v*%
X221185000Y-117185000D03*
%TO.P,U2,2,CSO*%
%TO.N,unconnected-(U2-CSO-Pad2)*%
X221185000Y-116685000D03*
%TO.P,U2,3,VDD_D*%
%TO.N,Net-(U2-VDD_D)*%
X221185000Y-116185000D03*
%TO.P,U2,4,XTO*%
%TO.N,Net-(U2-XTO)*%
X221185000Y-115685000D03*
%TO.P,U2,5,XTI*%
%TO.N,Net-(U2-XTI)*%
X221185000Y-115185000D03*
%TO.P,U2,6,GND_D*%
%TO.N,GND*%
X221185000Y-114685000D03*
%TO.P,U2,7,VDD_A*%
%TO.N,Net-(U2-VDD_A)*%
X221185000Y-114185000D03*
%TO.P,U2,8,VDD*%
%TO.N,vusb*%
X221185000Y-113685000D03*
D21*
%TO.P,U2,9,VDD_RF*%
%TO.N,Net-(U2-VDD_DR)*%
X220500000Y-113000000D03*
%TO.P,U2,10,VDD_TX*%
%TO.N,vusb*%
X220000000Y-113000000D03*
%TO.P,U2,11,VDD_AM*%
%TO.N,Net-(U2-VDD_AM)*%
X219500000Y-113000000D03*
%TO.P,U2,12,GND_DR*%
%TO.N,GND*%
X219000000Y-113000000D03*
%TO.P,U2,13,RFO1*%
%TO.N,ST_RFO1*%
X218500000Y-113000000D03*
%TO.P,U2,14,VDD_DR*%
%TO.N,Net-(U2-VDD_DR)*%
X218000000Y-113000000D03*
%TO.P,U2,15,RFO2*%
%TO.N,ST_RFO2*%
X217500000Y-113000000D03*
%TO.P,U2,16,GND_DR*%
%TO.N,GND*%
X217000000Y-113000000D03*
D20*
%TO.P,U2,17,EXT_LM*%
%TO.N,unconnected-(U2-EXT_LM-Pad17)*%
X216315000Y-113685000D03*
%TO.P,U2,18,AAT_A*%
%TO.N,unconnected-(U2-AAT_A-Pad18)*%
X216315000Y-114185000D03*
%TO.P,U2,19,AAT_B*%
%TO.N,unconnected-(U2-AAT_B-Pad19)*%
X216315000Y-114685000D03*
%TO.P,U2,20,I2C_EN*%
%TO.N,GND*%
X216315000Y-115185000D03*
%TO.P,U2,21,VSS*%
X216315000Y-115685000D03*
%TO.P,U2,22,RFI1*%
%TO.N,ST_RFI1*%
X216315000Y-116185000D03*
%TO.P,U2,23,RFI2*%
%TO.N,ST_RFI2*%
X216315000Y-116685000D03*
%TO.P,U2,24,AGDC*%
%TO.N,Net-(U2-AGDC)*%
X216315000Y-117185000D03*
D21*
%TO.P,U2,25,CSI*%
%TO.N,unconnected-(U2-CSI-Pad25)*%
X217000000Y-117870000D03*
%TO.P,U2,26,GND_A*%
%TO.N,GND*%
X217500000Y-117870000D03*
%TO.P,U2,27,IRQ*%
%TO.N,IRQ*%
X218000000Y-117870000D03*
%TO.P,U2,28,MCU_CLK*%
%TO.N,unconnected-(U2-MCU_CLK-Pad28)*%
X218500000Y-117870000D03*
%TO.P,U2,29,~{BSS}*%
%TO.N,CS*%
X219000000Y-117870000D03*
%TO.P,U2,30,SCLK/SCL*%
%TO.N,SCLK*%
X219500000Y-117870000D03*
%TO.P,U2,31,MOSI*%
%TO.N,MOSI*%
X220000000Y-117870000D03*
%TO.P,U2,32,MISO/SDA*%
%TO.N,MISO*%
X220500000Y-117870000D03*
D22*
%TO.P,U2,33,EXP*%
%TO.N,GND*%
X218750000Y-115435000D03*
%TD*%
D11*
%TO.P,C16,1*%
%TO.N,GND*%
X227500000Y-112400000D03*
%TO.P,C16,2*%
%TO.N,Net-(U2-VDD_A)*%
X227500000Y-113500000D03*
%TD*%
D23*
%TO.P,LED1,1,DO*%
%TO.N,unconnected-(LED1-DO-Pad1)*%
X212450000Y-145920000D03*
%TO.P,LED1,2,GND*%
%TO.N,GND*%
X213550000Y-145920000D03*
%TO.P,LED1,3,DI*%
%TO.N,NEOPIXEL_1*%
X213550000Y-144080000D03*
%TO.P,LED1,4,VDD*%
%TO.N,vusb*%
X212450000Y-144080000D03*
%TD*%
D11*
%TO.P,C8,1*%
%TO.N,GND*%
X219950000Y-109900000D03*
%TO.P,C8,2*%
%TO.N,vusb*%
X219950000Y-111000000D03*
%TD*%
D24*
%TO.P,L2,1,1*%
%TO.N,Net-(L1-Pad2)*%
X212500000Y-129500000D03*
%TO.P,L2,2,2*%
%TO.N,DCC*%
X212500000Y-128100000D03*
%TD*%
D11*
%TO.P,C26,1*%
%TO.N,GND*%
X209500000Y-126900000D03*
%TO.P,C26,2*%
%TO.N,DCC*%
X209500000Y-128000000D03*
%TD*%
D12*
%TO.P,C44,1*%
%TO.N,GND*%
X204600000Y-107280000D03*
%TO.P,C44,2*%
%TO.N,ST_RFI2*%
X203500000Y-107280000D03*
%TD*%
D23*
%TO.P,LED2,1,DO*%
%TO.N,unconnected-(LED2-DO-Pad1)*%
X226400000Y-146000000D03*
%TO.P,LED2,2,GND*%
%TO.N,GND*%
X227500000Y-146000000D03*
%TO.P,LED2,3,DI*%
%TO.N,NEOPIXEL_2*%
X227500000Y-144160000D03*
%TO.P,LED2,4,VDD*%
%TO.N,vusb*%
X226400000Y-144160000D03*
%TD*%
D12*
%TO.P,C24,1*%
%TO.N,GND*%
X214000000Y-141000000D03*
%TO.P,C24,2*%
%TO.N,Net-(U1-P0.00{slash}XL1)*%
X212900000Y-141000000D03*
%TD*%
%TO.P,C33,1*%
%TO.N,GND*%
X226500000Y-132000000D03*
%TO.P,C33,2*%
%TO.N,Net-(U1-ANT)*%
X225400000Y-132000000D03*
%TD*%
%TO.P,C37,1*%
%TO.N,NFC_ANT_1*%
X206000000Y-114780000D03*
%TO.P,C37,2*%
%TO.N,Net-(C37-Pad2)*%
X207100000Y-114780000D03*
%TD*%
D25*
%TO.P,SW4,1,1*%
%TO.N,RESET*%
X229460000Y-144000000D03*
%TO.P,SW4,2,2*%
%TO.N,GND*%
X233540000Y-144000000D03*
%TD*%
D12*
%TO.P,C22,1*%
%TO.N,Net-(U1-XC2)*%
X223000000Y-122000000D03*
%TO.P,C22,2*%
%TO.N,GND*%
X221900000Y-122000000D03*
%TD*%
D26*
%TO.P,AE2,1*%
%TO.N,NFC_ANT_1*%
X207700000Y-105800000D03*
D27*
X207700000Y-105800000D03*
D26*
%TO.P,AE2,2*%
%TO.N,NFC_ANT_2*%
X214700000Y-99800000D03*
D28*
X214700000Y-99800000D03*
%TD*%
D11*
%TO.P,C4,1*%
%TO.N,GND*%
X223500000Y-112400000D03*
%TO.P,C4,2*%
%TO.N,vusb*%
X223500000Y-113500000D03*
%TD*%
D17*
%TO.P,REF\u002A\u002A,1*%
%TO.N,N/C*%
X203000000Y-83000000D03*
%TD*%
D29*
%TO.P,SW2,1,1*%
%TO.N,BUTTON_2*%
X234550000Y-129600000D03*
%TO.P,SW2,2,2*%
X234550000Y-121000000D03*
%TO.P,SW2,3,3*%
%TO.N,GND*%
X238450000Y-129600000D03*
%TO.P,SW2,4,4*%
X238450000Y-121000000D03*
%TD*%
D19*
%TO.P,R2,1*%
%TO.N,Net-(USB1-CC2)*%
X222000000Y-140000000D03*
%TO.P,R2,2*%
%TO.N,GND*%
X222860000Y-140000000D03*
%TD*%
D11*
%TO.P,C14,1*%
%TO.N,GND*%
X226500000Y-108900000D03*
%TO.P,C14,2*%
%TO.N,Net-(U2-VDD_AM)*%
X226500000Y-110000000D03*
%TD*%
D30*
%TO.P,Y3,1,1*%
%TO.N,Net-(U1-P0.01{slash}XL2)*%
X212100000Y-137500000D03*
%TO.P,Y3,2,2*%
%TO.N,Net-(U1-P0.00{slash}XL1)*%
X210900000Y-137500000D03*
%TD*%
D29*
%TO.P,SW1,1,1*%
%TO.N,BUTTON_1*%
X234550000Y-140600000D03*
%TO.P,SW1,2,2*%
X234550000Y-132000000D03*
%TO.P,SW1,3,3*%
%TO.N,GND*%
X238450000Y-140600000D03*
%TO.P,SW1,4,4*%
X238450000Y-132000000D03*
%TD*%
D24*
%TO.P,L1,1,1*%
%TO.N,Net-(U1-DCC)*%
X214000000Y-128100000D03*
%TO.P,L1,2,2*%
%TO.N,Net-(L1-Pad2)*%
X214000000Y-129500000D03*
%TD*%
D19*
%TO.P,R1,1*%
%TO.N,Net-(USB1-CC1)*%
X217860000Y-140000000D03*
%TO.P,R1,2*%
%TO.N,GND*%
X217000000Y-140000000D03*
%TD*%
D13*
%TO.P,C15,1*%
%TO.N,GND*%
X228000000Y-108600000D03*
%TO.P,C15,2*%
%TO.N,Net-(U2-VDD_AM)*%
X228000000Y-110000000D03*
%TD*%
D31*
%TO.P,Y1,1,1*%
%TO.N,GND*%
X230200000Y-117400000D03*
%TO.P,Y1,2,2*%
%TO.N,Net-(U2-XTI)*%
X231500000Y-117400000D03*
%TO.P,Y1,3,3*%
%TO.N,GND*%
X231500000Y-116500000D03*
%TO.P,Y1,4,4*%
%TO.N,Net-(U2-XTO)*%
X230200000Y-116500000D03*
%TD*%
D32*
%TO.P,USB1,*%
%TO.N,*%
X217110000Y-143615000D03*
X222890000Y-143615000D03*
D33*
%TO.P,USB1,1,SHELL*%
%TO.N,GND*%
X215680000Y-143115000D03*
%TO.P,USB1,2,SHELL*%
X224320000Y-143115000D03*
D34*
%TO.P,USB1,3,SHELL*%
X215680000Y-147265000D03*
%TO.P,USB1,4,SHELL*%
X224320000Y-147265000D03*
D35*
%TO.P,USB1,A1B12,GND*%
X216800000Y-142545000D03*
%TO.P,USB1,A4B9,VBUS*%
%TO.N,vusb*%
X217600000Y-142545000D03*
D36*
%TO.P,USB1,A5,CC1*%
%TO.N,Net-(USB1-CC1)*%
X218750000Y-142545000D03*
%TO.P,USB1,A6,DP1*%
%TO.N,D+*%
X219750000Y-142545000D03*
%TO.P,USB1,A7,DN1*%
%TO.N,D-*%
X220250000Y-142545000D03*
%TO.P,USB1,A8,SBU1*%
%TO.N,unconnected-(USB1-SBU1-PadA8)*%
X221250000Y-142545000D03*
D35*
%TO.P,USB1,B1A12,GND*%
%TO.N,GND*%
X223200000Y-142545000D03*
%TO.P,USB1,B4A9,VBUS*%
%TO.N,vusb*%
X222400000Y-142545000D03*
D36*
%TO.P,USB1,B5,CC2*%
%TO.N,Net-(USB1-CC2)*%
X221750000Y-142545000D03*
%TO.P,USB1,B6,DP2*%
%TO.N,D+*%
X220750000Y-142545000D03*
%TO.P,USB1,B7,DN2*%
%TO.N,D-*%
X219250000Y-142545000D03*
%TO.P,USB1,B8,SBU2*%
%TO.N,unconnected-(USB1-SBU2-PadB8)*%
X218250000Y-142545000D03*
%TD*%
D12*
%TO.P,L4,1,1*%
%TO.N,Net-(C37-Pad2)*%
X208900000Y-113250000D03*
%TO.P,L4,2,2*%
%TO.N,ST_RFO1*%
X210000000Y-113250000D03*
%TD*%
D13*
%TO.P,C32,1*%
%TO.N,GND*%
X213500000Y-123600000D03*
%TO.P,C32,2*%
%TO.N,VDD3.3v*%
X213500000Y-125000000D03*
%TD*%
D11*
%TO.P,C29,1*%
%TO.N,Net-(U1-DEC1)*%
X212000000Y-132400000D03*
%TO.P,C29,2*%
%TO.N,GND*%
X212000000Y-133500000D03*
%TD*%
%TO.P,C21,1*%
%TO.N,GND*%
X232000000Y-110900000D03*
%TO.P,C21,2*%
%TO.N,Net-(U2-XTO)*%
X232000000Y-112000000D03*
%TD*%
D17*
%TO.P,REF\u002A\u002A,1*%
%TO.N,N/C*%
X237000000Y-83000000D03*
%TD*%
D12*
%TO.P,C38,1*%
%TO.N,GND*%
X206000000Y-113250000D03*
%TO.P,C38,2*%
%TO.N,Net-(C37-Pad2)*%
X207100000Y-113250000D03*
%TD*%
%TO.P,C47,1*%
%TO.N,RESET*%
X229450000Y-139500000D03*
%TO.P,C47,2*%
%TO.N,GND*%
X230550000Y-139500000D03*
%TD*%
D29*
%TO.P,SW3,1,1*%
%TO.N,BUTTON_3*%
X234550000Y-118600000D03*
%TO.P,SW3,2,2*%
X234550000Y-110000000D03*
%TO.P,SW3,3,3*%
%TO.N,GND*%
X238450000Y-118600000D03*
%TO.P,SW3,4,4*%
X238450000Y-110000000D03*
%TD*%
D15*
%TO.P,Q1,1,G*%
%TO.N,NFC_SW*%
X207500000Y-121300000D03*
%TO.P,Q1,2,S*%
%TO.N,NRF_NFC_1*%
X207500000Y-120500000D03*
D16*
%TO.P,Q1,3,D*%
%TO.N,Net-(Q1-D)*%
X206440000Y-120900000D03*
%TD*%
D12*
%TO.P,C46,1*%
%TO.N,NFC_ANT_2*%
X203900000Y-123000000D03*
%TO.P,C46,2*%
%TO.N,Net-(Q2-D)*%
X205000000Y-123000000D03*
%TD*%
D13*
%TO.P,C13,1*%
%TO.N,GND*%
X218500000Y-109600000D03*
%TO.P,C13,2*%
%TO.N,Net-(U2-VDD_DR)*%
X218500000Y-111000000D03*
%TD*%
D11*
%TO.P,C30,1*%
%TO.N,GND*%
X222000000Y-134500000D03*
%TO.P,C30,2*%
%TO.N,VDD3.3v*%
X222000000Y-133400000D03*
%TD*%
D13*
%TO.P,C1,1*%
%TO.N,GND*%
X213500000Y-135000000D03*
%TO.P,C1,2*%
%TO.N,Net-(U1-DECUSB)*%
X213500000Y-133600000D03*
%TD*%
D12*
%TO.P,C11,1*%
%TO.N,GND*%
X211900000Y-119000000D03*
%TO.P,C11,2*%
%TO.N,Net-(U2-AGDC)*%
X213000000Y-119000000D03*
%TD*%
D13*
%TO.P,C19,1*%
%TO.N,GND*%
X228000000Y-119000000D03*
%TO.P,C19,2*%
%TO.N,Net-(U2-VDD_D)*%
X228000000Y-117600000D03*
%TD*%
D14*
%TO.P,R3,1*%
%TO.N,GND*%
X206500000Y-118000000D03*
%TO.P,R3,2*%
%TO.N,NRF_NFC_1*%
X208000000Y-118000000D03*
%TD*%
D11*
%TO.P,C42,1*%
%TO.N,NFC_ANT_2*%
X201600000Y-110230000D03*
%TO.P,C42,2*%
%TO.N,GND*%
X201600000Y-111330000D03*
%TD*%
D13*
%TO.P,C5,1*%
%TO.N,GND*%
X225000000Y-112100000D03*
%TO.P,C5,2*%
%TO.N,vusb*%
X225000000Y-113500000D03*
%TD*%
D12*
%TO.P,L3,1,1*%
%TO.N,Net-(AE1-PCB_Trace)*%
X208020000Y-144000000D03*
%TO.P,L3,2,2*%
%TO.N,Net-(U1-ANT)*%
X209120000Y-144000000D03*
%TD*%
D11*
%TO.P,C39,1*%
%TO.N,GND*%
X201600000Y-113680000D03*
%TO.P,C39,2*%
%TO.N,NFC_ANT_1*%
X201600000Y-114780000D03*
%TD*%
D12*
%TO.P,C45,1*%
%TO.N,NFC_ANT_1*%
X203900000Y-121000000D03*
%TO.P,C45,2*%
%TO.N,Net-(Q1-D)*%
X205000000Y-121000000D03*
%TD*%
%TO.P,C43,1*%
%TO.N,NFC_ANT_2*%
X204600000Y-108780000D03*
%TO.P,C43,2*%
%TO.N,ST_RFI2*%
X203500000Y-108780000D03*
%TD*%
D11*
%TO.P,C6,1*%
%TO.N,GND*%
X223500000Y-119000000D03*
%TO.P,C6,2*%
%TO.N,VDD3.3v*%
X223500000Y-117900000D03*
%TD*%
D13*
%TO.P,C7,1*%
%TO.N,GND*%
X225000000Y-119000000D03*
%TO.P,C7,2*%
%TO.N,VDD3.3v*%
X225000000Y-117600000D03*
%TD*%
%TO.P,C2,1*%
%TO.N,GND*%
X215500000Y-135000000D03*
%TO.P,C2,2*%
%TO.N,VDD3.3v*%
X215500000Y-133600000D03*
%TD*%
D11*
%TO.P,C20,1*%
%TO.N,GND*%
X231500000Y-121500000D03*
%TO.P,C20,2*%
%TO.N,Net-(U2-XTI)*%
X231500000Y-120400000D03*
%TD*%
D37*
%TO.P,AE1,1,FEED*%
%TO.N,GND*%
X205625000Y-140050000D03*
D38*
%TO.P,AE1,2,PCB_Trace*%
%TO.N,Net-(AE1-PCB_Trace)*%
X205625000Y-142150000D03*
%TD*%
D13*
%TO.P,C9,1*%
%TO.N,GND*%
X221500000Y-109600000D03*
%TO.P,C9,2*%
%TO.N,vusb*%
X221500000Y-111000000D03*
%TD*%
D12*
%TO.P,C40,1*%
%TO.N,Net-(C40-Pad1)*%
X207100000Y-111750000D03*
%TO.P,C40,2*%
%TO.N,GND*%
X206000000Y-111750000D03*
%TD*%
D11*
%TO.P,C23,1*%
%TO.N,Net-(U1-XC1)*%
X228000000Y-125450000D03*
%TO.P,C23,2*%
%TO.N,GND*%
X228000000Y-126550000D03*
%TD*%
D12*
%TO.P,C41,1*%
%TO.N,NFC_ANT_2*%
X206000000Y-110280000D03*
%TO.P,C41,2*%
%TO.N,Net-(C40-Pad1)*%
X207100000Y-110280000D03*
%TD*%
D39*
%TO.P,U1,74,VSS*%
%TO.N,GND*%
X219700000Y-127600000D03*
D40*
%TO.P,U1,A8,P0.31/AIN7*%
%TO.N,unconnected-(U1-P0.31{slash}AIN7-PadA8)*%
X218450000Y-124350000D03*
%TO.P,U1,A10,P0.29/AIN5*%
%TO.N,unconnected-(U1-P0.29{slash}AIN5-PadA10)*%
X218950000Y-124350000D03*
%TO.P,U1,A12,P0.02/AIN0*%
%TO.N,unconnected-(U1-P0.02{slash}AIN0-PadA12)*%
X219450000Y-124350000D03*
%TO.P,U1,A14,P1.15*%
%TO.N,unconnected-(U1-P1.15-PadA14)*%
X219950000Y-124350000D03*
%TO.P,U1,A16,P1.13*%
%TO.N,unconnected-(U1-P1.13-PadA16)*%
X220450000Y-124350000D03*
%TO.P,U1,A18,DEC2*%
%TO.N,unconnected-(U1-DEC2-PadA18)*%
X220950000Y-124350000D03*
%TO.P,U1,A20,P1.10*%
%TO.N,unconnected-(U1-P1.10-PadA20)*%
X221450000Y-124350000D03*
%TO.P,U1,A22,VDD*%
%TO.N,VDD3.3v*%
X221950000Y-124350000D03*
%TO.P,U1,A23,XC2*%
%TO.N,Net-(U1-XC2)*%
X222450000Y-124350000D03*
%TO.P,U1,AA24,SWDCLK*%
%TO.N,unconnected-(U1-SWDCLK-PadAA24)*%
X222950000Y-129850000D03*
%TO.P,U1,AB2,DCCH*%
%TO.N,unconnected-(U1-DCCH-PadAB2)*%
X216950000Y-130100000D03*
%TO.P,U1,AC5,DECUSB*%
%TO.N,Net-(U1-DECUSB)*%
X217700000Y-130350000D03*
%TO.P,U1,AC9,P0.14*%
%TO.N,IRQ*%
X218700000Y-130350000D03*
%TO.P,U1,AC11,P0.16*%
%TO.N,CS*%
X219200000Y-130350000D03*
%TO.P,U1,AC13,P0.18/NRESET*%
%TO.N,RESET*%
X219700000Y-130350000D03*
%TO.P,U1,AC15,P0.19*%
%TO.N,unconnected-(U1-P0.19-PadAC15)*%
X220200000Y-130350000D03*
%TO.P,U1,AC17,P0.21*%
%TO.N,SCLK*%
X220700000Y-130350000D03*
%TO.P,U1,AC19,P0.23*%
%TO.N,MOSI*%
X221200000Y-130350000D03*
%TO.P,U1,AC21,P0.25*%
%TO.N,MISO*%
X221700000Y-130350000D03*
%TO.P,U1,AC24,SWDIO*%
%TO.N,unconnected-(U1-SWDIO-PadAC24)*%
X222950000Y-130350000D03*
%TO.P,U1,AD2,VBUS*%
%TO.N,vusb*%
X216950000Y-130850000D03*
%TO.P,U1,AD4,D-*%
%TO.N,D-*%
X217450000Y-130850000D03*
%TO.P,U1,AD6,D+*%
%TO.N,D+*%
X217950000Y-130850000D03*
%TO.P,U1,AD8,P0.13*%
%TO.N,NEOPIXEL_1*%
X218450000Y-130850000D03*
%TO.P,U1,AD10,P0.15*%
%TO.N,unconnected-(U1-P0.15-PadAD10)*%
X218950000Y-130850000D03*
%TO.P,U1,AD12,P0.17*%
%TO.N,unconnected-(U1-P0.17-PadAD12)*%
X219450000Y-130850000D03*
%TO.P,U1,AD14,VDD*%
%TO.N,VDD3.3v*%
X219950000Y-130850000D03*
%TO.P,U1,AD16,P0.20*%
%TO.N,unconnected-(U1-P0.20-PadAD16)*%
X220450000Y-130850000D03*
%TO.P,U1,AD18,P0.22*%
%TO.N,unconnected-(U1-P0.22-PadAD18)*%
X220950000Y-130850000D03*
%TO.P,U1,AD20,P0.24*%
%TO.N,unconnected-(U1-P0.24-PadAD20)*%
X221450000Y-130850000D03*
%TO.P,U1,AD22,P1.00/TRACEDATA0*%
%TO.N,unconnected-(U1-P1.00{slash}TRACEDATA0-PadAD22)*%
X221950000Y-130850000D03*
%TO.P,U1,AD23,VDD*%
%TO.N,VDD3.3v*%
X222450000Y-130850000D03*
%TO.P,U1,B1,VDD*%
X216450000Y-124850000D03*
%TO.P,U1,B3,DCC*%
%TO.N,Net-(U1-DCC)*%
X217200000Y-124850000D03*
%TO.P,U1,B5,DEC4*%
%TO.N,DCC*%
X217700000Y-124850000D03*
%TO.P,U1,B7,VSS*%
%TO.N,GND*%
X218200000Y-124850000D03*
%TO.P,U1,B9,P0.30/AIN6*%
%TO.N,unconnected-(U1-P0.30{slash}AIN6-PadB9)*%
X218700000Y-124850000D03*
%TO.P,U1,B11,P0.28/AIN4*%
%TO.N,unconnected-(U1-P0.28{slash}AIN4-PadB11)*%
X219200000Y-124850000D03*
%TO.P,U1,B13,P0.03/AIN1*%
%TO.N,unconnected-(U1-P0.03{slash}AIN1-PadB13)*%
X219700000Y-124850000D03*
%TO.P,U1,B15,P1.14*%
%TO.N,unconnected-(U1-P1.14-PadB15)*%
X220200000Y-124850000D03*
%TO.P,U1,B17,P1.12*%
%TO.N,unconnected-(U1-P1.12-PadB17)*%
X220700000Y-124850000D03*
%TO.P,U1,B19,P1.11*%
%TO.N,unconnected-(U1-P1.11-PadB19)*%
X221200000Y-124850000D03*
%TO.P,U1,B24,XC1*%
%TO.N,Net-(U1-XC1)*%
X222950000Y-124850000D03*
%TO.P,U1,C1,DEC1*%
%TO.N,Net-(U1-DEC1)*%
X216450000Y-125350000D03*
%TO.P,U1,D2,P0.00/XL1*%
%TO.N,Net-(U1-P0.00{slash}XL1)*%
X216950000Y-125600000D03*
%TO.P,U1,D23,DEC3*%
%TO.N,Net-(U1-DEC3)*%
X222450000Y-125600000D03*
%TO.P,U1,E24,DEC6*%
%TO.N,DCC*%
X222950000Y-125850000D03*
%TO.P,U1,F2,P0.01/XL2*%
%TO.N,Net-(U1-P0.01{slash}XL2)*%
X216950000Y-126100000D03*
%TO.P,U1,F23,VSS_PA*%
%TO.N,GND*%
X222450000Y-126100000D03*
%TO.P,U1,G1,P0.26*%
%TO.N,unconnected-(U1-P0.26-PadG1)*%
X216450000Y-126350000D03*
%TO.P,U1,H2,P0.27*%
%TO.N,unconnected-(U1-P0.27-PadH2)*%
X216950000Y-126600000D03*
%TO.P,U1,H23,ANT*%
%TO.N,Net-(U1-ANT)*%
X222450000Y-126600000D03*
%TO.P,U1,J1,P0.04/AIN2*%
%TO.N,unconnected-(U1-P0.04{slash}AIN2-PadJ1)*%
X216450000Y-126850000D03*
%TO.P,U1,J24,P0.10/NFC2*%
%TO.N,NRF_NFC_2*%
X222950000Y-126850000D03*
%TO.P,U1,K2,P0.05/AIN3*%
%TO.N,unconnected-(U1-P0.05{slash}AIN3-PadK2)*%
X216950000Y-127100000D03*
%TO.P,U1,L1,P0.06*%
%TO.N,unconnected-(U1-P0.06-PadL1)*%
X216450000Y-127350000D03*
%TO.P,U1,L24,P0.09/NFC1*%
%TO.N,NRF_NFC_1*%
X222950000Y-127350000D03*
%TO.P,U1,M2,P0.07/TRACECLK*%
%TO.N,unconnected-(U1-P0.07{slash}TRACECLK-PadM2)*%
X216950000Y-127600000D03*
%TO.P,U1,N1,P0.08*%
%TO.N,NFC_SW*%
X216450000Y-127850000D03*
%TO.P,U1,N24,DEC5*%
%TO.N,unconnected-(U1-DEC5-PadN24)*%
X222950000Y-127850000D03*
%TO.P,U1,P2,P1.08*%
%TO.N,unconnected-(U1-P1.08-PadP2)*%
X216950000Y-128100000D03*
%TO.P,U1,P23,P1.07*%
%TO.N,BUTTON_3*%
X222450000Y-128100000D03*
%TO.P,U1,R1,P1.09/TRACEDATA3*%
%TO.N,unconnected-(U1-P1.09{slash}TRACEDATA3-PadR1)*%
X216450000Y-128350000D03*
%TO.P,U1,R24,P1.06*%
%TO.N,BUTTON_2*%
X222950000Y-128350000D03*
%TO.P,U1,T2,P0.11/TRACEDATA2*%
%TO.N,unconnected-(U1-P0.11{slash}TRACEDATA2-PadT2)*%
X216950000Y-128600000D03*
%TO.P,U1,T23,P1.05*%
%TO.N,BUTTON_1*%
X222450000Y-128600000D03*
%TO.P,U1,U1,P0.12/TRACEDATA1*%
%TO.N,unconnected-(U1-P0.12{slash}TRACEDATA1-PadU1)*%
X216450000Y-128850000D03*
%TO.P,U1,U24,P1.04*%
%TO.N,unconnected-(U1-P1.04-PadU24)*%
X222950000Y-128850000D03*
%TO.P,U1,V23,P1.03*%
%TO.N,unconnected-(U1-P1.03-PadV23)*%
X222450000Y-129100000D03*
%TO.P,U1,W1,VDD*%
%TO.N,VDD3.3v*%
X216450000Y-129350000D03*
%TO.P,U1,W24,P1.02*%
%TO.N,NEOPIXEL_2*%
X222950000Y-129350000D03*
%TO.P,U1,Y2,VDDH*%
%TO.N,VDD3.3v*%
X216950000Y-129600000D03*
%TO.P,U1,Y23,P1.01*%
%TO.N,unconnected-(U1-P1.01-PadY23)*%
X222450000Y-129600000D03*
%TD*%
D17*
%TO.P,REF\u002A\u002A,1*%
%TO.N,N/C*%
X203000000Y-147000000D03*
%TD*%
D41*
%TO.N,GND*%
X222000000Y-118000000D03*
X205000000Y-113680000D03*
X222975735Y-122975735D03*
X222731478Y-114840399D03*
D42*
X218200000Y-124850000D03*
D41*
X224500000Y-125500000D03*
X214000000Y-114000000D03*
X212500000Y-127000000D03*
X208000000Y-116500000D03*
X216500000Y-119000000D03*
X225000000Y-122500000D03*
X213500000Y-121500000D03*
X215000000Y-114000000D03*
%TO.N,NFC_ANT_1*%
X201500000Y-117000000D03*
%TO.N,NFC_ANT_2*%
X204150000Y-110230000D03*
X204000000Y-105000000D03*
X202500000Y-122000000D03*
%TO.N,Net-(U1-DECUSB)*%
X214000000Y-132000000D03*
D42*
X217700000Y-130350000D03*
D41*
%TO.N,VDD3.3v*%
X221000000Y-132500000D03*
X221500000Y-135500000D03*
X216500000Y-132500000D03*
X220100000Y-122900000D03*
X225000000Y-117600000D03*
%TO.N,vusb*%
X217500000Y-141500000D03*
X222500000Y-141500000D03*
X212500000Y-143000000D03*
X218500000Y-138500000D03*
X223900000Y-140000000D03*
X226000000Y-113500000D03*
X223500000Y-136000000D03*
X226500000Y-135500000D03*
X222801735Y-110301735D03*
%TO.N,Net-(U2-VDD_DR)*%
X217750000Y-111750000D03*
X222000000Y-112500000D03*
%TO.N,Net-(U2-VDD_AM)*%
X221000000Y-112000000D03*
X219400000Y-112000000D03*
%TO.N,Net-(U2-XTI)*%
X228500000Y-115758450D03*
X229500000Y-119500000D03*
%TO.N,Net-(U2-XTO)*%
X231500000Y-113500000D03*
X229500000Y-115500000D03*
%TO.N,Net-(U1-XC1)*%
X228000000Y-124500000D03*
X225455000Y-124455000D03*
D42*
%TO.N,Net-(U1-P0.00{slash}XL1)*%
X216000000Y-126500000D03*
D41*
X210500000Y-134000000D03*
%TO.N,Net-(U1-P0.01{slash}XL2)*%
X211500000Y-135500000D03*
D42*
X216950000Y-126100000D03*
D41*
%TO.N,DCC*%
X217000000Y-122900000D03*
D42*
X223096256Y-125288769D03*
D41*
X211500000Y-129000000D03*
X220869121Y-123717651D03*
%TO.N,Net-(U1-DEC3)*%
X222174265Y-123325735D03*
D42*
X222450000Y-125600000D03*
D41*
%TO.N,Net-(U1-DEC1)*%
X211500000Y-131500000D03*
D42*
X216450000Y-125350000D03*
D41*
%TO.N,Net-(U1-ANT)*%
X225500000Y-130500000D03*
X224000000Y-133000000D03*
D42*
X222450000Y-126600000D03*
D41*
X211000000Y-144000000D03*
%TO.N,ST_RFI2*%
X211500000Y-115000000D03*
X211500000Y-110500000D03*
D42*
%TO.N,RESET*%
X219700000Y-130350000D03*
D41*
X223500000Y-134500000D03*
%TO.N,Net-(U1-DCC)*%
X216540156Y-124218905D03*
X214000000Y-127000000D03*
%TO.N,ST_RFO1*%
X214000000Y-111500000D03*
X218600000Y-112000000D03*
%TO.N,ST_RFO2*%
X214000000Y-110500000D03*
X216124265Y-111624265D03*
D42*
%TO.N,NEOPIXEL_1*%
X218450000Y-130850000D03*
D41*
X213500000Y-142500000D03*
%TO.N,NEOPIXEL_2*%
X224000000Y-132000000D03*
X226000000Y-141000000D03*
%TO.N,NFC_SW*%
X214102000Y-131000000D03*
X207500000Y-125000000D03*
X208500000Y-121500000D03*
D42*
X216450000Y-127850000D03*
D41*
%TO.N,NRF_NFC_1*%
X210500000Y-118699997D03*
X226500000Y-126900000D03*
%TO.N,NRF_NFC_2*%
X210500000Y-119500000D03*
X225500000Y-126100000D03*
D42*
%TO.N,BUTTON_1*%
X222450000Y-128600000D03*
D41*
X225000000Y-129000000D03*
%TO.N,BUTTON_3*%
X225000000Y-127500000D03*
D42*
X222450000Y-128100000D03*
%TO.N,MISO*%
X221700000Y-130350000D03*
D41*
X220786793Y-119529761D03*
%TO.N,SCLK*%
X219114579Y-119487851D03*
D42*
X220700000Y-130350000D03*
%TO.N,CS*%
X219200000Y-130350000D03*
D41*
X218500000Y-120000000D03*
%TO.N,D-*%
X219150000Y-140000000D03*
X220400000Y-141000000D03*
%TO.N,IRQ*%
X217543849Y-119979567D03*
D42*
X218700000Y-130350000D03*
D41*
%TO.N,MOSI*%
X219991063Y-119447187D03*
D42*
X221200000Y-130350000D03*
%TD*%
D43*
%TO.N,Net-(U1-XC2)*%
X224000000Y-122000000D02*
X224000000Y-122800000D01*
X224000000Y-122800000D02*
X222450000Y-124350000D01*
X228500000Y-121850000D02*
X227650000Y-121000000D01*
X227650000Y-121000000D02*
X225000000Y-121000000D01*
X225000000Y-121000000D02*
X224000000Y-122000000D01*
%TO.N,Net-(AE1-PCB_Trace)*%
X206290000Y-142150000D02*
X208140000Y-144000000D01*
X205625000Y-142150000D02*
X206290000Y-142150000D01*
%TO.N,GND*%
X216500000Y-139500000D02*
X217000000Y-140000000D01*
X223500000Y-119000000D02*
X225000000Y-119000000D01*
X214000000Y-139500000D02*
X216500000Y-139500000D01*
X211500000Y-117500000D02*
X211900000Y-117500000D01*
X224320000Y-143115000D02*
X223770000Y-143115000D01*
X218200000Y-126100000D02*
X219700000Y-127600000D01*
X222000000Y-118000000D02*
X222500000Y-118000000D01*
X236950000Y-108500000D02*
X231500000Y-108500000D01*
X227000000Y-147265000D02*
X224320000Y-147265000D01*
X221185000Y-114685000D02*
X222576079Y-114685000D01*
X230550000Y-141010000D02*
X233540000Y-144000000D01*
X210500000Y-116500000D02*
X211500000Y-117500000D01*
X215260000Y-145920000D02*
X215680000Y-145500000D01*
X228500000Y-123000000D02*
X226000000Y-125500000D01*
X216800000Y-140200000D02*
X217000000Y-140000000D01*
X215500000Y-111400000D02*
X217000000Y-109900000D01*
X211501000Y-109900000D02*
X217000000Y-109900000D01*
X226500000Y-132000000D02*
X224601000Y-133899000D01*
X227700000Y-108900000D02*
X228000000Y-108600000D01*
X218200000Y-109900000D02*
X218500000Y-109600000D01*
X226100000Y-108900000D02*
X226500000Y-108900000D01*
X229000000Y-112100000D02*
X229000000Y-109600000D01*
X219650000Y-109600000D02*
X219950000Y-109900000D01*
X213500000Y-135000000D02*
X215500000Y-135000000D01*
X217000000Y-113000000D02*
X216000000Y-113000000D01*
X238450000Y-141550000D02*
X237500000Y-142500000D01*
X216500000Y-119429000D02*
X216000000Y-119929000D01*
X215000000Y-114327542D02*
X215000000Y-114000000D01*
X215685000Y-115685000D02*
X214000000Y-114000000D01*
X214749000Y-131751000D02*
X214749000Y-134249000D01*
X212749000Y-124351000D02*
X212749000Y-125701000D01*
X228000000Y-126550000D02*
X227050000Y-126550000D01*
X208881000Y-107280000D02*
X211501000Y-109900000D01*
X213048000Y-126000000D02*
X214500000Y-126000000D01*
X231500000Y-116500000D02*
X231500000Y-114600000D01*
X209000000Y-124600000D02*
X210400000Y-126000000D01*
X216696000Y-119929000D02*
X216000000Y-119929000D01*
X238450000Y-132000000D02*
X238450000Y-140600000D01*
X230200000Y-117400000D02*
X229600000Y-117400000D01*
X201600000Y-111330000D02*
X205580000Y-111330000D01*
X216000000Y-119929000D02*
X215471000Y-119929000D01*
X205580000Y-111330000D02*
X206000000Y-111750000D01*
X224700000Y-112400000D02*
X225000000Y-112100000D01*
X216800000Y-142545000D02*
X216800000Y-141500000D01*
X222891367Y-126411500D02*
X223588500Y-126411500D01*
X216500000Y-119000000D02*
X216500000Y-119429000D01*
X206000000Y-111750000D02*
X206000000Y-113250000D01*
X226500000Y-108900000D02*
X227700000Y-108900000D01*
X231500000Y-121500000D02*
X231000000Y-121500000D01*
X224320000Y-147265000D02*
X224320000Y-143115000D01*
X218448000Y-137552000D02*
X218448000Y-135948000D01*
X233540000Y-144000000D02*
X234000000Y-144000000D01*
X215680000Y-143115000D02*
X216230000Y-143115000D01*
X204820000Y-118000000D02*
X204600000Y-117780000D01*
X217500000Y-119125000D02*
X216696000Y-119929000D01*
X217000000Y-139000000D02*
X217000000Y-140000000D01*
X228700000Y-112400000D02*
X229000000Y-112100000D01*
X224601000Y-133899000D02*
X222601000Y-133899000D01*
X223200000Y-142545000D02*
X223200000Y-140340000D01*
X223588500Y-126411500D02*
X224500000Y-125500000D01*
X238450000Y-110000000D02*
X236950000Y-108500000D01*
X208000000Y-116500000D02*
X210500000Y-116500000D01*
X218500000Y-109600000D02*
X219650000Y-109600000D01*
X205570000Y-113680000D02*
X206000000Y-113250000D01*
X212500000Y-127000000D02*
X212000000Y-126500000D01*
X228000000Y-119000000D02*
X230000000Y-121000000D01*
X214900000Y-122000000D02*
X214900000Y-122200000D01*
X223770000Y-143115000D02*
X223200000Y-142545000D01*
X227050000Y-126550000D02*
X226000000Y-125500000D01*
X215500000Y-112500000D02*
X215500000Y-111400000D01*
X217399000Y-120899000D02*
X217000000Y-120500000D01*
X217000000Y-120500000D02*
X217000000Y-120233000D01*
X238450000Y-118600000D02*
X238450000Y-121000000D01*
X206500000Y-118000000D02*
X208000000Y-116500000D01*
X213550000Y-145920000D02*
X215260000Y-145920000D01*
X210001000Y-142399000D02*
X212601000Y-142399000D01*
X218200000Y-124850000D02*
X218200000Y-126100000D01*
X222330000Y-139000000D02*
X222860000Y-139530000D01*
X227200000Y-112100000D02*
X227500000Y-112400000D01*
X230400000Y-109600000D02*
X229000000Y-109600000D01*
X213500000Y-121500000D02*
X214050000Y-122050000D01*
X215000000Y-131500000D02*
X214749000Y-131751000D01*
X226500000Y-119000000D02*
X228000000Y-119000000D01*
X217500000Y-117870000D02*
X217500000Y-119125000D01*
X219000000Y-115185000D02*
X218750000Y-115435000D01*
X230000000Y-122500000D02*
X229500000Y-123000000D01*
X221349943Y-122000000D02*
X220248943Y-120899000D01*
X221000000Y-139000000D02*
X222330000Y-139000000D01*
X212749000Y-125701000D02*
X213048000Y-126000000D01*
X226900000Y-121860000D02*
X225640000Y-121860000D01*
X213500000Y-123600000D02*
X212749000Y-124351000D01*
X238450000Y-110000000D02*
X238450000Y-118600000D01*
X215471000Y-119929000D02*
X214900000Y-120500000D01*
X223500000Y-112400000D02*
X224700000Y-112400000D01*
X238450000Y-140600000D02*
X238450000Y-141550000D01*
X205000000Y-113680000D02*
X205570000Y-113680000D01*
X214050000Y-123050000D02*
X213500000Y-123600000D01*
X217500000Y-135000000D02*
X218448000Y-135948000D01*
X230275000Y-147265000D02*
X233540000Y-144000000D01*
X222875735Y-122975735D02*
X221900000Y-122000000D01*
X214749000Y-134249000D02*
X215500000Y-135000000D01*
X226000000Y-125500000D02*
X224500000Y-125500000D01*
X222450000Y-126100000D02*
X222426000Y-126100000D01*
X230550000Y-139500000D02*
X230550000Y-141010000D01*
X205625000Y-140050000D02*
X207652000Y-140050000D01*
X214000000Y-141000000D02*
X216300000Y-141000000D01*
X225000000Y-119000000D02*
X226500000Y-119000000D01*
X225000000Y-112100000D02*
X227200000Y-112100000D01*
X223200000Y-140340000D02*
X222860000Y-140000000D01*
X211900000Y-117500000D02*
X211900000Y-119000000D01*
X227500000Y-112400000D02*
X228700000Y-112400000D01*
X218750000Y-115435000D02*
X217500000Y-116685000D01*
X207652000Y-140050000D02*
X210001000Y-142399000D01*
X225400000Y-109600000D02*
X226100000Y-108900000D01*
X216315000Y-115185000D02*
X215857458Y-115185000D01*
X221500000Y-109600000D02*
X225400000Y-109600000D01*
X229000000Y-109600000D02*
X228000000Y-108600000D01*
X218448000Y-137552000D02*
X217000000Y-139000000D01*
X231700000Y-110900000D02*
X230400000Y-109600000D01*
X212000000Y-133500000D02*
X213500000Y-135000000D01*
X222579867Y-126100000D02*
X222891367Y-126411500D01*
X201600000Y-113680000D02*
X205000000Y-113680000D01*
X232000000Y-110900000D02*
X231700000Y-110900000D01*
X212000000Y-125100000D02*
X212749000Y-124351000D01*
X229500000Y-123000000D02*
X228500000Y-123000000D01*
X227500000Y-146765000D02*
X227000000Y-147265000D01*
X225640000Y-121860000D02*
X225000000Y-122500000D01*
X215680000Y-147265000D02*
X215680000Y-145500000D01*
X215000000Y-126500000D02*
X215000000Y-131500000D01*
X221900000Y-122000000D02*
X221349943Y-122000000D01*
X204600000Y-107280000D02*
X208881000Y-107280000D01*
X222975735Y-122975735D02*
X222875735Y-122975735D01*
X238450000Y-129600000D02*
X238450000Y-132000000D01*
X215857458Y-115185000D02*
X215000000Y-114327542D01*
X216315000Y-115685000D02*
X215685000Y-115685000D01*
X216230000Y-143115000D02*
X216800000Y-142545000D01*
X220500000Y-138500000D02*
X221000000Y-139000000D01*
X216800000Y-141500000D02*
X216800000Y-140200000D01*
X237500000Y-142500000D02*
X235040000Y-142500000D01*
X214900000Y-122200000D02*
X214050000Y-123050000D01*
X214900000Y-120500000D02*
X214900000Y-122000000D01*
X212000000Y-126500000D02*
X212000000Y-126000000D01*
X215500000Y-135000000D02*
X217500000Y-135000000D01*
X238450000Y-121000000D02*
X238450000Y-129600000D01*
X214050000Y-122050000D02*
X214050000Y-123050000D01*
X222576079Y-114685000D02*
X222731478Y-114840399D01*
X220500000Y-134500000D02*
X220500000Y-138500000D01*
X215680000Y-145500000D02*
X215680000Y-143115000D01*
X209000000Y-123500000D02*
X209000000Y-124600000D01*
X217000000Y-120233000D02*
X216696000Y-119929000D01*
X221200000Y-109900000D02*
X221500000Y-109600000D01*
X216000000Y-113000000D02*
X215500000Y-112500000D01*
X219950000Y-109900000D02*
X221200000Y-109900000D01*
X222500000Y-118000000D02*
X223500000Y-119000000D01*
X222450000Y-126100000D02*
X222579867Y-126100000D01*
X211900000Y-119000000D02*
X213400000Y-120500000D01*
X216300000Y-141000000D02*
X216800000Y-141500000D01*
X235040000Y-142500000D02*
X233540000Y-144000000D01*
X217500000Y-116685000D02*
X217500000Y-117870000D01*
X222000000Y-134500000D02*
X220500000Y-134500000D01*
X229600000Y-117400000D02*
X228000000Y-119000000D01*
X227500000Y-146000000D02*
X227500000Y-146765000D01*
X209500000Y-126900000D02*
X210400000Y-126000000D01*
X206500000Y-118000000D02*
X204820000Y-118000000D01*
X231500000Y-108500000D02*
X230400000Y-109600000D01*
X219000000Y-113000000D02*
X219000000Y-115185000D01*
X212601000Y-142399000D02*
X214000000Y-141000000D01*
X210400000Y-126000000D02*
X212000000Y-126000000D01*
X220248943Y-120899000D02*
X217399000Y-120899000D01*
X231000000Y-121500000D02*
X230000000Y-122500000D01*
X222601000Y-133899000D02*
X222000000Y-134500000D01*
X227000000Y-147265000D02*
X230275000Y-147265000D01*
X214500000Y-126000000D02*
X215000000Y-126500000D01*
X230000000Y-121000000D02*
X230000000Y-122500000D01*
X211000000Y-126900000D02*
X209500000Y-126900000D01*
X231500000Y-114600000D02*
X229000000Y-112100000D01*
X212000000Y-126000000D02*
X212000000Y-125100000D01*
X217000000Y-109900000D02*
X218200000Y-109900000D01*
X222860000Y-139530000D02*
X222860000Y-140000000D01*
X213400000Y-120500000D02*
X214900000Y-120500000D01*
%TO.N,NFC_ANT_1*%
X203900000Y-121000000D02*
X202500000Y-119600000D01*
X204100000Y-114780000D02*
X204600000Y-115280000D01*
X201600000Y-114780000D02*
X203000000Y-114780000D01*
X201600000Y-116900000D02*
X201500000Y-117000000D01*
X205100000Y-114780000D02*
X204600000Y-115280000D01*
X202500000Y-115280000D02*
X203000000Y-114780000D01*
X201600000Y-114780000D02*
X201600000Y-116900000D01*
X203000000Y-114780000D02*
X204100000Y-114780000D01*
X206000000Y-114780000D02*
X205100000Y-114780000D01*
X204600000Y-115280000D02*
X204600000Y-116280000D01*
X202500000Y-119600000D02*
X202500000Y-115280000D01*
%TO.N,NFC_ANT_2*%
X201600000Y-110230000D02*
X201600000Y-107400000D01*
X204600000Y-109780000D02*
X204600000Y-108780000D01*
X203900000Y-123000000D02*
X203500000Y-123000000D01*
X204150000Y-110230000D02*
X204600000Y-109780000D01*
X201600000Y-110230000D02*
X204150000Y-110230000D01*
X203500000Y-123000000D02*
X202500000Y-122000000D01*
X206000000Y-110280000D02*
X205100000Y-110280000D01*
X201600000Y-107400000D02*
X204000000Y-105000000D01*
X205100000Y-110280000D02*
X204600000Y-109780000D01*
%TO.N,Net-(U1-DECUSB)*%
X214000000Y-133100000D02*
X213500000Y-133600000D01*
X214000000Y-132000000D02*
X214000000Y-133100000D01*
%TO.N,VDD3.3v*%
X216500000Y-132500000D02*
X216500000Y-132600000D01*
X216450000Y-129350000D02*
X215500000Y-130300000D01*
X220500000Y-132953033D02*
X220500000Y-133400000D01*
X224432900Y-139500000D02*
X226140000Y-139500000D01*
X221500000Y-135500000D02*
X221500000Y-136567100D01*
X220100000Y-122900000D02*
X220900000Y-122900000D01*
X216000000Y-124850000D02*
X213650000Y-124850000D01*
X220100000Y-122100000D02*
X220000000Y-122000000D01*
X216000000Y-122000000D02*
X216000000Y-122500000D01*
X220500000Y-133400000D02*
X220500000Y-133000000D01*
X215500000Y-130855546D02*
X215500000Y-131000000D01*
X222450000Y-130850000D02*
X222450000Y-132950000D01*
X216950000Y-129600000D02*
X216755546Y-129600000D01*
X221950000Y-123950000D02*
X221950000Y-124350000D01*
X222785000Y-117185000D02*
X223500000Y-117900000D01*
X220900000Y-122900000D02*
X221950000Y-123950000D01*
X221185000Y-117185000D02*
X222785000Y-117185000D01*
X213650000Y-124850000D02*
X213500000Y-125000000D01*
X215500000Y-125350000D02*
X216000000Y-124850000D01*
X220500000Y-133000000D02*
X221000000Y-132500000D01*
X216450000Y-124850000D02*
X216000000Y-124850000D01*
X216000000Y-122500000D02*
X213500000Y-125000000D01*
X215500000Y-130300000D02*
X215500000Y-125350000D01*
X221500000Y-136567100D02*
X224432900Y-139500000D01*
X216500000Y-132600000D02*
X215500000Y-133600000D01*
X223500000Y-117900000D02*
X224700000Y-117900000D01*
X222000000Y-133400000D02*
X221900000Y-133400000D01*
X224700000Y-117900000D02*
X225000000Y-117600000D01*
X220100000Y-122900000D02*
X220100000Y-122100000D01*
X215500000Y-131000000D02*
X215500000Y-133600000D01*
X219950000Y-132403033D02*
X220500000Y-132953033D01*
X221900000Y-133400000D02*
X221000000Y-132500000D01*
X219950000Y-130850000D02*
X219950000Y-132403033D01*
X216755546Y-129600000D02*
X215500000Y-130855546D01*
X220000000Y-122000000D02*
X216000000Y-122000000D01*
X215500000Y-130300000D02*
X215500000Y-131000000D01*
X222450000Y-132950000D02*
X222000000Y-133400000D01*
%TO.N,vusb*%
X216950000Y-131104333D02*
X216950000Y-130850000D01*
X219950000Y-111450000D02*
X220000000Y-111500000D01*
X223500000Y-113500000D02*
X225000000Y-113500000D01*
X226500000Y-135500000D02*
X224000000Y-135500000D01*
X218849000Y-138151000D02*
X218849000Y-133003333D01*
X218849000Y-133003333D02*
X218172834Y-132327166D01*
X217500000Y-133600000D02*
X217500000Y-133000000D01*
X222400000Y-142545000D02*
X222400000Y-141600000D01*
X221500000Y-111000000D02*
X222103470Y-111000000D01*
X224000000Y-135500000D02*
X223500000Y-136000000D01*
X226400000Y-142500000D02*
X223900000Y-140000000D01*
X217500000Y-141500000D02*
X217500000Y-142445000D01*
X217500000Y-142445000D02*
X217600000Y-142545000D01*
X217500000Y-133000000D02*
X218172834Y-132327166D01*
X226000000Y-113500000D02*
X225000000Y-113500000D01*
X222103470Y-111000000D02*
X222801735Y-110301735D01*
X219950000Y-111000000D02*
X219950000Y-111450000D01*
X226400000Y-144160000D02*
X226400000Y-142500000D01*
X212500000Y-143000000D02*
X212500000Y-144030000D01*
X221500000Y-111000000D02*
X219950000Y-111000000D01*
X218500000Y-138500000D02*
X218849000Y-138151000D01*
X218172834Y-132327166D02*
X216950000Y-131104333D01*
X220000000Y-111500000D02*
X220000000Y-113000000D01*
X212500000Y-144030000D02*
X212450000Y-144080000D01*
X223315000Y-113685000D02*
X223500000Y-113500000D01*
X221185000Y-113685000D02*
X223315000Y-113685000D01*
X222400000Y-141600000D02*
X222500000Y-141500000D01*
%TO.N,Net-(U2-AGDC)*%
X213500000Y-119000000D02*
X213000000Y-119000000D01*
X216315000Y-117185000D02*
X215315000Y-117185000D01*
X213000000Y-117500000D02*
X215000000Y-117500000D01*
X215315000Y-117185000D02*
X215000000Y-117500000D01*
X215000000Y-117500000D02*
X213500000Y-119000000D01*
%TO.N,Net-(U2-VDD_DR)*%
X220500000Y-113000000D02*
X221500000Y-113000000D01*
X218000000Y-112000000D02*
X218000000Y-113000000D01*
X221500000Y-113000000D02*
X222000000Y-112500000D01*
X217000000Y-111000000D02*
X217750000Y-111750000D01*
X217750000Y-111750000D02*
X218000000Y-112000000D01*
X217750000Y-111750000D02*
X218500000Y-111000000D01*
%TO.N,Net-(U2-VDD_AM)*%
X219500000Y-113000000D02*
X219500000Y-112100000D01*
X226500000Y-110000000D02*
X228000000Y-110000000D01*
X222251000Y-111701000D02*
X221299000Y-111701000D01*
X223952000Y-110000000D02*
X222251000Y-111701000D01*
X219500000Y-112100000D02*
X219400000Y-112000000D01*
X221299000Y-111701000D02*
X221000000Y-112000000D01*
X226500000Y-110000000D02*
X223952000Y-110000000D01*
%TO.N,Net-(U2-VDD_A)*%
X227500000Y-113500000D02*
X229000000Y-113500000D01*
X221201000Y-114201000D02*
X221185000Y-114185000D01*
X227500000Y-113500000D02*
X226799000Y-114201000D01*
X226799000Y-114201000D02*
X221201000Y-114201000D01*
%TO.N,Net-(U2-VDD_D)*%
X227700000Y-117900000D02*
X228000000Y-117600000D01*
X226500000Y-117775000D02*
X226500000Y-117900000D01*
X221185000Y-116185000D02*
X221901000Y-116185000D01*
X225509000Y-116784000D02*
X226500000Y-117775000D01*
X221901000Y-116185000D02*
X222500000Y-116784000D01*
X226500000Y-117900000D02*
X227700000Y-117900000D01*
X222500000Y-116784000D02*
X225509000Y-116784000D01*
%TO.N,Net-(U2-XTI)*%
X229500000Y-119500000D02*
X230500000Y-119500000D01*
X221185000Y-115185000D02*
X222227550Y-115185000D01*
X228301000Y-115957450D02*
X228500000Y-115758450D01*
X231500000Y-120400000D02*
X231400000Y-120400000D01*
X222227550Y-115185000D02*
X223000000Y-115957450D01*
X231500000Y-118500000D02*
X231500000Y-117400000D01*
X231400000Y-120400000D02*
X230500000Y-119500000D01*
X230500000Y-119500000D02*
X231500000Y-118500000D01*
X223000000Y-115957450D02*
X228301000Y-115957450D01*
%TO.N,Net-(U2-XTO)*%
X230058450Y-116358450D02*
X230200000Y-116500000D01*
X221185000Y-115685000D02*
X221968100Y-115685000D01*
X222641550Y-116358450D02*
X230058450Y-116358450D01*
X232000000Y-112000000D02*
X232000000Y-113000000D01*
X221968100Y-115685000D02*
X222641550Y-116358450D01*
X229500000Y-115608393D02*
X228748943Y-116359450D01*
X232000000Y-113000000D02*
X231500000Y-113500000D01*
X229500000Y-115500000D02*
X229500000Y-115608393D01*
%TO.N,Net-(U1-XC2)*%
X223000000Y-122000000D02*
X224000000Y-122000000D01*
%TO.N,Net-(U1-XC1)*%
X228000000Y-125450000D02*
X228000000Y-124500000D01*
X225455000Y-124455000D02*
X226900000Y-123010000D01*
X222950000Y-124850000D02*
X225060000Y-124850000D01*
X225060000Y-124850000D02*
X225455000Y-124455000D01*
%TO.N,Net-(U1-P0.00{slash}XL1)*%
X216000000Y-126000000D02*
X216000000Y-126500000D01*
X216518367Y-125911500D02*
X216088500Y-125911500D01*
X210900000Y-137500000D02*
X210900000Y-139000000D01*
X210900000Y-139000000D02*
X212900000Y-141000000D01*
X216088500Y-125911500D02*
X216000000Y-126000000D01*
X216950000Y-125600000D02*
X216829867Y-125600000D01*
X216829867Y-125600000D02*
X216518367Y-125911500D01*
X210500000Y-134000000D02*
X210900000Y-134400000D01*
X210900000Y-134400000D02*
X210900000Y-137500000D01*
%TO.N,Net-(U1-P0.01{slash}XL2)*%
X212100000Y-137500000D02*
X212100000Y-138700000D01*
X212100000Y-136100000D02*
X212100000Y-137500000D01*
X212100000Y-138700000D02*
X212900000Y-139500000D01*
X211500000Y-135500000D02*
X212100000Y-136100000D01*
%TO.N,DCC*%
X210500000Y-129000000D02*
X209500000Y-128000000D01*
X220869121Y-123717651D02*
X220651470Y-123500000D01*
X217800000Y-123500000D02*
X217700000Y-123600000D01*
X211000000Y-128000000D02*
X209500000Y-128000000D01*
X211100000Y-128100000D02*
X211000000Y-128000000D01*
X223096256Y-125703744D02*
X222950000Y-125850000D01*
X212500000Y-128100000D02*
X211100000Y-128100000D01*
X217700000Y-123600000D02*
X217000000Y-122900000D01*
X220651470Y-123500000D02*
X217800000Y-123500000D01*
X211500000Y-129000000D02*
X210500000Y-129000000D01*
X217700000Y-124850000D02*
X217700000Y-123600000D01*
X223096256Y-125288769D02*
X223096256Y-125703744D01*
%TO.N,Net-(U1-DEC3)*%
X220248902Y-121500000D02*
X222074637Y-123325735D01*
X220248902Y-121500000D02*
X217000000Y-121500000D01*
X217000000Y-121500000D02*
X216000000Y-120500000D01*
X222074637Y-123325735D02*
X222174265Y-123325735D01*
%TO.N,Net-(U1-DEC1)*%
X211500000Y-131500000D02*
X212000000Y-132000000D01*
X212000000Y-132000000D02*
X212000000Y-132400000D01*
%TO.N,Net-(U1-ANT)*%
X225000000Y-132000000D02*
X224000000Y-133000000D01*
X225500000Y-131900000D02*
X225400000Y-132000000D01*
X211000000Y-144000000D02*
X209000000Y-144000000D01*
X225400000Y-132000000D02*
X225000000Y-132000000D01*
X225500000Y-130500000D02*
X225500000Y-131900000D01*
%TO.N,ST_RFI1*%
X214685000Y-116185000D02*
X212500000Y-114000000D01*
X206649000Y-116851000D02*
X204071000Y-116851000D01*
X203500000Y-117422000D02*
X204071000Y-116851000D01*
X204071000Y-116851000D02*
X203500000Y-116280000D01*
X203500000Y-117780000D02*
X203500000Y-117422000D01*
X212500000Y-114000000D02*
X209500000Y-114000000D01*
X216315000Y-116185000D02*
X214685000Y-116185000D01*
X209500000Y-114000000D02*
X206649000Y-116851000D01*
%TO.N,Net-(C37-Pad2)*%
X208900000Y-113250000D02*
X207100000Y-113250000D01*
X207100000Y-113250000D02*
X207100000Y-114780000D01*
%TO.N,Net-(C40-Pad1)*%
X207100000Y-111750000D02*
X207100000Y-110280000D01*
X208900000Y-111750000D02*
X207100000Y-111750000D01*
%TO.N,ST_RFI2*%
X212500000Y-115000000D02*
X211500000Y-115000000D01*
X216315000Y-116685000D02*
X214185000Y-116685000D01*
X204149000Y-107851000D02*
X204071000Y-107851000D01*
X211500000Y-110500000D02*
X208851000Y-107851000D01*
X203500000Y-108780000D02*
X203500000Y-108500000D01*
X204071000Y-107851000D02*
X203500000Y-107280000D01*
X203500000Y-108500000D02*
X204149000Y-107851000D01*
X214185000Y-116685000D02*
X212500000Y-115000000D01*
X208851000Y-107851000D02*
X204149000Y-107851000D01*
%TO.N,Net-(Q1-D)*%
X205100000Y-120900000D02*
X205000000Y-121000000D01*
X206440000Y-120900000D02*
X205100000Y-120900000D01*
%TO.N,Net-(Q2-D)*%
X205100000Y-122900000D02*
X205000000Y-123000000D01*
X206440000Y-122900000D02*
X205100000Y-122900000D01*
%TO.N,RESET*%
X226500000Y-138500000D02*
X226485000Y-138515000D01*
X228000000Y-138500000D02*
X228000000Y-140500000D01*
X229450000Y-138950000D02*
X229000000Y-138500000D01*
X222500000Y-135500000D02*
X222500000Y-137000000D01*
X227000000Y-139030000D02*
X227000000Y-139500000D01*
X229460000Y-141960000D02*
X229460000Y-144000000D01*
X228000000Y-138500000D02*
X226500000Y-138500000D01*
X226470000Y-138500000D02*
X226485000Y-138515000D01*
X226485000Y-138515000D02*
X227000000Y-139030000D01*
X229450000Y-139500000D02*
X229450000Y-138950000D01*
X228000000Y-140500000D02*
X229460000Y-141960000D01*
X222500000Y-137000000D02*
X224000000Y-138500000D01*
X229000000Y-138500000D02*
X228000000Y-138500000D01*
X224000000Y-138500000D02*
X226470000Y-138500000D01*
X223500000Y-134500000D02*
X222500000Y-135500000D01*
%TO.N,Net-(U1-DCC)*%
X217171251Y-124850000D02*
X216540156Y-124218905D01*
X214000000Y-127000000D02*
X214000000Y-128100000D01*
X217200000Y-124850000D02*
X217171251Y-124850000D01*
%TO.N,Net-(L1-Pad2)*%
X214000000Y-129500000D02*
X212500000Y-129500000D01*
%TO.N,ST_RFO1*%
X218500000Y-112100000D02*
X218600000Y-112000000D01*
X212250000Y-113250000D02*
X210000000Y-113250000D01*
X218500000Y-113000000D02*
X218500000Y-112100000D01*
X214000000Y-111500000D02*
X212250000Y-113250000D01*
%TO.N,ST_RFO2*%
X216327493Y-111827493D02*
X216124265Y-111624265D01*
X217500000Y-113000000D02*
X217500000Y-112542458D01*
X217500000Y-112542458D02*
X216785035Y-111827493D01*
X214000000Y-110500000D02*
X212750000Y-111750000D01*
X212750000Y-111750000D02*
X210000000Y-111750000D01*
X216785035Y-111827493D02*
X216327493Y-111827493D01*
%TO.N,NEOPIXEL_1*%
X213500000Y-144030000D02*
X213550000Y-144080000D01*
X213500000Y-142500000D02*
X213500000Y-144030000D01*
%TO.N,NEOPIXEL_2*%
X227500000Y-144160000D02*
X227500000Y-142500000D01*
X223144454Y-129350000D02*
X222950000Y-129350000D01*
X227500000Y-142500000D02*
X226000000Y-141000000D01*
X224000000Y-132000000D02*
X224000000Y-130205546D01*
X224000000Y-130205546D02*
X223144454Y-129350000D01*
%TO.N,NFC_SW*%
X210432900Y-129500000D02*
X209500000Y-129500000D01*
X211932900Y-131000000D02*
X210432900Y-129500000D01*
X208500000Y-121500000D02*
X207700000Y-121500000D01*
X207700000Y-121500000D02*
X207500000Y-121300000D01*
X207500000Y-127500000D02*
X207500000Y-123300000D01*
X209500000Y-129500000D02*
X207500000Y-127500000D01*
X214102000Y-131000000D02*
X211932900Y-131000000D01*
%TO.N,NRF_NFC_1*%
X209300003Y-118699997D02*
X208750000Y-119250000D01*
X208000000Y-118000000D02*
X208750000Y-118750000D01*
X208750000Y-118750000D02*
X208750000Y-119250000D01*
X224750057Y-126900000D02*
X226500000Y-126900000D01*
X210500000Y-118699997D02*
X209300003Y-118699997D01*
X222950000Y-127350000D02*
X224300057Y-127350000D01*
X208750000Y-119250000D02*
X207500000Y-120500000D01*
X224300057Y-127350000D02*
X224750057Y-126900000D01*
%TO.N,NRF_NFC_2*%
X210500000Y-119500000D02*
X209500000Y-120500000D01*
X223751000Y-126850000D02*
X224500000Y-126101000D01*
X210500000Y-123000000D02*
X209500000Y-122000000D01*
X224501000Y-126100000D02*
X225500000Y-126100000D01*
X209500000Y-122000000D02*
X209000000Y-122500000D01*
X224500000Y-126101000D02*
X224501000Y-126100000D01*
X209000000Y-122500000D02*
X207500000Y-122500000D01*
X210500000Y-123500000D02*
X210500000Y-123000000D01*
X209500000Y-120500000D02*
X209500000Y-122000000D01*
X222950000Y-126850000D02*
X223751000Y-126850000D01*
%TO.N,Net-(USB1-CC1)*%
X218750000Y-140890000D02*
X217860000Y-140000000D01*
X218750000Y-142545000D02*
X218750000Y-140890000D01*
%TO.N,Net-(USB1-CC2)*%
X221750000Y-140250000D02*
X222000000Y-140000000D01*
X221750000Y-142545000D02*
X221750000Y-140250000D01*
%TO.N,BUTTON_1*%
X233000000Y-129000000D02*
X233500000Y-129500000D01*
X234550000Y-132000000D02*
X234550000Y-140600000D01*
X225000000Y-129000000D02*
X233000000Y-129000000D01*
X233500000Y-130950000D02*
X234550000Y-132000000D01*
X233500000Y-129500000D02*
X233500000Y-130950000D01*
%TO.N,BUTTON_2*%
X234550000Y-129600000D02*
X234550000Y-121000000D01*
X233300000Y-128350000D02*
X234550000Y-129600000D01*
X222950000Y-128350000D02*
X233300000Y-128350000D01*
%TO.N,BUTTON_3*%
X225000000Y-127500000D02*
X232500000Y-127500000D01*
X233000000Y-120150000D02*
X234550000Y-118600000D01*
X233000000Y-127000000D02*
X233000000Y-120150000D01*
X234550000Y-118600000D02*
X234550000Y-110000000D01*
X232500000Y-127500000D02*
X233000000Y-127000000D01*
%TO.N,MISO*%
X220786793Y-118156793D02*
X220500000Y-117870000D01*
X220786793Y-119529761D02*
X220786793Y-118156793D01*
%TO.N,SCLK*%
X219500000Y-119102430D02*
X219500000Y-117870000D01*
X219114579Y-119487851D02*
X219500000Y-119102430D01*
%TO.N,CS*%
X218500000Y-119000000D02*
X219000000Y-118500000D01*
X219000000Y-118500000D02*
X219000000Y-117870000D01*
X218500000Y-120000000D02*
X218500000Y-119000000D01*
%TO.N,D-*%
X220250000Y-142545000D02*
X220250000Y-141150000D01*
X220250000Y-141150000D02*
X220400000Y-141000000D01*
X219250000Y-139900000D02*
X219250000Y-132837233D01*
X217450000Y-131037233D02*
X217450000Y-130850000D01*
X219250000Y-142545000D02*
X219250000Y-140100000D01*
X219250000Y-140100000D02*
X219150000Y-140000000D01*
X219250000Y-132837233D02*
X217450000Y-131037233D01*
X219150000Y-140000000D02*
X219250000Y-139900000D01*
%TO.N,IRQ*%
X217543849Y-119979567D02*
X218000000Y-119523416D01*
X218000000Y-119523416D02*
X218000000Y-117870000D01*
%TO.N,D+*%
X221000000Y-140500000D02*
X220500000Y-140000000D01*
X219750000Y-142545000D02*
X219750000Y-140000000D01*
X219750000Y-132770133D02*
X217950000Y-130970133D01*
X219750000Y-132770133D02*
X219750000Y-140000000D01*
X217950000Y-130970133D02*
X217950000Y-130850000D01*
X220500000Y-140000000D02*
X219750000Y-140000000D01*
X221000000Y-141500000D02*
X221000000Y-140500000D01*
X220750000Y-142545000D02*
X220750000Y-141750000D01*
X220750000Y-141750000D02*
X221000000Y-141500000D01*
%TO.N,MOSI*%
X219991063Y-117878937D02*
X220000000Y-117870000D01*
X219991063Y-119447187D02*
X219991063Y-117878937D01*
%TD*%
M02*
